<svg width="1003" height="110" viewBox="0 0 1003 110" fill="none" xmlns="http://www.w3.org/2000/svg">
<path d="M62.9 87L61.5 95H17L5.2 82L13 38L29.3 25H73.8L72.4 33H31.9L22 41L15.3 79L22.4 87H62.9ZM51.8 10.8L60.9 1.49999H69.4L55.3 16.5H46.3L37.4 1.49999H45.9L51.8 10.8ZM83.7844 45H92.7844L83.9844 95H74.9844L83.7844 45ZM94.3844 35.5H85.3844L87.4844 24H96.4844L94.3844 35.5ZM117.661 65.5H139.161L147.961 75L146.061 85.5L133.961 95H98.4609L99.8609 87H131.361L137.661 82L138.361 78.5L133.661 73.5H112.161L103.361 64L104.961 55L117.761 45H150.261L148.861 53H120.361L113.361 58.5L112.961 60.5L117.661 65.5ZM158.404 53L159.804 45H169.804L172.104 32H181.104L178.804 45H193.804L192.404 53H177.404L172.604 80L178.904 87H190.904L189.504 95H173.504L163.004 83.5L168.404 53H158.404ZM203.908 55.5L218.408 44H243.408L253.908 55.5L248.808 84.5L234.308 96H209.308L198.808 84.5L203.908 55.5ZM244.308 59L238.008 52H221.008L212.308 59L208.408 81L214.708 88H231.708L240.408 81L244.308 59ZM262.896 53L264.296 45H274.296L276.596 32H285.596L283.296 45H298.296L296.896 53H281.896L277.096 80L283.396 87H295.396L293.996 95H277.996L267.496 83.5L272.896 53H262.896ZM340.4 81L341.8 73H317.8L311.4 78L310.7 82L315.4 87H332.9L340.4 81ZM341 89L333.5 95H310L301.1 85.5L303.1 74.5L315.2 65H343.2L344.4 58.5L339.4 53H313.4L314.8 45H344.8L354 55L347 95H341V89ZM441.504 52L403.404 87H436.404L435.004 95H390.004L391.204 88L429.404 53H398.404L399.804 45H442.804L441.504 52ZM483.857 81L485.257 73H461.257L454.857 78L454.157 82L458.857 87H476.357L483.857 81ZM484.457 89L476.957 95H453.457L444.557 85.5L446.557 74.5L458.657 65H486.657L487.857 58.5L482.857 53H456.857L458.257 45H488.257L497.457 55L490.457 95H484.457V89ZM516.03 80L522.33 87H549.33L547.93 95H516.93L506.43 83.5L511.13 56.5L525.73 45H556.73L555.33 53H528.33L519.53 60L516.03 80ZM541.93 30.8L551.03 21.5H559.53L545.43 36.5H536.43L527.53 21.5H536.03L541.93 30.8ZM568.734 45H577.734L568.934 95H559.934L568.734 45ZM581.134 20H591.634L576.934 38H570.934L581.134 20ZM599.734 45L599.634 51L607.234 45H630.234L639.834 55.5L632.934 95H623.934L630.234 59L624.834 53H607.834L600.234 59L593.934 95H584.934L593.734 45H599.734ZM685.81 81L687.21 73H663.21L656.81 78L656.11 82L660.81 87H678.31L685.81 81ZM686.41 89L678.91 95H655.41L646.51 85.5L648.51 74.5L660.61 65H688.61L689.81 58.5L684.81 53H658.81L660.21 45H690.21L699.41 55L692.41 95H686.41V89ZM689.11 20H699.61L684.91 38H678.91L689.11 20ZM781.914 95V89L774.414 95H751.414L741.714 84.5L748.714 45H757.714L751.314 81L756.814 87H773.814L781.314 81L787.714 45H796.714L787.914 95H781.914ZM844.183 45L854.483 85.5L879.183 45H888.683L858.383 95H847.383L834.683 45H844.183ZM925.263 81L926.663 73H902.663L896.263 78L895.563 82L900.263 87H917.763L925.263 81ZM925.863 89L918.363 95H894.863L885.963 85.5L887.963 74.5L900.063 65H928.063L929.263 58.5L924.263 53H898.263L899.663 45H929.663L938.863 55L931.863 95H925.863V89ZM928.563 20H939.063L924.363 38H918.363L928.563 20ZM964.536 65.5H986.036L994.836 75L992.936 85.5L980.836 95H945.336L946.736 87H978.236L984.536 82L985.236 78.5L980.536 73.5H959.036L950.236 64L951.836 55L964.636 45H997.136L995.736 53H967.236L960.236 58.5L959.836 60.5L964.536 65.5Z" fill="#042363"/>
</svg>
