<?xml version="1.0" standalone="no"?>
<!DOCTYPE svg PUBLIC "-//W3C//DTD SVG 20010904//EN"
 "http://www.w3.org/TR/2001/REC-SVG-20010904/DTD/svg10.dtd">
<svg version="1.0" xmlns="http://www.w3.org/2000/svg"
 width="590.000000pt" height="612.000000pt" viewBox="0 0 590.000000 612.000000"
 preserveAspectRatio="xMidYMid meet">

<g transform="translate(0.000000,612.000000) scale(0.100000,-0.100000)"
fill="#000000" stroke="none">
<path d="M3290 6084 c-6 -14 -14 -23 -18 -20 -4 2 -9 -13 -9 -35 -2 -32 1 -39
16 -39 11 0 29 8 41 18 21 17 21 21 9 60 -14 48 -25 53 -39 16z"/>
<path d="M2989 6081 c12 -8 12 -14 1 -43 -7 -18 -18 -37 -25 -43 -6 -5 -14
-18 -18 -28 -5 -13 -15 -17 -34 -15 -15 2 -28 -2 -30 -9 -3 -7 2 -13 11 -13 9
0 16 -6 16 -14 0 -8 9 -18 20 -21 11 -3 25 -15 30 -25 12 -22 -1 -34 -40 -34
-22 -1 -26 -6 -31 -49 -3 -27 -10 -51 -15 -55 -21 -14 -25 -45 -7 -64 16 -18
15 -19 -5 -34 -22 -15 -30 -44 -12 -44 6 0 10 -13 10 -29 0 -36 23 -47 50 -24
25 22 25 39 0 53 -11 6 -20 20 -20 31 0 20 0 20 31 -2 25 -17 33 -19 39 -9 5
8 18 15 29 17 15 2 26 -7 41 -37 22 -43 26 -80 9 -80 -7 0 -18 8 -25 18 -10
13 -15 14 -25 5 -9 -9 -8 -15 5 -28 27 -28 19 -37 -26 -32 -24 3 -55 8 -71 12
-23 6 -26 5 -21 -9 5 -13 -1 -16 -30 -16 -38 0 -45 -10 -21 -30 20 -17 19 -32
-5 -53 -26 -22 -76 -22 -88 -1 -15 26 -24 -1 -11 -30 9 -20 9 -29 -1 -41 -18
-22 -30 -18 -30 9 0 20 -4 23 -22 18 -15 -4 -19 -2 -13 8 4 7 2 16 -6 21 -22
14 -33 10 -19 -6 10 -12 9 -15 -4 -15 -10 0 -17 -7 -15 -17 3 -30 -1 -43 -11
-43 -5 0 -10 11 -10 24 0 23 -3 21 -45 -20 -25 -24 -45 -48 -45 -54 0 -18 -24
-10 -57 18 -30 26 -31 30 -23 67 14 57 12 75 -6 75 -12 0 -14 7 -9 30 4 18 3
30 -3 30 -14 0 -42 29 -42 42 0 6 12 3 26 -7 26 -17 27 -16 52 9 31 31 26 40
-11 21 -26 -13 -27 -13 -21 10 5 19 1 27 -19 36 -33 15 -75 -5 -57 -26 9 -11
6 -16 -16 -21 -18 -5 -29 -3 -32 4 -6 18 -20 14 -24 -5 -3 -15 -9 -13 -36 14
-39 38 -44 82 -9 81 12 -1 36 -1 52 1 l30 2 -27 15 c-17 8 -25 20 -22 28 4 11
0 13 -16 9 -12 -3 -24 -13 -27 -22 -4 -9 -11 -22 -17 -29 -5 -8 -9 -34 -7 -59
2 -30 -1 -43 -8 -39 -7 4 -11 -1 -11 -13 0 -24 -10 -27 -29 -8 -10 10 -15 8
-26 -7 -17 -22 -11 -38 10 -29 8 3 15 0 15 -6 0 -18 61 -81 80 -81 23 0 40
-21 35 -45 -2 -11 -4 -29 -4 -40 -1 -15 -4 -16 -13 -7 -16 16 -43 15 -58 -3
-19 -23 -31 -18 -24 10 6 25 5 25 -54 25 -44 0 -61 -4 -66 -15 -3 -8 -16 -15
-28 -16 -20 -1 -18 -3 10 -15 24 -11 38 -12 52 -4 27 14 25 -2 -1 -26 -16 -14
-23 -15 -26 -6 -8 22 -33 13 -33 -13 0 -28 -12 -32 -29 -11 -10 11 -8 15 6 18
14 3 12 7 -13 20 l-30 16 -13 -44 c-14 -48 -26 -57 -28 -22 -1 12 -9 28 -17
36 -12 13 -16 12 -26 -8 -6 -12 -9 -24 -6 -28 4 -3 -3 -16 -15 -28 -14 -15
-19 -29 -14 -43 9 -28 23 -27 35 3 7 18 14 23 30 19 28 -7 36 -23 12 -23 -19
0 -38 -27 -27 -38 3 -3 5 0 5 6 0 7 5 12 11 12 8 0 10 -15 6 -47 -4 -32 -1
-57 8 -73 17 -29 19 -44 6 -36 -5 3 -12 -1 -15 -10 -8 -21 -24 -9 -41 32 -8
19 -19 34 -26 34 -7 0 -8 -7 -4 -17 20 -48 15 -72 -19 -98 -37 -28 -48 -31
-40 -11 3 8 -2 26 -11 40 -9 14 -13 30 -10 37 4 6 2 35 -5 64 -12 49 -11 55 9
83 29 42 26 46 -9 11 -16 -16 -27 -35 -24 -42 2 -8 -4 -21 -15 -31 -16 -15
-27 -17 -57 -9 -21 4 -39 14 -42 22 -3 9 2 11 18 6 15 -5 26 -1 35 12 21 26
18 34 -8 28 -15 -4 -28 -1 -36 9 -8 9 -20 16 -27 16 -9 0 -14 11 -14 30 0 33
-2 35 -31 19 -17 -9 -25 -6 -44 15 -13 14 -31 26 -40 26 -9 0 -25 10 -36 23
-13 16 -18 18 -19 7 0 -10 -7 -7 -20 10 l-20 25 0 -33 c0 -22 -6 -35 -17 -39
-10 -3 -26 -13 -35 -21 -12 -10 -29 -13 -57 -8 -49 8 -64 -9 -30 -35 19 -15
20 -19 7 -19 -9 0 -20 -5 -24 -11 -5 -9 1 -10 22 -5 l29 6 -22 -19 -23 -19 40
-16 c54 -22 87 -20 102 4 7 11 18 20 25 20 20 0 15 -28 -6 -42 -18 -11 -18
-14 -5 -39 19 -38 18 -41 -19 -67 -35 -23 -47 -55 -18 -44 9 3 19 10 22 15 10
14 79 -1 86 -19 3 -7 11 -14 18 -14 7 0 15 -5 17 -12 2 -6 22 -16 43 -22 26
-8 41 -19 45 -32 3 -14 12 -20 28 -19 26 2 26 1 10 -26 -10 -17 -10 -23 -1
-26 7 -3 22 -12 34 -22 l22 -17 -21 -47 c-22 -50 -40 -60 -49 -27 -9 35 -22
21 -25 -27 -3 -44 -5 -48 -35 -54 -38 -8 -41 2 -13 41 12 17 17 35 13 46 -5
14 -3 16 12 10 11 -4 16 -4 12 0 -4 4 -2 13 4 20 16 19 -7 54 -35 54 -13 0
-29 7 -36 15 -7 8 -21 15 -32 15 -17 0 -18 2 -8 15 7 9 19 14 27 11 7 -3 13 1
13 8 0 10 -7 12 -21 9 -14 -4 -26 0 -33 9 -6 8 -21 18 -34 22 -19 6 -21 10
-11 22 9 11 8 14 -9 14 -11 0 -22 5 -24 12 -2 6 -12 9 -21 5 -13 -5 -16 -13
-11 -32 5 -21 3 -24 -12 -19 -11 4 -28 15 -39 25 -34 30 -98 54 -147 54 -53 0
-67 -20 -22 -31 16 -4 23 -11 20 -21 -3 -8 4 -27 16 -43 16 -23 19 -32 10 -43
-9 -11 -7 -17 12 -27 14 -7 32 -10 40 -7 11 5 16 0 16 -13 0 -12 7 -20 16 -20
9 0 23 -8 30 -17 18 -24 17 -38 -1 -23 -10 8 -30 10 -60 6 -26 -4 -53 -3 -64
3 -13 7 -22 8 -26 1 -3 -5 5 -12 19 -16 25 -6 45 -36 27 -42 -5 -2 -8 -9 -5
-16 3 -8 -3 -12 -18 -12 -16 1 -22 -4 -19 -14 2 -8 4 -21 4 -27 0 -8 14 -13
33 -13 24 0 32 -4 28 -14 -3 -9 4 -16 21 -20 25 -6 27 -10 20 -44 -11 -62 -28
-112 -37 -112 -8 0 -5 19 9 58 4 8 0 10 -11 6 -20 -8 -21 10 -1 30 20 20 19
36 -2 35 -32 -1 -53 -14 -72 -42 l-18 -28 -13 46 c-7 25 -18 49 -24 53 -6 4
-17 17 -23 29 -10 18 -10 27 4 51 16 28 16 30 -4 55 l-20 26 -23 -24 c-30 -32
-58 -32 -66 0 -7 30 -20 32 -34 6 -10 -20 -14 -61 -5 -61 3 0 14 5 24 12 15 9
23 9 36 -2 16 -13 16 -15 -1 -27 -15 -11 -15 -13 -2 -13 10 0 15 -10 16 -30 1
-40 -15 -47 -39 -16 -11 13 -28 28 -39 31 -11 4 -20 13 -20 21 0 8 -9 14 -20
14 -26 0 -25 -6 7 -53 25 -36 26 -40 10 -52 -16 -11 -16 -13 1 -28 15 -13 21
-14 31 -4 11 10 12 6 7 -19 -6 -26 -4 -32 13 -37 27 -7 37 9 19 30 -11 14 -10
15 11 8 16 -5 21 -4 17 4 -4 6 -1 9 7 5 9 -3 16 3 19 14 5 18 51 36 63 24 3
-3 -13 -23 -36 -45 -30 -29 -37 -42 -28 -48 10 -6 10 -11 -1 -24 -12 -14 -10
-15 14 -6 17 7 26 7 26 1 0 -6 -11 -15 -24 -19 -13 -5 -26 -17 -29 -25 -4 -9
-13 -16 -20 -16 -10 0 -17 -17 -21 -50 -6 -44 -9 -49 -24 -41 -11 6 -24 6 -35
0 -11 -7 -17 -6 -17 1 0 5 -9 10 -19 10 -26 0 -36 17 -21 35 10 12 9 15 -8 15
-14 0 -21 -8 -24 -30 -4 -26 -1 -29 26 -32 26 -3 31 -8 38 -38 4 -20 2 -52 -4
-73 -9 -30 -9 -40 1 -46 18 -11 43 -103 32 -114 -7 -7 -15 -6 -25 2 -11 10
-18 6 -36 -19 -14 -20 -28 -29 -38 -25 -20 7 -52 -23 -45 -42 3 -8 0 -19 -8
-24 -10 -6 -4 -9 19 -9 17 0 32 -4 32 -9 0 -5 9 -13 20 -16 11 -3 20 -15 20
-25 0 -10 9 -20 22 -23 20 -6 20 -7 4 -32 -13 -20 -14 -30 -6 -46 13 -23 36
-20 34 5 -2 24 33 20 47 -5 16 -30 -4 -41 -61 -33 -54 8 -56 9 -41 28 13 16
-1 32 -19 21 -6 -3 -13 2 -17 11 -4 10 -2 19 5 22 19 6 14 22 -7 22 -23 0 -40
-22 -23 -28 23 -7 12 -21 -20 -24 -49 -5 -46 -26 5 -39 l45 -11 -16 -28 c-9
-16 -26 -31 -36 -34 -24 -6 -35 2 -19 12 13 8 6 52 -7 52 -5 0 -11 -8 -15 -19
-3 -10 -19 -30 -36 -45 -25 -23 -29 -32 -24 -54 4 -15 8 -32 8 -39 0 -7 6 -14
14 -17 22 -9 15 -23 -17 -36 -39 -16 -46 -9 -25 24 l17 25 -36 -1 c-30 -1 -40
-7 -57 -35 l-21 -34 23 -25 c19 -20 20 -24 6 -24 -9 0 -17 5 -17 10 0 16 -56
12 -70 -5 -11 -13 -15 -13 -41 0 -30 16 -89 20 -89 7 0 -11 -45 -32 -69 -32
-10 0 -26 9 -36 20 -24 26 -27 25 -47 -10 -9 -17 -13 -30 -8 -30 17 0 11 -15
-12 -29 -19 -12 -23 -11 -35 5 -17 24 -17 35 2 28 9 -4 15 0 15 10 0 8 10 24
21 35 l21 20 -22 36 c-21 33 -24 35 -39 21 -13 -13 -13 -21 -4 -46 11 -28 10
-30 -7 -25 -28 9 -58 -40 -55 -92 1 -24 5 -46 8 -50 4 -3 7 -19 7 -35 0 -31
14 -37 28 -12 12 22 66 10 79 -18 6 -14 20 -21 46 -24 20 -2 37 1 37 5 0 5 13
14 30 21 28 12 31 10 73 -31 53 -54 98 -80 104 -61 6 17 28 15 43 -3 7 -8 21
-15 31 -15 11 0 19 -5 19 -11 0 -7 10 -5 25 5 14 9 25 12 25 7 0 -5 -5 -13
-10 -16 -6 -3 -10 -16 -10 -28 0 -19 1 -20 13 -3 9 13 20 16 40 11 35 -9 35
-25 0 -25 -25 0 -25 -1 -10 -18 10 -10 17 -22 17 -27 0 -4 20 -30 45 -56 25
-27 51 -60 57 -75 11 -23 10 -28 -7 -40 -18 -14 -18 -14 2 -14 11 0 26 7 33
15 8 9 30 15 59 15 105 0 154 -23 87 -41 -58 -16 -61 -28 -14 -76 45 -46 78
-56 78 -23 0 11 7 20 15 20 17 0 20 -16 4 -25 -15 -10 26 -36 45 -29 9 3 23 0
32 -7 14 -12 16 -9 13 21 -3 34 1 37 31 26 10 -4 22 5 35 24 11 17 29 30 40
30 35 0 65 -12 65 -25 0 -7 10 -20 23 -28 21 -14 24 -13 34 2 12 19 26 19 238
6 189 -12 468 -79 612 -145 48 -23 121 -55 161 -72 41 -17 88 -44 105 -60 35
-32 100 -72 134 -82 15 -5 22 -2 25 9 3 14 6 14 22 2 17 -13 18 -18 6 -67 -8
-35 -10 -76 -5 -124 4 -39 7 -82 7 -96 -3 -137 0 -179 13 -200 5 -9 4 -11 -3
-6 -9 5 -12 -18 -12 -87 0 -110 16 -209 36 -220 16 -9 9 -27 -10 -27 -8 0 -16
12 -19 27 -3 16 -12 53 -21 83 -15 51 -15 148 -1 261 6 51 -12 53 -28 3 -19
-61 -35 -540 -18 -529 6 3 11 1 11 -4 0 -6 -7 -11 -15 -11 -12 0 -15 -13 -15
-55 0 -36 4 -55 12 -55 7 0 6 -5 -4 -13 -21 -17 -58 -625 -38 -637 9 -6 9 -9
-1 -12 -11 -4 -14 -53 -14 -259 l0 -254 243 -3 243 -2 -15 27 c-12 24 -12 29
1 38 13 10 13 16 3 34 -10 19 -9 22 1 16 9 -6 10 -3 4 11 -4 10 -8 28 -7 39 2
112 -25 531 -44 684 -13 106 -24 207 -24 225 0 24 -3 27 -10 16 -7 -11 -10
-11 -10 -2 0 7 -17 39 -38 70 -58 86 -59 92 -4 32 48 -52 73 -63 55 -23 -4 10
-7 77 -5 149 l3 132 60 22 c60 23 61 23 162 6 56 -9 123 -16 149 -16 l48 0
-52 -71 c-64 -87 -80 -98 -142 -95 -37 2 -52 8 -66 26 -19 26 -40 20 -40 -11
0 -24 82 -134 110 -149 16 -8 24 -4 47 26 62 81 77 95 107 108 30 14 87 63
103 90 7 11 29 11 126 3 101 -9 117 -13 117 -28 0 -11 16 -24 45 -36 l45 -18
0 -612 c0 -402 3 -613 10 -613 7 0 10 211 10 614 l0 615 43 25 42 26 3 -43 c2
-32 -5 -60 -28 -108 -36 -78 -40 -129 -9 -129 19 0 21 -5 17 -39 -3 -34 0 -42
19 -50 22 -10 23 -15 25 -158 l2 -148 3 143 c4 180 22 191 25 15 1 -165 0
-157 19 -161 23 -4 29 23 36 186 l6 142 26 6 c45 10 47 12 9 13 -56 1 -43 31
13 31 10 0 19 5 19 10 0 6 -18 10 -39 10 l-39 0 -1 55 c0 30 -5 64 -11 74 -13
25 -13 128 0 136 6 3 10 28 10 55 0 46 4 53 48 98 33 33 57 71 75 116 32 78
33 102 10 166 -16 45 -16 49 0 74 10 14 24 26 31 26 19 0 29 73 15 104 -13 27
-64 56 -99 56 -19 0 -48 -25 -88 -74 -11 -14 -10 -17 2 -22 12 -5 14 -16 9
-50 -4 -30 -2 -44 6 -44 17 0 13 -37 -5 -44 -9 -3 -40 -6 -69 -6 -48 0 -58 4
-86 33 -17 17 -44 61 -61 96 -16 35 -40 80 -52 100 -21 33 -24 54 -35 276 -6
132 -14 256 -16 276 -4 27 -1 38 11 43 13 5 14 1 9 -24 -6 -26 -4 -30 14 -30
17 0 20 4 15 30 -6 26 -4 30 15 30 13 0 26 -10 32 -24 l11 -24 23 25 c28 34
116 44 166 19 29 -14 34 -15 49 -1 14 12 23 13 45 5 21 -8 30 -8 35 0 4 6 22
10 41 8 l34 -3 -35 -20 -35 -20 55 -5 c31 -4 62 -2 72 4 12 7 24 5 44 -9 33
-21 94 -37 94 -24 0 5 7 9 15 9 13 0 14 -4 5 -20 -6 -11 -16 -18 -22 -14 -6 4
-9 1 -6 -7 3 -8 18 -17 34 -20 16 -4 25 -7 19 -8 -5 -1 -2 -6 8 -12 13 -8 21
-6 33 5 8 9 26 19 40 22 27 7 28 12 15 48 -7 17 -7 26 2 29 9 3 9 8 -1 18 -11
11 -14 10 -18 -9 -4 -12 -10 -19 -16 -16 -5 3 -15 0 -23 -6 -11 -10 -15 -7
-21 14 -7 31 -15 32 -39 6 -21 -23 -55 -27 -55 -5 0 8 4 15 9 15 5 0 11 9 14
19 4 17 2 18 -24 9 -16 -5 -32 -14 -35 -19 -8 -13 -40 -11 -82 6 -28 12 -33
18 -22 25 9 5 19 5 26 -1 8 -6 14 -5 18 6 3 8 12 15 20 15 8 0 32 11 53 26 25
17 45 23 61 19 20 -5 23 -3 17 15 -5 17 -2 20 24 20 17 0 31 5 31 10 0 7 6 7
18 1 10 -5 49 -11 87 -14 39 -2 57 -2 42 0 -16 2 -26 9 -24 16 5 15 90 12 95
-3 2 -5 19 -10 37 -10 19 0 37 -4 40 -10 3 -5 23 -10 43 -10 21 0 48 -7 60
-16 12 -8 30 -13 40 -10 29 9 77 -9 74 -27 -4 -21 7 -22 22 -1 13 18 46 9 46
-12 0 -14 14 -22 69 -39 20 -6 23 -4 17 10 -5 15 -1 16 36 10 24 -3 -13 13
-82 36 -69 23 -132 44 -140 47 -8 4 18 9 59 12 65 4 72 7 58 19 -25 20 -21 29
9 23 17 -3 25 -1 20 6 -5 9 41 32 65 32 22 0 5 -23 -26 -36 -41 -17 -45 -36
-10 -52 14 -6 25 -18 25 -27 0 -26 56 -19 79 11 l21 27 0 -32 c0 -17 1 -31 3
-31 1 0 16 -4 34 -9 24 -7 31 -6 27 4 -6 15 39 26 78 18 24 -5 26 -3 21 18 -3
13 -2 21 2 17 5 -4 13 -4 19 1 22 17 63 20 82 7 20 -15 26 -66 9 -78 -5 -4
-10 -15 -10 -25 0 -11 -8 -18 -20 -18 -27 -1 -65 -15 -65 -24 0 -5 18 -11 39
-15 21 -3 41 -12 44 -20 5 -13 87 -28 87 -15 0 3 11 4 25 1 17 -3 25 -11 25
-24 0 -16 5 -19 23 -14 12 3 27 6 33 6 18 0 26 31 13 46 -6 8 -20 14 -30 14
-27 0 -35 21 -14 37 16 11 16 13 3 13 -9 0 -23 12 -33 26 -12 19 -20 23 -29
15 -17 -15 -24 -6 -18 24 5 26 18 33 24 14 2 -6 12 -10 23 -8 16 4 15 8 -14
37 l-33 32 27 0 c14 0 28 -7 31 -15 5 -11 16 -13 44 -9 28 5 38 2 43 -9 4 -11
-3 -19 -24 -26 -36 -12 -45 -34 -26 -61 l14 -20 26 24 c34 32 46 75 23 88 -18
10 -21 50 -6 79 9 16 7 19 -15 19 -20 0 -25 -5 -25 -25 0 -29 -7 -31 -31 -9
-16 14 -20 14 -41 0 -16 -10 -28 -12 -38 -6 -8 5 -11 10 -7 10 5 0 -3 14 -18
32 -22 27 -24 33 -12 38 14 4 14 10 -3 48 -15 33 -16 42 -5 42 8 0 20 -12 27
-27 7 -15 22 -29 32 -31 15 -3 18 0 12 21 -4 16 -1 27 7 30 9 4 9 6 -1 6 -9 1
-9 7 3 25 16 24 60 33 71 14 4 -6 10 -5 15 3 6 11 11 11 21 1 19 -19 28 -14
28 18 0 18 -6 33 -15 36 -8 4 -13 10 -10 14 7 12 137 33 171 28 20 -2 36 2 49
15 20 18 20 19 -5 13 -92 -20 -144 -25 -157 -15 -10 9 -13 8 -13 -2 0 -10 -3
-10 -12 -1 -16 16 -38 15 -38 -2 0 -7 -7 -19 -15 -26 -22 -19 -18 -30 11 -30
23 0 25 -2 14 -15 -10 -12 -15 -13 -20 -4 -6 8 -9 8 -14 0 -12 -18 -46 7 -46
34 0 13 -6 25 -12 28 -8 2 -12 21 -11 50 1 26 -3 49 -8 52 -5 4 -6 -1 -3 -10
11 -27 -16 -47 -53 -40 -49 9 -57 -2 -28 -37 31 -36 33 -68 5 -68 -11 0 -20 5
-20 10 0 6 5 10 10 10 19 0 10 19 -21 40 l-30 22 -30 -33 c-16 -18 -29 -36
-29 -40 0 -3 -12 -12 -27 -18 -27 -12 -83 -55 -83 -65 0 -2 7 -6 17 -8 12 -2
9 -7 -12 -18 -22 -12 -29 -12 -32 -2 -8 23 -53 13 -82 -20 -25 -28 -31 -30
-45 -19 -24 20 -20 28 19 42 38 14 41 22 20 59 -8 15 -10 29 -4 36 5 7 0 19
-15 33 -20 19 -22 26 -13 45 10 21 13 22 23 8 10 -14 13 -13 23 6 14 26 7 44
-14 35 -19 -7 -19 6 1 45 12 25 22 32 45 32 41 0 37 25 -9 54 -22 13 -45 39
-52 56 -12 30 -12 34 11 51 17 13 33 17 57 13 27 -5 31 -4 26 10 -4 12 0 16
15 16 27 0 27 17 1 25 -13 4 -31 -2 -50 -15 -16 -12 -34 -19 -38 -16 -5 3 -22
1 -38 -4 -16 -5 -41 -12 -55 -15 -15 -2 -30 -12 -33 -21 -5 -12 -2 -15 10 -10
10 4 14 1 12 -6 -3 -7 -14 -14 -26 -16 -33 -5 -39 24 -11 56 24 27 24 27 1 7
-20 -16 -25 -17 -32 -5 -14 22 -12 69 3 84 7 8 23 17 36 21 16 5 21 12 18 26
-4 15 0 19 21 20 63 3 88 -12 69 -42 -15 -24 -27 -24 -27 0 0 27 -17 36 -25
12 -3 -10 -14 -26 -25 -36 -20 -18 -27 -50 -12 -59 5 -3 21 2 36 10 16 7 38
14 50 14 13 0 27 12 38 30 17 29 17 30 -13 62 -19 21 -39 33 -55 33 -29 0 -63
38 -45 50 7 3 11 -2 11 -14 0 -17 6 -21 33 -21 18 0 38 -5 44 -11 9 -9 14 -5
19 15 6 27 -5 52 -13 29 -6 -18 -33 -16 -33 2 0 8 5 15 10 15 17 0 11 18 -13
44 -22 24 -25 24 -46 10 -17 -13 -20 -19 -10 -30 9 -11 8 -14 -5 -14 -18 0
-31 40 -23 71 4 16 2 19 -13 14 -11 -3 -20 0 -24 10 -3 9 0 15 8 15 21 0 7 49
-19 66 -27 18 -116 9 -109 -11 5 -13 -22 -28 -36 -20 -5 3 -11 18 -15 34 -3
16 -13 32 -22 35 -14 6 -14 8 0 24 18 20 17 72 -1 95 -9 10 -10 17 -2 22 5 3
13 -1 16 -9 10 -25 29 -19 29 9 0 17 -6 25 -17 25 -15 0 -15 3 -1 30 18 38 11
60 -20 60 -36 0 -50 20 -30 43 17 18 16 19 -5 35 -12 9 -25 32 -28 50 -7 33 3
41 25 20 11 -11 13 -9 8 10 -5 22 8 32 15 10 9 -26 29 4 23 34 -5 21 -3 33 6
39 11 6 11 11 2 20 -10 10 -17 9 -33 -6 -11 -10 -20 -26 -20 -36 0 -14 -7 -18
-24 -17 -21 2 -23 5 -14 21 15 28 2 47 -32 47 -25 0 -30 4 -30 25 0 19 7 26
33 34 17 5 26 10 20 10 -7 1 -13 6 -13 11 0 6 -9 19 -20 30 -41 41 -17 54 33
18 29 -20 30 -21 25 -2 -3 10 -9 27 -13 38 -7 15 -5 17 13 11 13 -4 22 -2 22
4 0 6 -7 11 -15 11 -18 0 -19 14 -5 40 8 16 6 22 -10 32 -11 7 -20 18 -20 25
0 7 -7 13 -15 13 -11 0 -14 -7 -9 -25 5 -20 2 -25 -22 -31 -15 -4 -35 -2 -44
4 -10 6 -27 8 -39 5 -17 -4 -20 -2 -15 11 3 9 1 16 -6 16 -6 0 -8 5 -5 10 9
15 -21 12 -34 -3 -8 -10 -7 -17 1 -25 9 -9 9 -15 0 -24 -9 -9 -13 -7 -18 5 -3
9 -12 17 -20 17 -17 0 -18 12 -3 27 6 6 9 18 7 27 -6 27 -28 2 -35 -40 -3 -21
-14 -47 -24 -57 -11 -10 -19 -23 -20 -30 -9 -108 -12 -112 -43 -76 -12 14 -27
24 -33 22 -9 -3 -59 67 -51 71 2 1 11 7 20 15 13 9 22 10 38 1 11 -6 30 -8 40
-5 18 6 19 8 4 31 -9 13 -23 24 -30 24 -8 0 -14 5 -14 10 0 13 3 13 34 -1 20
-9 29 -9 42 2 14 12 12 14 -21 26 -21 7 -41 11 -45 8 -5 -3 -20 -1 -34 5 -20
7 -26 17 -26 39 0 18 -8 35 -22 45 -16 12 -19 18 -10 22 6 3 12 12 12 19 0 25
-21 28 -41 6 l-20 -22 -40 23 c-39 22 -38 37 3 38 10 0 20 10 24 24 5 21 10
24 40 19 32 -5 34 -4 34 23 0 16 3 39 6 52 5 19 2 22 -20 22 -15 0 -25 -4 -21
-9 3 -5 -4 -13 -16 -16 -19 -6 -19 -8 -4 -25 23 -26 0 -37 -27 -13 -20 18 -21
17 -63 -30 -39 -45 -43 -47 -68 -36 -27 12 -36 29 -17 29 18 0 10 22 -9 27
-11 3 -22 12 -25 20 -10 24 51 42 120 36 34 -3 68 -2 77 3 22 13 -146 16 -178
4 -29 -11 -30 -9 -10 30 9 17 24 30 34 30 20 0 51 30 51 48 0 7 14 12 30 12
35 0 49 23 32 50 -9 14 -6 19 14 29 14 6 43 14 65 17 24 4 36 10 29 14 -8 5
-9 10 -2 14 7 4 6 18 -4 42 -17 40 -15 80 4 77 6 -2 12 5 12 16 0 14 -6 17
-25 13 -17 -3 -27 1 -31 12 -6 16 -8 16 -25 0 -10 -9 -23 -13 -28 -9 -6 3 -11
1 -11 -5 0 -6 11 -16 25 -22 14 -6 25 -14 25 -17 0 -3 -21 -17 -47 -31 -47
-24 -47 -25 -19 -28 16 -2 32 1 35 6 3 5 17 15 31 22 l25 13 -20 -23 c-11 -12
-30 -26 -42 -31 -14 -5 -20 -14 -17 -26 5 -18 -50 -82 -61 -71 -3 3 2 22 10
43 9 20 15 38 13 39 -2 1 -12 8 -22 16 -18 14 -18 13 -12 -8 7 -21 6 -22 -12
-11 -26 17 -52 -3 -52 -38 0 -22 4 -25 25 -21 14 3 28 2 30 -3 6 -8 -94 -139
-106 -139 -3 0 -4 -12 -2 -27 4 -22 2 -25 -6 -13 -18 26 -44 -1 -67 -68 -21
-65 -34 -86 -34 -58 0 10 -12 22 -29 29 l-29 11 20 50 c10 28 26 61 34 73 19
30 18 43 -6 43 -11 0 -20 5 -20 10 0 6 7 10 15 10 11 0 15 12 15 45 0 35 -4
45 -16 45 -11 0 -15 -6 -11 -20 6 -24 4 -24 -36 -4 l-31 17 29 23 c25 20 27
24 12 30 -9 3 -17 12 -17 20 0 16 16 19 25 5 6 -10 47 -8 78 4 18 7 24 45 7
45 -23 0 -8 19 20 25 30 7 47 21 36 32 -3 4 -16 1 -29 -4 -19 -9 -26 -8 -35 7
-9 16 -8 19 9 22 18 3 19 5 5 23 -14 20 -15 19 -25 -7 -11 -30 -21 -34 -38
-17 -6 6 -21 9 -33 7 l-22 -3 22 -28 c21 -27 23 -27 42 -10 16 14 21 15 28 3
6 -10 0 -19 -21 -32 -16 -10 -29 -22 -29 -28 0 -5 -4 -10 -10 -10 -5 0 -10 7
-10 15 0 22 -17 18 -23 -5 -7 -28 -25 -25 -33 6 -5 18 -10 22 -18 14 -7 -7 -7
-16 1 -30 9 -14 10 -19 1 -22 -7 -3 -13 -22 -14 -43 l-1 -38 17 33 c13 25 18
29 23 17 6 -16 -13 -67 -25 -67 -5 0 -8 -5 -8 -11 0 -5 5 -7 11 -3 9 5 10 -4
5 -31 -7 -35 -6 -38 9 -25 17 14 27 7 38 -24 2 -5 17 -9 34 -8 l31 1 -26 -57
c-40 -84 -42 -86 -55 -69 -10 13 -15 13 -31 -4 -19 -19 -19 -19 2 -19 12 0 22
-4 22 -10 0 -5 -7 -10 -15 -10 -8 0 -24 -9 -35 -20 -23 -23 -23 -24 -10 58 8
46 7 80 -1 123 -9 46 -9 66 0 86 6 14 9 28 7 31 -3 2 -11 -7 -17 -21 -7 -17
-21 -27 -38 -29 -34 -4 -35 -33 -1 -33 21 0 26 -6 31 -40 4 -22 10 -51 14 -65
l6 -25 -21 28 c-12 15 -26 25 -31 22 -5 -4 3 -16 17 -29 23 -19 25 -25 15 -43
-6 -12 -8 -29 -5 -37 7 -19 -9 -21 -38 -5 -20 11 -21 10 -16 -48 3 -33 2 -66
-2 -74 -5 -7 -5 -20 -1 -28 5 -9 6 -22 4 -28 -5 -15 -33 -18 -33 -3 0 5 -6 7
-14 4 -8 -3 -23 -1 -33 4 -17 10 -17 11 2 18 11 4 30 18 42 30 19 20 20 28 12
66 -12 50 -8 45 -41 53 -21 5 -27 3 -33 -15 -5 -15 -12 -19 -23 -14 -10 3 -27
9 -39 11 -13 3 -23 12 -23 19 0 20 -19 17 -28 -4 -7 -18 -8 -18 -35 -2 l-28
17 40 16 c37 15 70 52 57 64 -10 10 -56 -7 -53 -20 1 -7 -11 -13 -29 -15 -27
-3 -31 -7 -26 -24 4 -18 2 -19 -16 -9 -31 16 -46 14 -74 -12 -23 -21 -29 -22
-49 -11 -21 11 -22 13 -7 19 16 6 43 13 62 14 4 1 5 13 2 27 -7 25 -6 25 16
10 30 -21 45 -20 25 2 -13 15 -14 25 -5 60 6 23 15 42 21 42 7 0 7 4 -1 12
-18 18 -15 25 11 24 19 -1 22 4 19 32 -2 29 1 32 24 32 23 0 26 3 22 25 -3 14
-2 25 2 25 14 0 30 49 19 56 -7 4 2 15 20 26 25 16 29 23 20 34 -6 8 -13 35
-15 60 -2 39 -1 44 12 33 9 -7 25 -13 37 -14 12 -1 30 -5 39 -9 12 -6 16 -3
13 11 -2 10 -4 24 -4 31 -1 6 -12 12 -25 12 -13 0 -31 10 -40 23 -9 12 -14 16
-10 8 5 -11 3 -13 -9 -8 -10 4 -17 1 -17 -5 0 -18 -17 4 -22 27 -3 16 -10 19
-41 17 -35 -3 -49 9 -26 23 7 5 3 14 -10 26 -28 26 -26 39 4 39 18 0 25 5 25
20 0 28 -17 25 -52 -10 -16 -16 -34 -30 -39 -30 -12 0 -12 -2 7 54 15 45 15
48 -2 61 -11 8 -22 15 -26 15 -11 0 -10 -29 3 -65 10 -26 8 -37 -10 -73 -13
-25 -33 -47 -48 -53 -14 -5 -27 -8 -28 -7 -1 2 -10 27 -19 55 -10 29 -22 55
-27 58 -5 4 -9 17 -9 31 0 21 3 23 19 14 33 -17 51 -12 51 15 0 14 4 25 9 25
23 0 2 35 -22 38 -29 4 -38 32 -11 32 25 0 10 78 -21 110 -14 14 -30 40 -36
58 -7 21 -16 31 -25 28 -9 -4 -13 2 -11 17 2 18 -4 23 -28 25 -21 2 -26 0 -16
-7z m35 -67 c9 -22 -3 -32 -14 -14 -12 19 -12 30 -1 30 5 0 12 -7 15 -16z m-6
-71 c2 -9 -7 -13 -27 -13 -21 0 -31 5 -31 16 0 19 51 16 58 -3z m84 -25 c-9
-9 -15 -9 -24 0 -9 9 -7 12 12 12 19 0 21 -3 12 -12z m-63 -42 c13 -14 20 -30
16 -36 -5 -8 1 -11 16 -8 21 3 24 -2 27 -29 3 -31 -6 -42 -22 -25 -4 4 -26 12
-49 17 -38 10 -42 14 -45 44 -3 30 11 61 27 61 4 0 18 -11 30 -24z m-15 -181
c-5 -12 -10 -13 -20 -4 -19 15 -18 19 6 19 13 0 18 -5 14 -15z m74 -43 c-3
-10 1 -23 8 -30 17 -16 7 -42 -16 -42 -25 0 -33 50 -12 72 22 22 25 22 20 0z
m184 -28 c11 -10 -4 -44 -19 -44 -27 0 -9 -35 20 -38 35 -4 35 -18 0 -27 -21
-5 -24 -8 -12 -16 7 -5 9 -9 3 -9 -6 0 -18 7 -25 17 -13 14 -15 13 -19 -13 -3
-17 -12 -30 -23 -32 -25 -5 -33 26 -11 43 15 11 17 16 7 26 -20 20 -16 43 12
73 22 24 54 34 67 20z m64 -102 c-12 -11 -18 7 -10 30 l8 23 4 -23 c2 -13 1
-26 -2 -30z m-193 -16 c3 -8 -6 -24 -19 -37 l-25 -23 23 -9 c14 -6 18 -11 11
-14 -7 -3 -13 -12 -13 -21 0 -15 -1 -15 -16 0 -22 21 -24 96 -4 108 21 14 37
12 43 -4z m-813 -43 c0 -39 -13 -61 -36 -66 -28 -5 -29 1 -10 48 16 36 46 48
46 18z m-103 -8 c3 -9 3 -18 1 -21 -9 -9 -38 8 -38 22 0 19 29 18 37 -1z
m1031 -28 c4 -33 -19 -45 -54 -28 -25 11 -41 37 -30 48 3 3 13 0 22 -8 14 -11
17 -10 26 5 13 24 32 15 36 -17z m-259 -18 c11 -13 20 -33 21 -44 0 -17 -5
-15 -32 15 -26 27 -34 31 -36 17 -5 -22 -10 -21 -33 6 -26 31 -24 34 21 32 28
-2 46 -9 59 -26z m74 -14 l-9 -28 -29 27 c-27 25 -28 27 -8 23 14 -3 24 1 28
11 11 29 28 -3 18 -33z m-813 25 c0 -5 -5 -10 -10 -10 -7 0 -7 -6 0 -19 16
-30 12 -32 -22 -11 -24 15 -34 16 -41 7 -5 -8 -7 -6 -5 7 2 12 12 20 25 21 13
1 26 5 30 8 10 10 23 8 23 -3z m1030 -57 c-1 -5 -9 -24 -20 -43 l-19 -35 -1
36 c0 20 3 39 7 42 9 9 33 9 33 0z m41 -18 c-1 -15 -24 -12 -29 3 -3 9 2 13
12 10 10 -1 17 -7 17 -13z m-1021 -19 c0 -18 -17 -29 -30 -21 -8 5 -7 11 1 21
15 18 29 18 29 0z m910 -16 c-6 -11 -8 -25 -5 -30 3 -5 -2 -21 -11 -35 -13
-20 -19 -23 -25 -13 -15 23 -10 48 16 73 29 30 39 32 25 5z m960 14 c0 -3 -13
-19 -30 -34 -35 -32 -40 -25 -9 14 19 24 39 34 39 20z m-1200 -30 c0 -8 -6
-14 -12 -14 -21 0 -41 17 -34 28 8 14 46 3 46 -14z m69 16 c7 0 31 -43 31 -55
0 -5 -69 -35 -80 -35 -17 0 -18 30 -1 52 10 13 16 29 13 37 -3 10 0 12 12 8
10 -4 21 -7 25 -7z m-189 -20 c9 -6 10 -10 3 -10 -6 0 -21 -16 -33 -35 -12
-19 -25 -33 -30 -30 -4 3 -10 -2 -14 -10 -3 -8 -14 -15 -25 -15 -17 0 -18 3
-8 24 7 13 15 22 19 20 11 -7 48 33 48 51 0 17 18 19 40 5z m-562 -31 c2 -9
-5 -19 -15 -23 -10 -3 -24 -9 -32 -12 -8 -4 -11 -2 -7 4 3 6 0 13 -6 16 -9 3
-7 9 7 21 24 19 49 16 53 -6z m-107 -55 c13 -16 12 -16 -13 0 -16 10 -35 16
-43 12 -8 -3 -15 -1 -15 3 0 26 45 16 71 -15z m-802 2 c13 -15 5 -46 -13 -46
-6 0 -11 14 -12 30 -1 33 7 38 25 16z m716 -6 c17 -7 15 -9 -12 -9 -22 -1 -33
-6 -33 -16 0 -8 -7 -15 -16 -15 -8 0 -12 -4 -9 -10 3 -5 -3 -10 -14 -10 -40 0
-17 36 39 62 19 8 21 8 45 -2z m735 -19 c0 -16 3 -36 6 -45 9 -25 -12 -19 -24
7 -9 19 -11 20 -11 3 -1 -10 6 -24 14 -30 12 -9 13 -22 6 -64 -12 -77 -28 -87
-37 -23 -4 28 -10 51 -15 51 -16 0 -10 39 14 85 25 51 47 59 47 16z m240 -25
c0 -22 -17 -36 -43 -36 -7 0 -4 5 6 11 9 5 17 19 17 29 0 11 5 20 10 20 6 0
10 -11 10 -24z m-885 -17 c-8 -12 -35 -12 -35 0 0 11 22 20 33 14 4 -2 5 -9 2
-14z m-855 -39 c0 -5 -7 -10 -15 -10 -8 0 -15 5 -15 10 0 6 7 10 15 10 8 0 15
-4 15 -10z m627 -27 c3 -9 -5 -9 -34 -1 -51 14 -53 18 -8 15 21 -1 40 -7 42
-14z m126 11 c3 -4 -3 -18 -13 -32 -11 -13 -20 -34 -20 -46 -1 -20 -1 -20 -12
-2 -8 15 -7 27 7 53 18 33 26 39 38 27z m-655 -29 c13 -29 7 -35 -31 -28 -28
6 -38 23 -12 23 8 0 15 7 15 15 0 23 16 18 28 -10z m42 -15 c0 -12 -3 -12 -16
2 -9 9 -13 21 -9 28 9 14 25 -5 25 -30z m1083 1 c3 -11 -1 -25 -9 -32 -11 -9
-16 -6 -24 16 -5 14 -10 33 -10 41 0 22 36 0 43 -25z m470 1 c16 -16 30 -20
43 -15 10 4 2 -8 -19 -26 -27 -24 -36 -39 -32 -52 5 -15 1 -19 -18 -19 -32 0
-77 -36 -77 -61 0 -17 3 -18 21 -8 19 10 20 9 14 -13 -10 -34 -34 -49 -56 -37
-28 15 -24 -7 6 -35 14 -13 25 -26 25 -28 0 -7 -53 -7 -65 0 -12 8 -55 12 -55
6 0 -3 5 -14 10 -25 9 -16 7 -19 -15 -19 -23 0 -25 4 -27 48 -2 72 0 80 33
174 26 74 34 86 48 79 11 -6 23 -4 35 4 16 12 24 12 52 0 32 -13 34 -13 34 5
0 10 -4 22 -10 25 -5 3 -10 10 -10 16 0 15 38 4 63 -19z m-352 -12 c19 -11 19
-12 -7 -46 -32 -42 -48 -33 -33 19 11 41 12 41 40 27z m-578 -43 c-9 -16 -26
12 -18 30 7 17 8 17 15 -2 4 -11 5 -24 3 -28z m1792 23 c-20 -23 -29 -21 -19
4 3 9 13 16 22 16 13 0 12 -3 -3 -20z m-2423 -52 c-11 -11 -3 -58 9 -58 5 0 6
6 3 14 -3 8 3 19 15 26 11 6 20 14 20 18 -1 4 -1 15 0 26 1 14 4 16 14 7 10
-7 17 -7 24 0 18 18 36 -1 29 -32 -3 -15 -1 -31 4 -34 6 -3 10 -10 10 -16 0
-16 -18 -10 -41 14 -17 17 -23 19 -27 8 -18 -50 -82 -73 -82 -31 0 24 -20 37
-20 13 -1 -14 -6 -12 -25 12 -26 31 -32 60 -16 70 5 3 11 -5 13 -17 2 -15 11
-24 27 -26 19 -3 22 0 17 13 -3 10 -1 24 6 32 10 13 13 11 20 -8 5 -12 5 -26
0 -31z m236 -24 c-4 -3 -15 -1 -26 5 -12 6 -33 11 -49 11 l-28 0 30 19 c30 19
30 19 54 -5 14 -13 22 -26 19 -30z m241 12 c-9 -8 -10 -7 -5 7 3 10 7 24 7 30
1 7 3 4 6 -7 3 -10 -1 -23 -8 -30z m601 35 c0 -5 -7 -12 -16 -15 -22 -9 -24
-8 -24 9 0 8 9 15 20 15 11 0 20 -4 20 -9z m200 -22 c0 -6 9 -8 20 -4 33 10
35 -21 6 -78 -14 -29 -26 -60 -26 -70 0 -9 -4 -17 -9 -17 -17 0 -26 26 -26 75
0 41 3 50 18 49 9 -1 17 4 17 12 0 8 -7 14 -15 14 -8 0 -15 7 -15 15 0 8 7 15
15 15 8 0 15 -5 15 -11z m1170 1 c12 -7 12 -10 -4 -16 -18 -7 -18 -8 2 -15 12
-5 22 -15 22 -24 0 -18 11 -20 27 -4 7 7 12 6 16 -5 7 -17 -27 -46 -55 -46
-28 0 -51 44 -44 85 7 37 12 40 36 25z m-1732 -30 c-7 -11 -17 -20 -22 -20 -5
0 -1 9 9 20 10 11 20 20 22 20 2 0 -2 -9 -9 -20z m1552 -10 c0 -11 -7 -20 -15
-20 -13 0 -14 4 -5 20 6 11 13 20 15 20 3 0 5 -9 5 -20z m-1229 -13 c-1 -12
-15 -9 -19 4 -3 6 1 10 8 8 6 -3 11 -8 11 -12z m175 -25 c-9 -8 -26 10 -26 26
1 15 2 15 15 -2 8 -11 13 -21 11 -24z m-986 -2 c-18 -11 -24 -6 -16 16 5 14 9
15 19 5 9 -9 9 -14 -3 -21z m968 -20 c17 -27 32 -55 32 -62 0 -6 7 -19 15 -28
13 -14 13 -19 -1 -38 -17 -24 -34 -29 -34 -9 -1 6 -15 21 -33 32 -18 11 -32
25 -33 30 0 6 -4 18 -9 28 -5 12 -2 22 10 31 13 9 16 20 11 39 -10 41 5 32 42
-23z m-831 26 c-4 -10 -1 -13 9 -9 7 3 14 0 14 -7 0 -6 5 -8 10 -5 6 3 10 -1
10 -9 0 -9 -5 -16 -11 -16 -5 0 -8 -4 -4 -9 3 -5 0 -13 -6 -16 -6 -4 -13 2
-16 13 -3 14 -11 18 -25 14 -19 -5 -19 -4 -4 27 17 31 33 44 23 17z m1329 -1
c4 -8 1 -21 -5 -29 -6 -7 -8 -16 -4 -19 10 -11 -25 -19 -41 -10 -13 7 -12 13
5 41 23 35 36 40 45 17z m334 -14 c0 -5 -7 -14 -15 -21 -12 -10 -15 -10 -15 2
0 8 3 18 7 21 9 10 23 9 23 -2z m350 -6 c0 -8 -2 -15 -4 -15 -2 0 -6 7 -10 15
-3 8 -1 15 4 15 6 0 10 -7 10 -15z m-2254 -6 c3 -6 17 -8 30 -5 29 8 30 -1 4
-34 -16 -20 -20 -22 -20 -7 0 12 -8 17 -29 17 -31 0 -47 13 -36 30 8 13 42 13
51 -1z m2537 -38 c6 -24 5 -42 -4 -58 -19 -36 -32 -27 -26 17 4 33 2 43 -14
53 -27 17 -23 29 8 25 21 -2 29 -10 36 -37z m-893 -10 c0 -5 -3 -17 -6 -25 -5
-13 -10 -14 -20 -6 -7 7 -10 18 -7 26 6 15 33 20 33 5z m-1955 -40 c-14 -12
-115 -24 -115 -13 0 4 6 16 13 26 11 15 17 16 35 7 29 -16 42 -14 42 6 0 16 1
16 17 0 11 -10 14 -20 8 -26z m1765 23 c0 -25 -26 -84 -36 -84 -10 0 -12 -9
-8 -29 5 -24 1 -32 -19 -45 -35 -24 -73 -6 -46 21 6 6 8 17 4 23 -5 9 -9 9
-14 1 -5 -7 -16 -2 -32 15 -21 24 -22 26 -4 19 11 -4 27 -8 35 -9 9 -1 21 -5
27 -9 6 -4 14 -3 18 3 3 5 1 10 -5 10 -17 0 -22 24 -10 56 11 28 12 28 26 10
14 -20 14 -20 14 0 0 14 2 16 9 6 7 -11 9 -11 14 2 6 15 27 23 27 10z m-1720
-24 c0 -21 -15 -27 -25 -10 -7 12 2 30 16 30 5 0 9 -9 9 -20z m1821 -12 c35 6
29 -18 -10 -38 -46 -23 -55 -25 -45 -8 5 7 7 26 6 42 -2 26 -1 28 14 15 10 -8
25 -13 35 -11z m890 12 c17 0 19 -37 2 -48 -5 -4 -15 -17 -22 -29 -16 -31 -25
-29 -42 9 -19 43 -36 46 -44 8 -4 -16 -11 -28 -16 -24 -5 3 -7 10 -3 15 3 5 0
16 -6 24 -17 21 -3 35 36 35 19 0 34 5 34 11 0 7 9 9 23 5 12 -3 29 -6 38 -6z
m-2360 -29 c18 -15 21 -23 13 -31 -8 -8 -16 -7 -29 7 -10 10 -23 19 -29 19 -6
1 -15 2 -19 3 -5 0 -5 6 -2 11 10 16 41 12 66 -9z m2525 -3 c-1 -13 -8 -23
-14 -22 -7 1 -19 2 -27 3 -8 0 -15 8 -15 16 0 9 6 12 15 9 8 -4 15 -1 15 5 0
6 7 11 15 11 10 0 14 -8 11 -22z m-986 -6 c0 -5 -6 -17 -14 -27 -12 -17 -16
-17 -31 -5 -16 13 -16 15 1 27 20 15 44 17 44 5z m-1790 -12 c0 -4 -6 -12 -12
-19 -11 -11 -9 -12 8 -7 25 8 39 -15 21 -33 -8 -8 -7 -11 6 -11 9 0 21 8 26
18 9 14 10 15 11 1 0 -9 -9 -24 -20 -34 -11 -10 -20 -24 -20 -31 0 -7 -6 -11
-13 -8 -16 6 -51 74 -42 82 2 3 -5 10 -18 17 -18 9 -24 8 -33 -4 -10 -13 -14
-13 -28 -2 -24 20 -20 29 17 34 44 5 97 3 97 -3z m380 -11 c0 -5 -7 -9 -15 -9
-15 0 -20 12 -9 23 8 8 24 -1 24 -14z m958 -15 c-10 -10 -28 6 -28 24 0 15 1
15 17 -1 9 -9 14 -19 11 -23z m-1472 -30 c18 -42 18 -45 -3 -37 -10 3 -2 -6
17 -21 41 -31 60 -54 60 -74 0 -11 -3 -12 -14 -3 -7 6 -20 9 -29 6 -9 -4 -21
3 -31 17 -16 22 -16 22 -46 5 l-30 -18 0 40 c0 26 5 41 13 41 6 0 18 4 25 9
11 7 11 12 1 28 -14 23 -5 58 12 47 6 -3 17 -21 25 -40z m2574 31 c0 -13 -4
-14 -20 -5 -11 6 -20 13 -20 15 0 3 9 5 20 5 11 0 20 -7 20 -15z m-1156 -10
c-4 -8 -12 -15 -20 -15 -17 0 -18 17 -1 23 22 9 27 7 21 -8z m162 -2 c16 -17
16 -18 -14 -27 -26 -7 -36 -5 -52 9 -11 10 -20 22 -20 27 0 15 68 8 86 -9z
m244 -12 c0 -14 -18 -23 -31 -15 -8 4 -7 9 2 15 18 11 29 11 29 0z m75 -1 c-3
-5 -12 -10 -20 -10 -8 0 -17 5 -20 10 -4 6 5 10 20 10 15 0 24 -4 20 -10z
m525 -27 c0 -7 -6 -13 -13 -13 -17 0 -37 20 -37 37 0 10 5 10 25 1 14 -6 25
-17 25 -25z m78 15 c-6 -17 -36 -34 -45 -24 -4 4 1 14 11 22 24 17 39 18 34 2z
m-2408 -14 c0 -8 -4 -13 -9 -9 -5 3 -12 -4 -16 -15 -6 -20 -20 -26 -29 -12 -8
14 19 41 52 51 1 1 2 -6 2 -15z m1380 -3 c0 -12 8 -21 23 -24 21 -4 20 -4 -3
-5 -33 -2 -54 12 -47 32 9 22 27 20 27 -3z m1790 -32 c0 -11 -4 -17 -10 -14
-5 3 -10 15 -10 26 0 11 5 17 10 14 6 -3 10 -15 10 -26z m-2882 -9 c11 -19 10
-20 -33 -20 -25 0 -45 2 -45 4 0 38 57 50 78 16z m2472 10 c0 -5 -7 -10 -15
-10 -8 0 -15 5 -15 10 0 6 7 10 15 10 8 0 15 -4 15 -10z m-145 -11 c11 -17 0
-20 -21 -4 -17 13 -17 14 -2 15 9 0 20 -5 23 -11z m-675 -19 c0 -5 7 -10 15
-10 16 0 19 -18 6 -38 -6 -10 -12 -7 -24 12 -19 29 -22 46 -7 46 6 0 10 -4 10
-10z m890 -12 c10 -13 16 -26 13 -30 -9 -16 -21 -7 -32 22 -12 36 -6 38 19 8z
m-960 -21 c0 -26 -14 -33 -45 -22 -33 11 -37 41 -7 48 22 5 52 -10 52 -26z
m765 -26 c-7 -25 -33 -28 -42 -6 -6 18 28 48 40 35 5 -4 6 -17 2 -29z m-2335
19 c0 -5 -5 -10 -11 -10 -7 0 -18 -8 -25 -17 -12 -17 -13 -17 -14 3 0 11 3 24
7 27 10 11 43 8 43 -3z m844 -26 c7 -27 -9 -58 -25 -48 -10 6 -12 45 -3 68 8
21 20 12 28 -20z m1040 30 c33 -13 14 -24 -40 -24 -32 0 -53 4 -49 10 3 5 12
7 19 4 8 -3 17 -1 21 5 7 12 26 14 49 5z m226 -24 c0 -10 -38 -1 -45 10 -2 4
7 5 20 2 14 -2 25 -8 25 -12z m-1380 1 c0 -5 -7 -11 -15 -15 -9 -3 -15 0 -15
9 0 8 7 15 15 15 8 0 15 -4 15 -9z m757 -6 c7 -20 5 -21 -34 -30 -27 -5 -33
-3 -33 10 0 9 5 13 10 10 6 -3 13 1 16 9 8 20 33 21 41 1z m-397 -26 c0 -16
-4 -28 -9 -25 -8 5 -3 56 5 56 2 0 4 -14 4 -31z m-130 7 c0 -7 -7 -19 -15 -26
-12 -10 -15 -9 -15 7 0 11 3 23 7 26 11 12 23 8 23 -7z m239 -19 c0 -21 -1
-21 -9 -2 -12 28 -12 37 0 30 6 -3 10 -16 9 -28z m1072 21 c1 -7 1 -21 0 -30
-1 -9 5 -28 14 -42 23 -34 1 -44 -33 -15 -15 13 -29 25 -30 26 -2 1 4 17 13
37 17 36 34 47 36 24z m-98 -27 c20 0 21 1 3 8 -19 7 -19 8 -1 15 13 5 23 2
31 -8 12 -17 7 -66 -6 -66 -18 0 -90 45 -90 56 0 18 24 23 33 8 4 -8 18 -14
30 -13z m472 -7 c-9 -14 -30 -33 -46 -42 -16 -10 -29 -20 -29 -24 0 -11 -56
-38 -64 -31 -12 12 -6 31 13 36 13 3 18 11 15 28 -3 13 0 31 6 39 9 13 13 12
30 -9 15 -18 20 -19 20 -7 0 14 59 48 69 40 2 -2 -4 -15 -14 -30z m-3040 6
c-14 -16 -20 -17 -26 -8 -5 8 -2 16 9 20 30 12 35 8 17 -12z m236 11 c7 12 9
12 8 -1 0 -8 -4 -24 -8 -34 -7 -18 -8 -18 -24 5 -21 30 -22 46 -1 28 13 -10
17 -10 25 2z m1615 -22 c3 -5 -5 -9 -17 -9 -12 0 -31 -8 -41 -17 -18 -16 -20
-15 -41 5 l-21 22 31 0 c18 0 34 4 37 9 7 10 44 3 52 -10z m84 12 c0 -12 -20
-25 -27 -18 -7 7 6 27 18 27 5 0 9 -4 9 -9z m-960 -9 c0 -13 -12 -22 -22 -16
-10 6 -1 24 13 24 5 0 9 -4 9 -8z m290 -11 c10 -19 4 -51 -9 -51 -4 0 -7 16
-8 35 -1 40 2 43 17 16z m1650 4 c0 -8 -9 -15 -20 -15 -22 0 -27 15 -7 23 21
9 27 7 27 -8z m370 -1 c0 -8 -5 -12 -10 -9 -6 4 -8 11 -5 16 9 14 15 11 15 -7z
m-3271 -23 c17 -11 5 -51 -16 -51 -9 0 -13 6 -10 15 4 8 2 17 -4 20 -10 7 -3
25 9 25 4 0 13 -4 21 -9z m2391 -16 c0 -8 -7 -15 -16 -15 -14 0 -14 3 -4 15 7
8 14 15 16 15 2 0 4 -7 4 -15z m774 -10 c-5 -20 -1 -27 28 -39 l33 -16 -55 6
c-30 3 -59 10 -64 14 -14 13 4 31 25 25 15 -5 19 -1 19 14 0 12 5 21 10 21 6
0 8 -11 4 -25z m-294 -22 c0 -7 -6 -13 -13 -13 -17 0 -49 34 -41 43 10 9 54
-15 54 -30z m-220 -25 c0 -5 -11 -8 -25 -8 -18 0 -28 7 -35 26 -14 36 -14 37
25 12 19 -13 35 -26 35 -30z m-800 27 c10 -12 9 -15 -7 -15 -10 0 -24 -5 -29
-10 -12 -12 -44 -3 -44 12 0 6 11 7 25 4 18 -5 25 -2 25 9 0 19 14 19 30 0z
m1490 1 c0 -7 -13 -16 -30 -19 -35 -7 -38 -25 -10 -50 27 -23 25 -38 -10 -72
-28 -27 -33 -28 -63 -17 -50 18 -57 14 -14 -9 42 -22 44 -28 19 -59 -16 -20
-21 -21 -41 -11 -12 7 -29 10 -38 7 -8 -3 -23 -1 -34 4 -17 9 -19 7 -19 -18 0
-37 -7 -43 -35 -30 -13 6 -35 8 -49 4 -23 -6 -24 -9 -14 -26 9 -14 9 -23 2
-30 -8 -8 -17 -1 -33 25 -17 30 -24 35 -35 25 -22 -17 -58 8 -53 38 3 16 -1
22 -14 22 -10 0 -21 5 -24 10 -3 6 1 10 9 10 27 0 18 16 -20 33 -43 21 -42 45
1 67 33 16 108 20 122 7 4 -5 7 -34 6 -65 -1 -32 1 -50 5 -42 4 8 16 17 27 18
10 2 24 11 31 20 11 14 14 14 39 -2 17 -11 31 -14 37 -8 6 6 0 15 -16 26 -15
9 -26 25 -26 36 0 25 8 25 27 3 10 -12 12 -13 8 -3 -4 8 0 6 9 -4 15 -18 18
-18 55 -4 37 15 40 15 44 -1 2 -12 9 -7 25 19 13 20 19 43 16 54 -4 11 -2 16
4 12 6 -3 13 2 17 13 5 18 22 25 63 30 6 0 12 -5 12 -13z m-3270 -43 c0 -12
-8 -18 -25 -18 -30 0 -31 3 -7 21 23 18 32 17 32 -3z m685 8 c3 -5 1 -12 -4
-15 -5 -3 -11 1 -15 9 -6 16 9 21 19 6z m1119 -22 c-23 -26 -32 -24 -27 5 4
18 10 22 24 19 19 -5 19 -7 3 -24z m1206 22 c0 -11 -26 -22 -34 -14 -12 12 -5
23 14 23 11 0 20 -4 20 -9z m-2210 -8 c0 -5 -7 -16 -14 -26 -16 -20 -32 -6
-22 18 5 15 36 21 36 8z m-990 -33 c0 -5 -9 -10 -20 -10 -11 0 -20 5 -20 10 0
6 9 10 20 10 11 0 20 -4 20 -10z m-97 -40 c3 -12 1 -20 -5 -18 -5 2 -26 -11
-45 -29 -36 -35 -56 -43 -47 -19 3 8 1 23 -5 33 -10 17 -11 16 -17 -5 -4 -15
-12 -21 -21 -18 -8 3 -19 6 -24 6 -5 0 -9 5 -9 10 0 6 6 10 14 10 7 0 19 6 26
14 6 8 17 13 25 10 7 -3 30 3 52 14 42 22 48 21 56 -8z m57 0 c0 -11 -7 -20
-15 -20 -13 0 -14 4 -5 20 6 11 13 20 15 20 3 0 5 -9 5 -20z m624 -6 c9 -3 13
-10 10 -15 -8 -14 -21 -11 -28 6 -6 17 -4 18 18 9z m846 -3 c0 -5 3 -17 7 -27
6 -16 4 -16 -25 1 -22 13 -28 21 -19 27 17 11 37 10 37 -1z m-720 -18 c0 -5
-4 -14 -9 -22 -11 -17 -32 -5 -24 14 5 15 33 21 33 8z m2804 -38 c-7 -18 -34
-28 -34 -12 0 17 21 38 31 31 5 -2 6 -11 3 -19z m-3534 -2 c0 -10 -5 -25 -10
-33 -7 -11 -10 -7 -10 18 0 17 5 32 10 32 6 0 10 -8 10 -17z m1400 7 c0 -5 -9
-10 -20 -10 -11 0 -20 5 -20 10 0 6 9 10 20 10 11 0 20 -4 20 -10z m666 -15
c16 -12 17 -14 2 -15 -23 0 -48 11 -48 21 0 14 24 11 46 -6z m1424 -16 c0 -5
-7 -9 -15 -9 -8 0 -15 7 -15 15 0 9 6 12 15 9 8 -4 15 -10 15 -15z m-60 -14
c0 -8 -4 -15 -9 -15 -13 0 -22 16 -14 24 11 11 23 6 23 -9z m-3705 -5 c3 5 16
10 28 10 22 -1 22 -1 2 -15 -18 -15 -18 -16 15 -45 19 -16 41 -27 48 -25 9 3
12 -1 10 -13 -2 -11 6 -21 24 -29 59 -26 16 -54 -69 -46 -50 5 -53 7 -53 34 0
16 -9 37 -22 48 -17 16 -19 23 -9 35 9 11 8 17 -3 29 -18 17 -9 32 10 16 8 -7
14 -7 19 1z m3120 -11 c10 -14 1 -21 -19 -13 -9 3 -13 10 -10 15 7 12 21 11
29 -2z m69 5 c9 -3 14 -10 11 -15 -7 -10 -35 0 -35 12 0 11 3 11 24 3z m-467
-38 c-21 -21 -27 -20 -27 3 0 21 20 33 34 20 5 -4 2 -14 -7 -23z m558 5 c8
-16 20 -32 27 -34 10 -4 9 -9 -3 -19 -9 -7 -18 -27 -21 -45 -4 -28 -1 -34 24
-44 23 -9 27 -16 22 -36 -4 -16 0 -30 11 -43 10 -11 13 -20 7 -20 -6 0 -20 13
-31 29 -20 28 -61 48 -61 30 0 -18 -27 -8 -55 21 -30 31 -25 42 7 13 10 -9 21
-14 24 -11 3 4 -8 14 -25 24 -38 23 -40 35 -3 28 49 -10 65 -9 69 4 3 8 -6 12
-29 12 l-33 1 37 19 c39 21 57 40 38 40 -20 0 -71 48 -57 53 26 11 37 6 52
-22z m525 1 c13 -11 20 -24 16 -30 -12 -21 -28 -13 -21 10 6 16 4 20 -8 15 -9
-3 -21 1 -27 9 -19 21 12 18 40 -4z m-2150 -17 c0 -8 -7 -15 -15 -15 -16 0
-20 12 -8 23 11 12 23 8 23 -8z m-651 -71 c-20 -21 -21 -26 -9 -34 21 -14 27
-12 35 8 6 16 7 16 17 -1 5 -11 6 -22 2 -27 -11 -9 -80 -20 -87 -14 -3 3 -1
24 4 47 15 68 16 69 40 57 l21 -12 -23 -24z m769 27 c3 -8 -1 -12 -9 -9 -7 2
-15 10 -17 17 -3 8 1 12 9 9 7 -2 15 -10 17 -17z m-1788 -22 c0 -12 -7 -19
-20 -19 -23 0 -24 4 -9 31 12 23 29 16 29 -12z m1513 10 c-6 -6 -17 -8 -24 -3
-9 5 -8 9 7 14 23 9 31 3 17 -11z m1297 -14 c0 -14 -4 -25 -10 -25 -11 0 -14
33 -3 43 11 11 13 8 13 -18z m-1630 -10 c26 -28 24 -37 -7 -29 -13 4 -20 11
-16 20 3 8 0 14 -6 14 -6 0 -11 5 -11 10 0 17 15 11 40 -15z m1823 -57 c12 -6
28 -19 35 -30 7 -10 20 -18 28 -18 8 0 14 -7 12 -16 -2 -10 3 -19 10 -21 7 -3
12 4 12 16 0 14 5 19 15 15 8 -4 15 -13 15 -22 0 -8 7 -24 17 -34 20 -22 6
-24 -25 -2 -20 14 -22 14 -22 0 0 -9 6 -16 13 -16 7 -1 5 -6 -5 -14 -10 -7
-18 -18 -18 -25 0 -14 -17 -14 -25 0 -4 6 -14 8 -22 5 -10 -4 -13 0 -11 12 2
9 10 18 18 18 8 1 19 2 24 3 11 1 -13 31 -25 31 -5 0 -17 -8 -27 -18 -11 -11
-34 -24 -52 -30 l-32 -12 6 30 c4 23 0 36 -14 50 -11 11 -24 20 -29 20 -11 0
-2 38 11 46 5 4 15 1 21 -5 6 -6 21 -11 34 -11 13 0 23 -4 23 -10 0 -5 4 -10
10 -10 13 0 0 33 -17 43 -7 4 -13 17 -13 27 0 11 -5 20 -10 20 -7 0 -6 9 2 23
12 21 13 20 16 -15 2 -27 10 -41 25 -50z m-1203 58 c0 -9 -7 -12 -20 -9 -11 3
-17 9 -14 14 8 14 34 10 34 -5z m1948 -7 c-2 -16 -11 -23 -36 -25 -27 -3 -33
-1 -30 13 3 14 29 28 61 32 5 1 7 -9 5 -20z m-2048 -65 c0 -24 -19 -16 -26 11
-3 14 -10 25 -15 25 -5 0 -9 7 -9 16 0 13 6 10 25 -10 14 -15 25 -34 25 -42z
m94 35 c10 -9 27 -120 20 -128 -8 -9 -35 23 -30 36 3 7 0 13 -7 13 -7 0 -22 6
-32 14 -16 12 -17 16 -6 29 7 10 10 25 6 38 -6 18 -4 20 17 14 12 -4 27 -11
32 -16z m1294 -7 c16 -12 21 -24 16 -35 -8 -22 -28 -17 -32 9 -2 10 -11 25
-20 32 -13 10 -13 12 -1 12 8 0 24 -8 37 -18z m-2323 -12 c26 -29 7 -46 -33
-32 -16 5 -35 7 -41 2 -16 -9 -10 -65 7 -66 6 -1 22 -2 35 -3 l22 -2 -24 -19
c-29 -25 -41 -25 -41 0 0 14 -9 21 -35 26 -21 4 -35 12 -35 21 0 11 7 13 26 9
22 -6 25 -4 20 9 -9 24 31 75 58 75 13 0 31 -9 41 -20z m-485 -20 c0 -19 -5
-30 -14 -30 -8 0 -17 -8 -19 -17 -3 -13 -5 -12 -6 5 -1 20 24 72 35 72 2 0 4
-13 4 -30z m910 2 c0 -15 -59 -52 -73 -46 -8 3 -18 1 -22 -5 -8 -14 -35 -14
-35 -1 0 6 10 20 21 31 15 15 23 18 29 10 5 -8 12 -4 24 14 14 21 20 24 36 15
11 -6 20 -14 20 -18z m50 -18 c0 -13 5 -24 11 -24 8 0 7 -6 -2 -17 -11 -12
-11 -17 -2 -20 9 -3 5 -16 -12 -41 -21 -30 -23 -38 -10 -40 25 -6 17 -22 -10
-22 -29 0 -43 24 -26 44 6 7 8 16 5 19 -3 3 1 16 10 29 20 28 21 49 1 42 -10
-4 -14 -1 -11 7 2 8 7 27 11 42 5 24 8 27 20 17 8 -7 15 -23 15 -36z m-1053
-16 l-11 -43 -8 30 c-6 23 -4 33 9 43 9 6 18 12 19 12 1 0 -3 -19 -9 -42z
m2693 25 c-1 -10 -47 -63 -55 -63 -3 0 5 16 17 35 21 32 38 45 38 28z m-1493
-22 c20 17 17 -10 -4 -34 -17 -19 -17 -20 4 -8 30 16 36 14 30 -9 -3 -13 0
-20 9 -20 20 0 17 -27 -6 -50 l-21 -21 7 26 c10 39 -34 32 -49 -9 -9 -24 -20
-14 -22 22 -4 44 16 115 28 103 7 -7 15 -7 24 0z m2367 -6 c-6 -16 -34 -21
-34 -7 0 13 11 22 26 22 8 0 11 -6 8 -15z m-3169 -5 c3 -5 2 -17 -3 -26 -9
-17 -14 -13 -25 19 -7 18 17 25 28 7z m1135 -31 c0 -6 7 -9 15 -5 23 8 45 -4
45 -25 0 -10 -3 -19 -7 -19 -17 1 -83 47 -76 53 10 11 23 8 23 -4z m-685 -9
c-3 -5 -12 -10 -20 -10 -8 0 -17 5 -20 10 -4 6 5 10 20 10 15 0 24 -4 20 -10z
m1545 -27 c13 -16 17 -30 11 -36 -13 -13 -31 0 -31 24 0 10 -4 19 -10 19 -5 0
-10 5 -10 10 0 18 18 10 40 -17z m-2575 -15 c-4 -10 -14 -14 -26 -11 -24 7
-24 19 -1 32 20 12 35 0 27 -21z m865 25 c0 -5 3 -18 6 -31 7 -23 7 -23 -31
-8 -28 12 -41 13 -51 5 -11 -9 -14 -8 -14 5 0 9 10 21 23 26 27 11 67 13 67 3z
m2056 -21 c-9 -9 -37 8 -31 18 5 8 11 7 21 -1 8 -6 12 -14 10 -17z m479 10
c-9 -10 -45 -12 -45 -4 0 15 11 20 31 15 11 -3 17 -8 14 -11z m638 -13 c7 0 2
-4 -9 -9 -17 -7 -24 -21 -29 -59 -7 -53 -17 -60 -48 -37 -14 11 -16 19 -9 33
5 10 7 24 5 31 -3 6 2 12 11 12 9 0 21 9 28 20 7 11 19 18 26 15 8 -3 19 -5
25 -6z m-3321 -49 c18 0 28 -5 28 -15 0 -9 -9 -15 -24 -15 -13 0 -27 -7 -30
-16 -3 -8 -10 -12 -16 -9 -7 4 -7 13 0 26 7 13 7 19 0 19 -5 0 -10 12 -9 28 0
27 1 27 11 5 8 -16 20 -23 40 -23z m3058 17 c0 -26 -9 -39 -20 -32 -10 6 0 55
11 55 5 0 9 -10 9 -23z m-2176 -3 c4 -9 4 -19 1 -22 -7 -8 -35 19 -29 29 8 14
21 11 28 -7z m330 -2 c-6 -4 -16 -16 -22 -27 -8 -15 -11 -16 -12 -4 0 17 19
39 35 39 7 0 6 -3 -1 -8z m1409 -33 c-8 -8 -14 -6 -22 9 -13 25 -2 37 18 17
11 -11 12 -18 4 -26z m125 8 c-5 -34 -28 -33 -28 2 0 23 4 29 16 24 8 -3 14
-15 12 -26z m388 5 c-18 -18 -31 -10 -23 12 4 10 13 13 22 9 15 -5 15 -7 1
-21z m-642 -14 c7 -30 -9 -40 -16 -10 -4 16 1 47 7 40 1 -2 5 -15 9 -30z
m-2348 -3 c15 -23 13 -45 -5 -45 -4 0 -15 16 -24 35 -14 30 -14 35 -2 35 8 0
22 -11 31 -25z m196 -10 c12 -16 9 -23 -11 -30 -14 -4 -18 -11 -14 -23 6 -15
5 -15 -11 -2 -16 13 -20 12 -32 -5 -14 -18 -14 -18 -14 3 0 13 7 25 15 28 8 4
15 16 15 28 0 13 3 26 7 29 6 7 31 -9 45 -28z m639 25 c15 -9 19 -22 19 -65 0
-43 -4 -56 -19 -65 -29 -15 -61 -12 -61 5 0 8 4 15 9 15 4 0 6 23 3 51 -3 37
-1 54 9 60 18 11 17 11 40 -1z m827 -11 c24 -9 25 -10 16 -33 -8 -22 -24 -20
-24 3 0 24 -37 35 -49 14 -11 -20 -31 -8 -31 18 0 18 4 20 33 14 17 -4 42 -11
55 -16z m1160 12 c10 -6 7 -12 -12 -25 -14 -9 -26 -12 -26 -7 0 5 5 13 10 16
6 4 8 11 5 16 -8 11 5 12 23 0z m-603 -7 c12 -5 14 -9 4 -14 -14 -9 -39 -2
-39 11 0 11 12 11 35 3z m-1476 -64 c0 -11 -5 -8 -19 8 -10 13 -16 30 -13 39
5 12 8 11 19 -8 7 -13 13 -31 13 -39z m2450 15 c-9 -8 -40 25 -34 35 5 8 12 4
22 -10 8 -12 13 -23 12 -25z m-1140 14 c9 -16 15 -19 21 -9 6 9 12 9 29 1 23
-13 25 -19 12 -40 -7 -11 -13 -12 -23 -3 -8 6 -24 9 -36 5 -12 -3 -22 -1 -22
5 0 5 -7 12 -14 15 -10 4 -23 -7 -37 -29 -20 -33 -39 -40 -46 -17 -2 6 5 13
17 16 14 4 20 13 20 32 0 23 4 26 21 22 12 -3 22 0 26 9 7 20 16 18 32 -7z
m952 -12 c-7 -7 -15 -6 -25 3 -22 17 -9 32 16 19 14 -8 17 -14 9 -22z m-2101
-4 c34 -23 38 -30 32 -59 -7 -40 -22 -38 -22 3 l0 38 -18 -23 c-22 -28 -32
-20 -32 25 0 38 6 40 40 16z m-423 -27 c-10 -26 -25 -18 -19 10 3 17 8 22 15
15 5 -5 7 -17 4 -25z m2251 24 c15 0 15 -2 2 -10 -23 -15 -50 -12 -50 6 0 11
5 14 16 10 9 -3 23 -6 32 -6z m230 -48 c-9 -2 -20 -12 -23 -23 -8 -23 -18 -24
-36 -3 -11 14 -11 18 5 29 17 13 17 14 -3 25 -12 6 -21 15 -21 20 0 5 21 -3
48 -18 32 -18 41 -28 30 -30z m-3683 34 c7 3 16 1 19 -4 6 -9 -42 -27 -50 -19
-3 2 -1 12 3 23 3 10 8 13 10 7 3 -7 10 -10 18 -7z m3051 -8 c4 -6 -8 -24 -25
-40 -18 -17 -37 -41 -42 -55 -11 -29 -33 -26 -37 5 -2 13 -8 19 -18 15 -8 -3
-14 1 -14 11 0 8 11 18 24 22 18 4 22 11 18 26 -5 20 -4 20 22 3 26 -17 30
-15 27 17 -2 12 4 15 19 11 11 -3 23 -10 26 -15z m-2367 -26 c0 -24 -1 -25 -9
-7 -12 28 -12 47 0 40 6 -3 10 -18 9 -33z m1841 24 c0 -2 -7 -6 -15 -10 -8 -3
-15 -1 -15 4 0 6 7 10 15 10 8 0 15 -2 15 -4z m-2260 -44 c0 -7 -4 -10 -10 -7
-5 3 -10 16 -10 28 0 18 2 19 10 7 5 -8 10 -21 10 -28z m2207 2 c-9 -9 -28 6
-21 18 4 6 10 6 17 -1 6 -6 8 -13 4 -17z m-987 7 c0 -5 -10 -13 -22 -17 -13
-3 -31 -13 -40 -22 -22 -19 -23 -9 -2 23 16 24 64 36 64 16z m-1505 -11 c-3
-5 -15 -10 -26 -10 -15 0 -19 -5 -14 -19 5 -15 1 -18 -20 -13 -27 5 -35 32
-10 32 8 0 15 5 15 10 0 6 14 10 31 10 17 0 28 -4 24 -10z m85 -4 c0 -8 -4
-17 -9 -20 -10 -7 -23 19 -14 28 11 11 23 6 23 -8z m2674 -1 c3 -9 0 -15 -8
-15 -8 0 -16 7 -20 15 -3 9 0 15 8 15 8 0 16 -7 20 -15z m1031 5 c9 14 22 13
22 -2 0 -7 2 -19 4 -26 7 -23 -28 -39 -51 -24 -19 11 -20 10 -21 -30 -1 -24
-1 -49 0 -55 1 -8 -9 -13 -24 -13 -20 0 -25 5 -25 25 0 14 -5 25 -11 25 -6 0
-9 -6 -6 -13 3 -8 2 -20 -3 -27 -6 -9 -17 -6 -44 16 -53 42 -46 55 17 29 25
-11 21 10 -5 23 -17 8 -19 11 -6 11 29 2 68 -18 68 -34 0 -8 4 -15 9 -15 12 0
22 45 15 64 -4 9 -1 16 6 16 7 0 10 6 7 14 -7 18 13 27 30 14 7 -5 14 -5 18 2z
m-3275 -18 c0 -5 -6 -16 -13 -27 -16 -20 -31 -7 -21 19 6 16 34 23 34 8z
m2814 -18 c11 -28 6 -39 -9 -20 -8 11 -15 23 -15 28 0 14 18 9 24 -8z m-1694
-33 c0 -9 -66 -71 -75 -71 -12 0 -3 30 16 54 19 25 59 36 59 17z m673 3 c8 -8
-3 -34 -14 -34 -5 0 -9 9 -9 20 0 19 11 26 23 14z m1541 -20 c19 -7 22 -36 4
-33 -7 1 -21 -1 -30 -4 -10 -4 -25 -9 -34 -12 -10 -3 -13 -11 -9 -25 10 -32
-5 -45 -23 -19 -15 21 -13 24 26 61 45 41 43 41 66 32z m-1944 -25 c-7 -11 -9
-27 -6 -35 6 -16 -10 -19 -19 -4 -4 6 1 22 9 35 20 30 31 33 16 4z m586 -4 c1
0 4 -9 8 -21 5 -16 2 -20 -12 -19 -29 2 -42 15 -42 41 0 22 2 23 23 12 12 -7
23 -13 23 -13z m423 11 c-2 -2 -22 -7 -44 -10 l-40 -6 40 13 c36 12 55 13 44
3z m-2849 -26 c0 -16 -3 -30 -7 -30 -5 0 -16 -14 -25 -30 -9 -17 -24 -30 -32
-30 -8 0 -16 -6 -19 -12 -3 -10 -7 -10 -20 1 -26 21 -20 31 17 31 19 0 38 5
41 10 3 6 1 10 -4 10 -17 0 -13 25 10 54 27 34 39 33 39 -4z m2542 19 c20 -11
20 -12 -12 -25 -41 -18 -47 -18 -54 2 -5 13 -1 15 20 10 21 -6 25 -4 21 8 -8
19 -3 20 25 5z m-2905 -35 c3 -22 -23 -61 -34 -51 -4 4 -1 13 5 19 8 8 8 15 1
24 -13 15 -2 37 14 31 7 -2 13 -12 14 -23z m140 10 c-16 -9 -32 -13 -35 -9 -9
9 19 25 43 24 16 0 15 -2 -8 -15z m110 -10 c31 -31 24 -41 -17 -24 -18 8 -30
20 -30 31 0 26 16 24 47 -7z m163 -19 c0 -36 -13 -47 -24 -19 -5 14 9 54 19
54 3 0 5 -16 5 -35z m60 26 c0 -6 -4 -13 -10 -16 -5 -3 -10 1 -10 9 0 9 5 16
10 16 6 0 10 -4 10 -9z m2631 -1 c5 0 9 -4 9 -10 0 -14 -13 -12 -36 6 -17 14
-17 15 -1 10 10 -3 23 -6 28 -6z m94 -10 c19 -8 19 -9 -2 -9 -13 -1 -26 -1
-30 -2 -4 0 -9 4 -11 10 -4 13 15 13 43 1z m950 -9 c8 -14 -13 -24 -33 -16
-14 5 -14 7 -2 15 19 12 27 12 35 1z m-1065 -9 c0 -5 -32 -15 -71 -22 -60 -10
-73 -10 -80 1 -16 26 -9 29 71 29 44 0 80 -4 80 -8z m120 -33 c0 -5 5 -7 11
-3 6 3 53 3 104 -1 82 -6 94 -9 102 -28 12 -29 5 -57 -14 -57 -11 0 -13 7 -7
32 6 29 5 31 -9 19 -9 -7 -21 -10 -27 -6 -16 10 -12 -13 7 -42 17 -26 17 -27
-1 -20 -12 5 -23 3 -29 -5 -5 -8 -7 -2 -3 20 5 30 -6 43 -19 22 -10 -16 -22
-12 -28 10 -3 12 -14 20 -26 20 -12 0 -21 5 -21 10 0 6 -5 10 -10 10 -20 0 -6
-84 18 -108 12 -12 22 -27 22 -34 0 -7 6 -6 18 4 20 17 52 13 52 -8 0 -8 10
-14 23 -14 29 0 51 -15 43 -29 -4 -6 0 -14 8 -17 9 -3 16 -14 16 -24 0 -11 5
-22 12 -26 8 -5 1 -17 -22 -35 -28 -24 -31 -31 -20 -44 7 -8 21 -15 31 -15 22
0 38 -22 20 -28 -11 -4 -11 -6 0 -12 20 -13 -34 -76 -91 -105 -63 -32 -66 -31
-74 6 -4 19 -13 33 -26 36 -16 4 -18 8 -9 19 9 11 8 15 -5 20 -19 7 -11 52 13
71 13 10 8 12 -29 13 -25 0 -51 4 -59 9 -19 12 -4 51 19 51 24 0 36 18 16 26
-9 3 -27 -4 -42 -15 -15 -12 -33 -21 -40 -21 -8 0 -14 -7 -14 -15 0 -9 9 -15
21 -15 14 0 19 -5 17 -17 -4 -23 -104 -45 -131 -29 -14 8 -21 7 -30 -4 -7 -8
-22 -14 -35 -12 -13 2 -36 -8 -59 -27 -21 -17 -41 -31 -45 -31 -13 0 -9 78 5
83 9 3 9 7 -2 20 -9 11 -10 17 -2 17 6 0 11 6 11 14 0 8 7 17 15 20 12 4 13
10 6 25 -6 10 -7 22 -3 27 4 5 -2 1 -14 -9 -11 -9 -24 -17 -28 -17 -4 0 -6 38
-4 85 2 47 0 85 -4 85 -5 0 -8 7 -8 15 0 8 17 19 43 25 23 6 57 15 75 20 26 7
32 6 32 -8 0 -8 7 -24 17 -34 15 -17 15 -18 0 -18 -10 0 -17 -6 -17 -14 0 -8
6 -14 13 -13 29 1 47 -4 47 -12 0 -5 5 -22 11 -38 9 -25 12 -26 20 -10 6 9 16
17 22 17 16 0 42 93 29 98 -6 2 -20 12 -33 23 -17 14 -25 16 -36 8 -9 -8 -13
-8 -13 -1 0 19 41 34 71 28 16 -3 29 -1 29 4 0 4 8 11 18 13 32 9 52 7 52 -4z
m-409 -41 c9 -16 5 -18 -28 -18 l-38 0 23 18 c19 14 20 20 10 32 -11 12 -10
12 5 0 10 -7 23 -22 28 -32z m1133 3 c-8 -8 -44 -8 -44 0 0 4 -3 15 -7 25 -6
16 -4 16 25 -1 17 -11 29 -21 26 -24z m281 1 c-6 -7 -35 18 -35 31 0 5 9 2 20
-8 11 -10 18 -20 15 -23z m-2288 14 c-3 -8 1 -20 9 -26 23 -20 16 -30 -21 -30
-40 0 -41 2 -18 41 18 30 40 41 30 15z m-1409 -28 c7 -7 12 -21 12 -31 0 -17
-2 -17 -20 6 -11 14 -20 28 -20 31 0 10 15 7 28 -6z m2111 -14 c-28 -15 -37
-10 -20 10 7 8 19 12 28 9 12 -5 11 -9 -8 -19z m70 -1 c-11 -13 -11 -17 -1
-20 16 -6 15 -23 -2 -23 -8 0 -17 7 -20 16 -7 17 9 44 26 44 6 0 4 -7 -3 -17z
m1411 -39 c0 -2 -7 -4 -15 -4 -8 0 -15 4 -15 9 0 5 -10 11 -22 15 l-23 6 25
13 c23 11 26 10 38 -11 6 -13 12 -26 12 -28z m-4221 20 c30 -18 56 -67 45 -85
-4 -7 -1 -10 7 -7 18 6 24 45 10 62 -14 17 -4 26 31 26 25 0 28 -3 28 -35 0
-24 5 -35 15 -35 8 0 19 -9 25 -20 13 -25 -1 -27 -35 -4 -23 15 -25 15 -31 0
-4 -11 -16 -15 -37 -13 -33 2 -46 -18 -31 -51 13 -30 12 -41 -2 -53 -8 -6 -14
-18 -14 -26 0 -11 -5 -13 -17 -8 -10 4 -26 9 -35 12 -10 3 -20 15 -24 27 -3
11 -16 31 -27 44 -16 17 -19 27 -11 39 15 23 34 28 34 8 0 -14 3 -14 25 2 13
10 25 24 25 31 0 17 10 15 27 -5 13 -17 14 -16 9 7 -3 14 -6 33 -6 43 0 13 -5
16 -24 11 -24 -6 -43 17 -30 37 7 12 12 12 43 -7z m391 -9 c-13 -14 -26 -22
-29 -19 -3 3 5 14 18 25 33 27 39 24 11 -6z m1455 8 c17 -41 13 -63 -19 -98
-18 -19 -41 -35 -50 -35 -16 0 -16 2 -5 16 10 13 10 17 0 23 -10 7 -9 15 4 41
9 18 15 41 12 51 -4 15 0 19 23 19 17 0 31 -7 35 -17z m1075 -4 c0 -11 -4 -18
-10 -14 -5 3 -7 12 -3 20 7 21 13 19 13 -6z m270 -1 c0 -19 -2 -20 -10 -8 -13
19 -13 30 0 30 6 0 10 -10 10 -22z m-2980 -23 c-14 -16 -40 -20 -40 -6 0 13
44 40 48 30 2 -6 -2 -16 -8 -24z m2389 28 c0 -5 -4 -17 -9 -28 -8 -18 -9 -17
-9 8 -1 15 4 27 9 27 6 0 10 -3 9 -7z m-567 -15 c22 -11 27 -19 25 -50 -2 -47
-25 -59 -127 -66 l-74 -5 15 24 c10 14 28 25 45 27 33 4 58 22 31 22 -25 0
-21 15 9 39 31 24 41 25 76 9z m-2293 -41 c1 -4 -8 -3 -20 3 -17 10 -18 14 -8
27 12 13 14 13 20 -4 4 -10 8 -22 8 -26z m3859 8 c-13 -28 -17 -29 -53 -13
-35 16 -32 32 5 24 22 -4 32 -1 36 9 4 8 10 13 15 10 4 -3 3 -17 -3 -30z m838
0 c0 -14 -6 -25 -11 -25 -6 0 -16 -9 -23 -21 -13 -20 -14 -20 -27 -2 -8 10
-15 14 -15 8 -1 -17 -20 19 -20 38 0 16 2 17 31 1 28 -14 31 -14 26 -1 -7 18
1 27 24 27 12 0 16 -7 15 -25z m-4109 -32 c-16 -16 -17 -15 -17 17 0 32 1 33
17 17 16 -16 16 -18 0 -34z m1246 31 c41 -7 43 -10 22 -38 -26 -34 -19 -52 20
-52 36 0 46 10 20 20 -19 7 -8 36 14 36 9 0 24 -13 33 -28 l17 -29 -55 -17
c-31 -10 -66 -15 -78 -12 -27 7 -106 98 -106 121 0 18 6 18 113 -1z m-144 -24
l16 -25 -32 23 c-36 26 -41 35 -17 30 9 -2 24 -14 33 -28z m-1748 -14 c13 -6
25 -22 27 -34 4 -24 32 -31 32 -8 0 21 40 27 72 10 40 -21 34 -53 -15 -81 -38
-22 -64 -23 -51 -1 5 7 0 9 -15 5 -24 -6 -45 18 -56 65 -4 15 -13 29 -21 32
-8 3 -14 16 -14 28 0 17 3 19 9 10 4 -8 19 -19 32 -26z m4237 22 c-3 -7 5 -20
16 -30 l21 -17 -22 -1 c-12 0 -29 10 -37 22 -21 30 -20 38 5 38 12 0 19 -5 17
-12z m-4288 -18 c0 -11 -4 -20 -10 -20 -5 0 -10 -9 -10 -21 0 -12 -4 -17 -11
-14 -5 4 -24 1 -40 -5 -24 -10 -33 -10 -42 -1 -9 10 -7 17 13 33 15 12 26 15
28 9 6 -18 18 -12 30 14 14 30 42 33 42 5z m284 5 c4 -11 -2 -15 -24 -15 -30
0 -41 14 -17 23 22 10 35 7 41 -8z m2952 -7 c-3 -13 -6 -29 -6 -36 0 -7 -11
-17 -25 -22 -36 -14 -32 -34 5 -26 18 3 30 1 30 -5 0 -6 4 -8 8 -5 5 3 14 -11
21 -30 11 -30 10 -39 -3 -59 -9 -14 -21 -25 -27 -25 -8 0 -7 -5 1 -15 10 -13
9 -15 -9 -15 -12 0 -19 5 -16 10 3 6 -1 10 -9 10 -20 0 -20 10 0 24 21 16 9
62 -22 83 -32 20 -30 51 4 96 31 42 58 50 48 15z m1614 -9 c7 -11 9 -24 5 -27
-7 -7 -35 25 -35 40 0 16 19 8 30 -13z m-4635 2 c7 -12 -12 -24 -25 -16 -11 7
-4 25 10 25 5 0 11 -4 15 -9z m1499 -7 c5 -13 2 -15 -16 -10 -13 3 -30 6 -38
6 -13 0 -13 1 0 10 23 15 47 12 54 -6z m86 -35 c0 -13 -42 -1 -52 15 -19 28
-7 37 22 16 17 -12 30 -26 30 -31z m1500 1 c0 -22 -2 -40 -5 -40 -10 0 -24 50
-19 65 11 28 24 15 24 -25z m940 20 c0 -13 -7 -20 -20 -20 -25 0 -26 16 -2 29
23 14 22 14 22 -9z m-258 2 c4 10 11 9 30 -4 29 -19 42 -54 24 -61 -15 -6 -98
57 -89 67 3 3 12 1 19 -5 8 -7 13 -6 16 3z m201 -12 c4 -16 0 -20 -18 -20 -25
0 -42 26 -22 34 24 9 35 6 40 -14z m-3549 -31 c-21 -23 -34 -24 -34 -4 0 25
23 45 38 33 10 -9 9 -15 -4 -29z m771 22 c3 -5 -6 -22 -21 -38 -20 -22 -24
-23 -19 -8 4 11 10 28 12 38 6 19 18 22 28 8z m267 -5 c50 -16 98 -43 98 -56
0 -5 -9 -12 -21 -15 -16 -5 -28 1 -50 24 -17 19 -38 31 -53 31 -16 0 -26 6
-26 15 0 8 1 15 3 15 1 0 23 -7 49 -14z m748 -16 c0 -21 -38 -37 -65 -26 -9 3
-13 2 -10 -4 3 -6 17 -10 30 -10 18 0 23 -4 19 -15 -4 -9 0 -15 10 -15 9 0 16
-4 16 -9 0 -15 -30 -41 -47 -41 -9 0 -21 -7 -27 -16 -16 -21 -39 -10 -81 41
-20 25 -41 42 -49 39 -18 -7 -42 24 -29 37 5 5 41 12 79 14 38 3 85 9 104 14
50 13 50 13 50 -9z m715 -1 c16 -16 -11 -32 -44 -24 -29 6 -40 23 -24 39 9 8
54 -1 68 -15z m-1621 -5 c20 -8 21 -44 1 -44 -12 0 -35 28 -35 44 0 8 14 8 34
0z m3314 -24 c2 -22 1 -23 -8 -7 -6 9 -20 17 -30 17 -10 0 -22 5 -25 11 -5 7
5 9 26 7 28 -2 35 -8 37 -28z m-4810 3 c2 -7 -3 -16 -12 -19 -19 -7 -77 17
-69 29 8 12 76 4 81 -10z m1817 7 c4 -6 -6 -10 -22 -10 -22 0 -25 2 -13 10 19
12 27 12 35 0z m951 -26 c8 -20 13 -38 11 -40 -9 -9 -49 46 -44 60 9 24 17 19
33 -20z m1204 5 c0 -10 -6 -19 -13 -19 -11 0 -15 23 -8 48 3 12 21 -13 21 -29z
m-3502 9 c9 -9 5 -19 -20 -45 -40 -41 -48 -41 -48 0 0 50 38 75 68 45z m972
-18 l21 -30 -55 0 c-31 0 -56 4 -56 10 0 5 6 7 13 4 7 -2 19 7 27 21 17 32 24
32 50 -5z m220 10 l25 -20 -35 0 c-19 0 -45 -3 -57 -6 -34 -9 -30 22 5 34 36
14 34 14 62 -8z m425 -3 c4 -13 -3 -43 -16 -72 l-22 -50 -30 64 c-33 70 -29
81 30 81 26 0 34 -5 38 -23z m-1429 -16 c-12 -19 -24 -12 -19 10 4 13 9 17 15
11 6 -6 7 -15 4 -21z m42 -6 c3 -25 2 -27 -12 -16 -19 16 -22 55 -3 49 6 -3
14 -17 15 -33z m3935 11 c9 -7 17 -23 17 -34 0 -37 -17 -33 -33 8 -16 42 -13
48 16 26z m-1933 -8 c0 -7 3 -23 6 -35 5 -20 2 -23 -19 -23 -35 0 -41 14 -21
45 17 27 34 33 34 13z m430 -28 c5 -10 10 -26 10 -35 0 -14 -2 -14 -25 1 -14
9 -25 25 -25 35 0 11 -5 19 -11 19 -5 0 -7 5 -4 10 8 13 41 -4 55 -30z m-2106
-15 c6 -16 -3 -19 -28 -9 -9 3 -13 10 -10 15 8 14 31 11 38 -6z m664 3 c7 -7
12 -20 12 -30 0 -10 5 -18 10 -18 6 0 10 11 10 25 0 29 11 31 43 10 31 -20 87
-15 87 8 0 13 8 17 33 17 40 0 42 -3 160 -195 90 -147 149 -221 167 -210 6 4
9 1 8 -7 -2 -7 21 -25 51 -40 41 -21 58 -25 72 -17 15 7 19 6 19 -6 0 -8 3
-15 8 -15 10 0 5 -157 -6 -195 -7 -25 -5 -33 14 -47 12 -10 27 -18 34 -18 6 0
9 -4 5 -10 -3 -5 2 -17 12 -27 10 -10 18 -24 19 -30 1 -7 2 -22 3 -33 0 -11 8
-20 16 -20 8 0 15 -4 15 -10 0 -5 -4 -10 -9 -10 -5 0 -12 -10 -14 -22 -3 -17
-5 -14 -6 10 -1 25 -5 32 -21 32 -22 0 -29 35 -9 42 29 10 -70 116 -111 120
-14 2 -27 6 -30 9 -17 21 -115 60 -137 54 -19 -4 -23 -2 -21 11 2 14 -20 25
-102 54 -58 21 -123 46 -145 58 -57 29 -148 128 -167 182 -82 233 -79 218 -57
225 20 7 27 35 7 35 -6 0 -19 -7 -28 -15 -15 -14 -20 -11 -48 24 -18 22 -32
44 -32 50 0 5 21 12 48 14 26 2 54 4 63 5 8 1 20 -3 27 -10z m441 -25 c-11
-30 -5 -41 15 -24 11 9 35 -3 119 -59 92 -61 107 -75 116 -108 6 -20 11 -49
11 -64 0 -15 5 -30 11 -34 8 -4 9 0 4 15 -3 12 -2 21 4 21 17 0 23 -20 11 -34
-8 -11 -6 -23 10 -53 11 -21 22 -68 25 -103 l6 -65 -20 45 c-11 25 -20 53 -20
62 -1 10 -10 23 -21 30 -24 15 -26 25 -5 30 10 2 12 7 5 18 -8 13 -12 12 -25
-7 -20 -28 -54 -29 -103 -4 -42 22 -80 60 -143 145 -37 50 -44 66 -43 105 0
51 28 126 43 116 7 -4 7 -15 0 -32z m-629 2 l23 -24 -28 -42 -27 -42 -19 24
c-12 15 -19 19 -19 10 0 -10 -8 -7 -25 9 -33 31 -34 77 -2 82 62 9 74 7 97
-17z m2580 6 c0 -11 -4 -23 -10 -26 -6 -4 -10 5 -10 19 0 14 5 26 10 26 6 0
10 -9 10 -19z m-1132 -9 c37 14 53 4 26 -17 -20 -15 -104 -21 -104 -7 0 17 23
32 35 22 7 -6 23 -5 43 2z m342 -52 c0 -43 -3 -50 -19 -50 -17 0 -18 4 -11 31
5 17 9 34 8 38 -2 18 3 31 12 31 6 0 10 -22 10 -50z m-2630 36 c0 -18 -24 -65
-31 -60 -13 8 -11 38 3 52 11 11 28 16 28 8z m2949 -60 c0 -7 -3 -6 -6 2 -4
10 -8 10 -19 2 -10 -9 -15 -6 -20 15 -10 38 15 52 33 18 7 -14 13 -30 12 -37z
m1148 51 c18 7 70 -33 76 -58 5 -18 2 -20 -16 -14 -12 3 -35 10 -52 15 -28 7
-28 8 -5 9 25 1 25 1 -6 20 -36 22 -59 49 -28 33 11 -5 25 -7 31 -5z m-417
-17 c0 -11 -4 -20 -10 -20 -5 0 -10 2 -10 4 0 2 -3 11 -6 20 -4 11 -1 16 10
16 9 0 16 -8 16 -20z m-3835 -20 c-5 -14 -2 -20 9 -20 9 0 16 -4 16 -10 0 -16
-30 -12 -36 5 -6 16 1 45 11 45 4 0 3 -9 0 -20z m2625 1 c14 -28 12 -44 -5
-37 -8 3 -15 2 -15 -2 0 -4 -7 -16 -15 -26 -12 -16 -17 -17 -30 -6 -8 7 -30
16 -48 19 -23 5 -32 12 -32 26 0 16 6 20 33 18 18 0 39 -8 45 -16 9 -11 18
-13 35 -6 12 4 22 13 22 18 0 13 -27 21 -47 15 -15 -5 -16 -4 -3 5 23 17 48
13 60 -8z m98 -1 c10 -1 -3 -25 -24 -45 -42 -39 -60 -33 -56 16 5 44 -1 42 80
29z m1897 -10 c10 -11 16 -21 14 -23 -17 -13 -59 -37 -64 -37 -8 0 -6 26 5 54
11 31 21 32 45 6z m-3554 -23 c28 -36 82 -147 74 -155 -5 -5 -13 1 -88 62 -46
37 -48 41 -42 75 12 62 19 65 56 18z m2025 -4 c13 7 19 7 22 -3 3 -7 12 -20
22 -30 23 -23 16 -70 -11 -70 -10 0 -21 -5 -25 -11 -4 -7 -23 -9 -49 -6 -34 5
-48 2 -79 -20 -30 -20 -40 -22 -47 -12 -4 7 -5 17 -3 21 3 4 -2 8 -11 8 -9 0
-23 7 -31 15 -9 8 -26 15 -39 15 -19 0 -24 6 -27 35 -5 40 2 42 57 19 20 -8
38 -14 39 -12 2 2 10 13 18 26 l16 23 12 -33 12 -33 13 30 c8 17 11 41 8 54
l-6 24 45 -25 c35 -19 50 -23 64 -15z m-2851 -9 c-12 -9 -16 -20 -12 -36 7
-24 -12 -78 -26 -78 -4 0 -10 7 -13 15 -4 8 -13 15 -20 15 -11 0 -8 11 12 45
24 43 21 62 -6 30 -7 -8 -29 -15 -48 -15 -20 0 -32 4 -26 8 15 14 91 35 101
29 6 -4 19 0 29 8 13 9 20 10 23 3 2 -6 -4 -17 -14 -24z m1896 -5 c-9 -22 -10
-22 -10 -3 -1 11 2 24 6 27 12 12 14 0 4 -24z m1414 20 c-11 -17 -56 -30 -79
-22 -18 6 -16 8 19 19 51 16 68 17 60 3z m154 -14 c6 3 11 1 11 -5 0 -20 -45
-6 -48 15 -3 19 -2 19 12 1 8 -10 19 -15 25 -11z m511 0 c0 -9 -9 -15 -25 -15
-26 0 -34 15 -12 23 23 10 37 7 37 -8z m44 -11 c10 -26 7 -36 -8 -31 -10 4
-13 1 -9 -9 7 -19 -21 -18 -37 2 -11 13 -10 16 8 21 12 3 22 12 22 19 0 19 16
18 24 -2z m-2007 -2 c7 -4 10 -17 6 -31 -5 -20 -11 -22 -45 -19 -36 3 -39 2
-34 -18 5 -19 3 -21 -17 -17 -12 3 -19 2 -15 -2 4 -4 35 -9 69 -11 73 -5 79
-8 79 -41 0 -24 1 -25 18 -11 9 9 23 13 30 11 6 -3 12 3 12 11 0 12 6 15 24
10 14 -3 38 1 57 11 32 17 33 17 52 -6 19 -23 19 -23 33 -4 13 17 13 21 -3 32
-9 7 -24 13 -33 13 -9 0 -21 5 -26 10 -8 8 -15 6 -24 -5 -16 -20 -30 -19 -30
2 0 9 3 13 7 10 3 -4 11 1 18 10 15 20 56 21 119 3 46 -13 62 -30 27 -30 -10
0 -22 -7 -25 -16 -4 -10 -2 -13 7 -8 6 4 2 -4 -11 -18 l-23 -26 22 -16 c20
-13 24 -14 31 -2 4 8 17 12 27 9 21 -5 35 -29 25 -44 -3 -5 2 -9 10 -9 9 0 16
5 16 10 0 6 10 10 21 10 18 0 19 -2 9 -15 -10 -12 -9 -15 7 -15 12 0 25 11 32
27 12 27 13 27 27 9 7 -11 16 -18 18 -15 7 7 -13 49 -24 49 -5 0 -10 5 -10 10
0 12 47 14 53 3 3 -5 7 -21 11 -38 5 -28 2 -32 -47 -61 -28 -17 -141 -78 -250
-135 -126 -67 -195 -109 -192 -116 3 -8 -5 -13 -20 -13 -14 0 -46 -16 -71 -35
-51 -40 -66 -40 -74 -4 -5 22 -7 20 -23 -19 -9 -23 -17 -53 -17 -66 0 -12 -10
-31 -21 -42 l-22 -19 17 32 c9 18 16 41 16 53 0 11 11 43 25 71 25 49 26 53
24 269 0 120 2 224 6 230 4 6 12 9 19 7 7 -3 23 1 37 9 28 16 30 16 46 6z
m477 -23 c-31 -12 -40 -9 -20 6 10 8 24 11 29 8 6 -4 2 -10 -9 -14z m-2244 0
c0 -7 10 -9 25 -5 14 4 39 -1 59 -11 34 -16 35 -18 19 -35 -9 -10 -11 -18 -5
-18 6 0 22 -19 36 -42 16 -27 26 -36 26 -25 0 10 5 27 11 38 10 19 12 20 36 4
17 -11 28 -14 35 -7 7 7 3 14 -11 21 -17 9 -19 16 -11 30 5 10 6 21 3 25 -3 3
-1 6 5 6 7 0 12 -9 12 -20 0 -13 7 -20 20 -20 11 0 20 -4 20 -10 0 -5 7 -7 15
-4 8 3 22 -1 31 -10 15 -16 17 -16 29 0 11 16 16 16 46 4 48 -19 71 -40 59
-55 -12 -15 -3 -25 22 -25 12 0 16 -4 12 -11 -4 -8 3 -9 24 -4 27 5 37 0 96
-56 37 -34 65 -63 63 -66 -2 -2 -35 3 -73 11 -67 14 -268 38 -428 51 -66 6
-79 10 -83 26 -5 16 -11 18 -42 13 -35 -7 -35 -6 -20 12 15 17 32 74 22 74 -2
0 -14 -7 -28 -16 -21 -14 -26 -14 -54 1 -17 8 -31 20 -31 25 0 5 -6 7 -14 4
-8 -3 -17 0 -21 7 -6 9 -1 10 19 7 28 -6 46 13 46 47 0 24 -29 30 -45 9 -7
-11 -16 -16 -20 -12 -4 3 3 16 14 27 22 22 81 29 81 10z m3220 2 c0 -6 -5 -13
-10 -16 -15 -9 7 -35 28 -35 14 0 14 -2 -1 -17 -33 -33 -77 26 -47 63 14 16
30 19 30 5z m-3620 -32 c0 -11 -4 -17 -10 -14 -5 3 -10 13 -10 21 0 8 5 14 10
14 6 0 10 -9 10 -21z m292 9 c-7 -7 -12 -20 -12 -30 0 -10 -4 -18 -10 -18 -5
0 -10 5 -10 11 0 8 -5 8 -15 -1 -9 -8 -15 -8 -15 -2 0 6 12 20 28 31 29 22 54
29 34 9z m2318 -25 c0 -7 -8 -13 -17 -14 -11 0 -13 -3 -5 -6 27 -11 10 -21
-18 -10 -37 14 -38 32 -3 51 29 14 42 7 43 -21z m1740 17 c-7 -4 -22 -5 -33
-2 -20 5 -20 6 -1 12 24 9 51 1 34 -10z m-850 3 c-1 -20 -18 -33 -35 -27 -17
7 -17 8 1 21 20 14 34 17 34 6z m790 -18 c0 -9 -9 -15 -22 -15 -22 1 -23 1 -4
15 25 19 26 19 26 0z m-3317 -46 c31 -27 67 -64 79 -82 21 -31 20 -30 -27 10
-66 54 -132 123 -119 123 5 0 36 -23 67 -51z m1317 44 c-1 -15 -30 -47 -44
-49 -15 -2 -12 20 7 44 10 13 37 17 37 5z m1853 -36 c-7 -11 -23 12 -23 33 1
12 4 11 15 -4 8 -10 12 -23 8 -29z m-3573 23 c-20 -13 -53 -13 -45 0 3 6 18
10 33 10 21 0 24 -2 12 -10z m2110 0 c13 -9 13 -11 0 -20 -19 -13 -34 -8 -38
13 -4 19 15 22 38 7z m1678 -45 c-3 -3 -22 -9 -43 -12 -30 -5 -37 -3 -33 8 2
8 15 19 29 26 19 10 27 10 38 -2 8 -8 12 -17 9 -20z m-1783 13 c14 -6 24 -16
22 -22 -6 -18 -46 -19 -53 -2 -3 9 -15 16 -26 16 -10 0 -16 5 -13 10 8 13 38
13 70 -2z m195 -2 c0 -9 7 -12 18 -9 10 2 24 -3 31 -11 12 -14 7 -18 -30 -35
-50 -21 -59 -15 -59 37 0 25 4 32 20 32 11 0 20 -6 20 -14z m-2534 -42 c-3 -7
1 -14 9 -16 10 -2 12 -7 5 -18 -8 -13 -11 -13 -26 2 -10 9 -19 31 -21 49 -3
32 -3 32 17 14 12 -10 19 -24 16 -31z m3244 25 c0 -28 -103 -35 -108 -7 -3 13
6 17 40 20 48 3 68 0 68 -13z m-3143 -33 c-3 -7 4 -18 14 -25 29 -18 13 -31
-38 -31 -45 0 -45 0 -37 28 4 15 7 37 7 48 -1 20 1 21 29 7 16 -8 27 -21 25
-27z m1629 -3 c-11 -11 -17 4 -9 23 7 18 8 18 11 1 2 -10 1 -21 -2 -24z m29
28 c3 -5 1 -12 -5 -16 -5 -3 -10 1 -10 9 0 18 6 21 15 7z m1330 -4 c24 -18 11
-37 -26 -37 -21 0 -29 5 -29 18 0 34 23 42 55 19z m595 -3 c0 21 19 17 34 -7
13 -21 -5 -37 -42 -37 -25 0 -38 21 -27 48 6 16 7 16 21 -2 13 -18 14 -18 14
-2z m510 4 c-1 -7 -7 -26 -14 -43 l-12 -30 -12 34 c-7 18 -9 37 -6 42 8 14 44
11 44 -3z m-4250 -41 c0 -4 -11 0 -25 9 -14 9 -25 20 -25 26 0 11 49 -23 50
-35z m3680 28 c7 -9 11 -18 8 -20 -9 -10 -38 7 -38 21 0 18 14 18 30 -1z
m-790 -5 c0 -5 9 -10 20 -10 11 0 20 -4 20 -10 0 -5 -4 -10 -9 -10 -5 0 -16
-2 -23 -5 -9 -4 -19 4 -26 20 -10 21 -9 25 3 25 8 0 15 -4 15 -10z m1559 -27
c12 -27 12 -27 -6 -10 -11 9 -25 17 -31 17 -6 0 -14 5 -17 10 -3 6 4 10 18 10
16 0 28 -9 36 -27z m-2749 3 c0 -3 -4 -8 -10 -11 -5 -3 -10 -1 -10 4 0 6 5 11
10 11 6 0 10 -2 10 -4z m1320 -17 c0 -5 -7 -9 -15 -9 -8 0 -15 7 -15 15 0 9 6
12 15 9 8 -4 15 -10 15 -15z m-1230 -22 c0 -18 -2 -19 -10 -7 -13 20 -13 43 0
35 6 -3 10 -16 10 -28z m1000 23 c0 -5 -9 -10 -20 -10 -11 0 -20 5 -20 10 0 6
9 10 20 10 11 0 20 -4 20 -10z m76 -15 c16 -12 16 -14 3 -15 -9 0 -22 7 -29
15 -16 19 0 19 26 0z m-2867 -6 c31 -11 41 -32 21 -44 -6 -4 -22 0 -35 9 -13
9 -32 16 -41 16 -13 0 -14 3 -4 15 15 18 18 18 59 4z m3191 1 c0 -5 -9 -14
-20 -20 -22 -12 -27 -1 -8 18 14 14 28 16 28 2z m-1480 -20 c0 -5 -5 -10 -11
-10 -5 0 -7 5 -4 10 3 6 8 10 11 10 2 0 4 -4 4 -10z m107 4 c-4 -4 2 -19 13
-34 22 -31 26 -50 10 -50 -5 0 -10 5 -10 11 0 5 -4 8 -9 4 -5 -3 -17 5 -25 17
-14 20 -14 24 1 40 9 10 18 18 21 18 3 0 2 -3 -1 -6z m833 -2 c0 -18 -28 -45
-39 -38 -9 6 -8 13 5 27 18 20 34 25 34 11z m66 -21 c-10 -16 -46 -13 -46 3 0
16 30 27 44 15 4 -4 5 -12 2 -18z m264 4 c0 -8 -14 -17 -35 -21 -40 -7 -50 -2
-42 21 8 20 77 21 77 0z m84 0 c4 -11 -1 -15 -19 -15 -18 0 -23 4 -19 15 4 8
12 15 19 15 7 0 15 -7 19 -15z m-519 -90 c5 -23 27 -455 29 -566 1 -58 6 -80
19 -94 11 -11 15 -24 11 -34 -18 -39 -15 -88 5 -122 22 -35 28 -89 11 -89 -5
0 -10 -7 -10 -15 0 -8 4 -15 9 -15 16 0 -2 -51 -22 -62 -11 -6 -79 -12 -151
-13 -72 -2 -193 -6 -269 -10 -76 -4 -153 -4 -171 -1 -42 8 -111 70 -131 118
-8 20 -20 40 -26 43 -7 5 -8 55 -3 166 6 145 5 159 -10 153 -9 -3 -16 -1 -16
5 0 6 5 11 11 11 5 0 8 4 5 9 -3 5 1 11 9 15 8 3 15 13 15 22 0 60 57 120 185
198 140 86 174 109 248 172 120 102 173 134 213 131 26 -1 36 -7 39 -22z
m-727 -98 c3 -21 0 -26 -13 -21 -9 4 -14 13 -11 20 3 8 1 14 -4 14 -6 0 -10 5
-10 11 0 24 35 2 38 -24z m-168 -32 c0 -8 -4 -15 -10 -15 -5 0 -10 7 -10 15 0
8 5 15 10 15 6 0 10 -7 10 -15z m50 -4 c0 -11 3 -28 7 -38 6 -16 5 -16 -10 -4
-18 14 -23 61 -7 61 6 0 10 -9 10 -19z m-160 -101 c0 -5 -2 -10 -4 -10 -3 0
-8 5 -11 10 -3 6 -1 10 4 10 6 0 11 -4 11 -10z m160 -10 c0 -5 -8 -10 -17 -10
-15 0 -16 2 -3 10 19 12 20 12 20 0z m70 -26 c0 -14 -12 -37 -26 -52 l-26 -27
16 32 c9 18 16 44 16 58 0 15 4 24 10 20 6 -3 10 -17 10 -31z m47 20 c-3 -3
-12 -4 -19 -1 -8 3 -5 6 6 6 11 1 17 -2 13 -5z m-37 -135 c0 -5 -4 -9 -10 -9
-5 0 -10 7 -10 16 0 8 5 12 10 9 6 -3 10 -10 10 -16z m-85 -69 c3 -6 -1 -7 -9
-4 -18 7 -21 14 -7 14 6 0 13 -4 16 -10z m48 -108 c14 -34 19 -58 12 -52 -7 6
-18 24 -25 40 -8 20 -20 30 -34 31 -11 0 -15 3 -8 6 6 2 12 16 12 31 0 36 13
19 43 -56z m-33 -234 c0 -4 -6 -8 -14 -8 -8 0 -17 4 -20 8 -2 4 4 8 15 8 10 0
19 -4 19 -8z m1017 -96 c-19 -4 -47 14 -47 29 0 5 15 2 33 -8 25 -13 28 -18
14 -21z m-1013 10 c-11 -10 -26 -31 -32 -47 l-10 -30 -1 32 c-1 22 6 37 21 47
31 22 48 20 22 -2z m-60 -23 c-6 -11 -24 -2 -24 11 0 5 7 7 15 4 8 -4 12 -10
9 -15z m4 -91 c-3 -7 -13 -15 -24 -17 -16 -3 -17 -1 -5 13 16 19 34 21 29 4z
m92 2 c0 -5 8 -10 17 -10 15 0 14 -2 -3 -15 -26 -20 -29 -19 -32 10 -1 14 3
25 8 25 6 0 10 -4 10 -10z m-54 -268 c-14 -13 -36 64 -35 120 l1 63 19 -89
c10 -49 17 -91 15 -94z m-96 98 c0 -5 -4 -10 -10 -10 -5 0 -10 5 -10 10 0 6 5
10 10 10 6 0 10 -4 10 -10z m1267 -42 c-3 -7 -5 -2 -5 12 0 14 2 19 5 13 2 -7
2 -19 0 -25z m-21 -5 c-1 -14 -7 -28 -13 -31 -14 -4 -17 16 -7 42 10 25 21 19
20 -11z m-16 -56 c15 -4 20 -14 20 -42 0 -26 -4 -35 -12 -31 -7 3 -21 9 -30
12 -15 5 -18 18 -17 63 0 48 2 52 10 30 6 -15 19 -29 29 -32z m-1219 -32 c5 4
9 0 9 -9 0 -8 -5 -16 -11 -18 -6 -2 1 -39 20 -99 31 -96 39 -162 22 -188 -11
-18 -18 -4 -19 40 -1 20 -12 70 -26 112 -26 79 -32 147 -19 207 l8 35 3 -43
c2 -23 7 -40 13 -37z m59 -135 c0 -5 -4 -10 -10 -10 -5 0 -10 5 -10 10 0 6 5
10 10 10 6 0 10 -4 10 -10z m110 -74 c0 -11 -19 -15 -25 -6 -3 5 1 10 9 10 9
0 16 -2 16 -4z m-64 -163 c-10 -11 -37 -12 -30 -2 3 5 12 9 21 9 9 0 13 -3 9
-7z m11 -135 c-3 -8 -6 -5 -6 6 -1 11 2 17 5 13 3 -3 4 -12 1 -19z m-77 -148
c0 -5 -7 -10 -15 -10 -8 0 -15 5 -15 10 0 6 7 10 15 10 8 0 15 -4 15 -10z
m-119 -83 c-1 -12 -15 -9 -19 4 -3 6 1 10 8 8 6 -3 11 -8 11 -12z m103 -98
c-6 -11 -24 -2 -24 11 0 5 7 7 15 4 8 -4 12 -10 9 -15z m46 -59 c0 -5 -5 -10
-11 -10 -5 0 -7 5 -4 10 3 6 8 10 11 10 2 0 4 -4 4 -10z m153 -95 c1 -5 -5
-11 -14 -13 -9 -2 -16 4 -16 13 0 17 27 17 30 0z m-188 -54 c3 -5 1 -12 -5
-16 -5 -3 -10 1 -10 9 0 18 6 21 15 7z m260 -51 c3 -5 1 -10 -5 -10 -6 0 -8
-4 -5 -10 3 -5 1 -10 -4 -10 -6 0 -11 9 -11 20 0 21 15 27 25 10z m-245 -30
c0 -5 -7 -7 -15 -4 -8 4 -15 8 -15 10 0 2 7 4 15 4 8 0 15 -4 15 -10z m172
-28 c-7 -2 -12 -8 -12 -14 0 -5 8 -7 19 -3 22 7 38 -22 21 -39 -6 -6 -17 -3
-33 12 -13 12 -30 22 -38 22 -8 0 -2 11 16 26 20 17 31 21 34 13 2 -7 -1 -15
-7 -17z m-175 2 c-3 -3 -12 -4 -19 -1 -8 3 -5 6 6 6 11 1 17 -2 13 -5z m43
-104 c0 -5 -4 -10 -10 -10 -5 0 -10 5 -10 10 0 6 5 10 10 10 6 0 10 -4 10 -10z"/>
<path d="M2917 4999 c-14 -8 -16 -14 -6 -25 13 -16 39 -2 39 22 0 17 -8 17
-33 3z"/>
<path d="M2856 4958 c-9 -35 -7 -58 5 -58 6 0 13 9 16 20 3 11 12 20 21 20 13
0 12 3 -3 20 -23 26 -31 25 -39 -2z"/>
<path d="M3879 3263 c5 -21 15 -29 34 -31 15 -2 27 1 27 7 0 6 -7 11 -15 11
-8 0 -15 6 -15 14 0 11 -20 26 -35 26 -2 0 0 -12 4 -27z"/>
<path d="M3880 3207 c0 -19 16 -31 24 -18 3 5 -1 14 -9 21 -12 10 -15 10 -15
-3z"/>
<path d="M3971 3166 c2 -1 19 -8 38 -14 29 -10 32 -10 21 3 -7 8 -24 15 -38
15 -14 0 -23 -2 -21 -4z"/>
<path d="M3983 3054 c-10 -25 10 -69 33 -72 11 -2 28 6 38 17 17 18 17 22 3
36 -9 8 -23 15 -31 15 -9 0 -16 5 -16 10 0 16 -20 11 -27 -6z"/>
<path d="M3074 2782 c-14 -9 -25 -52 -14 -52 14 0 40 30 40 46 0 15 -9 18 -26
6z"/>
<path d="M3125 2770 c3 -5 13 -10 21 -10 8 0 14 5 14 10 0 6 -9 10 -21 10 -11
0 -17 -4 -14 -10z"/>
<path d="M2956 2723 c-7 -17 9 -33 32 -33 15 0 15 6 2 31 -13 23 -26 24 -34 2z"/>
<path d="M3245 2730 c-7 -12 2 -30 16 -30 5 0 9 9 9 20 0 21 -15 27 -25 10z"/>
<path d="M2825 2670 c-3 -5 -1 -10 4 -10 6 0 11 5 11 10 0 6 -2 10 -4 10 -3 0
-8 -4 -11 -10z"/>
<path d="M3050 6080 c0 -5 5 -10 10 -10 6 0 10 5 10 10 0 6 -4 10 -10 10 -5 0
-10 -4 -10 -10z"/>
<path d="M2652 6004 c-28 -20 -28 -34 1 -34 13 0 27 -4 33 -9 5 -5 19 -12 32
-16 31 -9 29 18 -3 50 -28 29 -33 30 -63 9z"/>
<path d="M3249 5963 c-1 -10 -1 -22 0 -27 1 -5 -3 -12 -9 -16 -7 -4 -3 -15 10
-30 16 -18 17 -25 8 -31 -10 -7 -10 -12 -1 -28 7 -11 9 -21 4 -23 -5 -2 -5
-12 -1 -22 5 -15 10 -8 20 30 8 27 22 55 32 62 19 14 25 42 8 42 -5 0 -10 -7
-10 -15 0 -8 -6 -15 -14 -15 -19 0 -30 32 -14 42 10 6 10 8 1 8 -7 0 -13 5
-13 10 0 6 10 10 22 10 27 0 21 5 -14 14 -22 5 -28 3 -29 -11z"/>
<path d="M2703 5907 c-21 -12 -20 -13 18 -29 l39 -17 0 30 c0 32 -18 38 -57
16z"/>
<path d="M2636 5874 c-13 -34 -7 -44 29 -44 40 0 41 2 19 35 -19 29 -39 32
-48 9z"/>
<path d="M2160 5805 c-17 -21 -7 -29 18 -16 29 15 32 14 32 -14 0 -21 24 -45
44 -45 15 0 4 28 -13 33 -11 2 -21 15 -23 28 -4 29 -39 37 -58 14z"/>
<path d="M2567 5717 c-4 -10 -13 -17 -20 -14 -6 2 -20 0 -30 -5 -15 -7 -16
-12 -6 -24 6 -8 18 -14 25 -14 8 0 14 -9 14 -20 0 -12 7 -20 18 -20 31 0 55
-54 25 -56 -10 -1 -22 -3 -28 -4 -5 -2 -18 0 -28 5 -11 4 -23 3 -30 -4 -8 -8
-8 -11 1 -11 7 0 12 -9 12 -19 0 -12 9 -21 24 -25 18 -4 33 3 62 29 24 22 44
33 55 30 22 -7 35 44 20 74 -14 26 -14 29 7 34 10 3 6 5 -10 6 -16 0 -28 -4
-28 -10 0 -6 -7 -8 -16 -5 -12 4 -15 2 -10 -9 7 -18 -4 -19 -27 -2 -9 6 -17
28 -19 47 -2 27 -5 31 -11 17z"/>
<path d="M2306 5704 c-3 -12 0 -33 8 -49 10 -20 12 -35 5 -53 -11 -29 -5 -40
14 -24 7 6 23 9 35 5 16 -4 22 -1 22 11 0 8 -11 18 -25 22 -29 7 -31 13 -9 29
14 9 14 16 5 33 -6 12 -18 22 -26 22 -7 0 -15 6 -18 13 -2 7 -7 3 -11 -9z"/>
<path d="M3472 5701 c-20 -12 12 -41 38 -34 23 6 25 14 8 31 -14 14 -28 15
-46 3z"/>
<path d="M2425 5680 c-3 -5 -4 -14 0 -19 3 -5 -3 -11 -12 -13 -16 -3 -16 -5 3
-16 18 -10 25 -7 50 19 16 17 22 28 12 24 -9 -4 -19 -2 -23 4 -8 14 -22 14
-30 1z"/>
<path d="M4240 5635 c0 -16 39 -36 53 -28 11 7 -23 43 -40 43 -7 0 -13 -7 -13
-15z"/>
<path d="M3800 5606 c0 -9 5 -16 10 -16 6 0 10 4 10 9 0 6 -4 13 -10 16 -5 3
-10 -1 -10 -9z"/>
<path d="M2410 5594 c0 -16 27 -43 43 -44 14 0 7 27 -11 43 -23 21 -32 21 -32
1z"/>
<path d="M2248 5583 c-19 -5 -24 -18 -9 -27 4 -3 16 3 26 14 18 20 16 22 -17
13z"/>
<path d="M3752 5558 c2 -12 8 -23 14 -25 17 -6 27 29 12 39 -22 13 -30 9 -26
-14z"/>
<path d="M4345 5550 c3 -5 11 -10 16 -10 6 0 7 5 4 10 -3 6 -11 10 -16 10 -6
0 -7 -4 -4 -10z"/>
<path d="M4173 5542 c-17 -2 -21 -9 -18 -30 2 -22 7 -26 26 -24 13 2 35 4 49
5 23 1 39 13 40 28 0 10 -72 25 -97 21z"/>
<path d="M2634 5515 c-4 -8 -12 -15 -20 -15 -24 0 -15 -30 12 -40 32 -12 22
-30 -17 -30 -33 0 -37 -10 -11 -33 23 -21 46 -22 39 -3 -3 8 2 16 14 19 14 4
19 14 19 41 0 33 2 35 19 25 20 -13 51 -6 51 10 0 6 -11 13 -25 17 -14 3 -25
10 -25 15 0 15 -50 10 -56 -6z"/>
<path d="M3900 5512 c0 -12 39 -32 44 -23 3 4 -6 13 -19 19 -14 7 -25 8 -25 4z"/>
<path d="M3610 5490 c-6 -12 -7 -20 -1 -20 5 0 17 -3 27 -7 12 -4 15 -3 10 6
-5 8 -1 14 13 18 27 7 17 23 -14 23 -14 0 -29 -9 -35 -20z"/>
<path d="M3967 5448 c-11 -8 -20 -33 -24 -65 -5 -45 -3 -53 11 -53 10 0 16 9
16 25 0 20 5 25 26 25 23 0 26 3 22 25 -3 14 -1 28 3 31 5 3 9 9 9 15 0 13
-43 11 -63 -3z"/>
<path d="M2481 5398 c0 -28 2 -30 9 -13 12 28 12 45 0 45 -5 0 -10 -15 -9 -32z"/>
<path d="M2556 5401 c-4 -7 -5 -15 -2 -18 9 -9 19 4 14 18 -4 11 -6 11 -12 0z"/>
<path d="M4260 5366 c0 -9 7 -16 16 -16 9 0 14 5 12 12 -6 18 -28 21 -28 4z"/>
<path d="M3400 5196 c0 -8 5 -18 10 -21 6 -3 10 1 10 9 0 8 -4 18 -10 21 -5 3
-10 -1 -10 -9z"/>
<path d="M4357 5163 c-8 -7 11 -33 24 -33 5 0 13 9 19 20 9 17 8 20 -13 20
-13 0 -27 -3 -30 -7z"/>
<path d="M4243 5153 c-19 -7 -16 -21 7 -33 18 -9 20 -8 20 15 0 25 -4 28 -27
18z"/>
<path d="M4317 5154 c-13 -13 -7 -44 8 -44 16 0 17 5 6 33 -3 10 -10 15 -14
11z"/>
<path d="M4117 5133 c-13 -12 -7 -28 13 -41 18 -11 20 -10 20 18 0 28 -17 40
-33 23z"/>
<path d="M3290 5090 c0 -18 3 -19 20 -10 22 12 18 30 -6 30 -8 0 -14 -9 -14
-20z"/>
<path d="M4300 5010 c-17 -10 -14 -15 18 -25 19 -6 23 -4 20 11 -4 21 -18 27
-38 14z"/>
<path d="M3405 4990 c3 -5 17 -10 31 -10 14 0 22 4 19 10 -3 6 -17 10 -31 10
-14 0 -22 -4 -19 -10z"/>
<path d="M4252 4947 c-8 -10 -6 -13 9 -13 20 0 25 11 10 20 -5 3 -13 0 -19 -7z"/>
<path d="M4440 4830 c-13 -9 -13 -10 0 -10 8 0 22 5 30 10 13 9 13 10 0 10 -8
0 -22 -5 -30 -10z"/>
<path d="M4466 4805 c-3 -8 -1 -15 4 -15 6 0 10 -6 10 -14 0 -8 6 -16 14 -19
11 -4 14 3 13 29 -1 24 -7 34 -18 34 -9 0 -19 -7 -23 -15z"/>
<path d="M4420 4786 c0 -9 7 -19 15 -23 25 -9 27 2 5 22 -18 17 -20 17 -20 1z"/>
<path d="M4640 4770 c0 -19 3 -21 12 -12 9 9 9 15 0 24 -9 9 -12 7 -12 -12z"/>
<path d="M4810 4663 c0 -6 8 -17 18 -24 16 -13 16 -13 2 6 -8 11 -16 22 -17
24 -2 2 -3 0 -3 -6z"/>
<path d="M4270 4610 c11 -20 30 -28 30 -12 0 11 -22 32 -32 32 -5 0 -4 -9 2
-20z"/>
<path d="M4670 4455 c-10 -12 -10 -15 4 -15 9 0 16 7 16 15 0 8 -2 15 -4 15
-2 0 -9 -7 -16 -15z"/>
<path d="M4930 3993 c1 -18 18 -35 24 -24 4 6 4 16 1 21 -7 12 -25 13 -25 3z"/>
<path d="M651 3634 c0 -11 3 -14 6 -6 3 7 2 16 -1 19 -3 4 -6 -2 -5 -13z"/>
<path d="M5172 3389 c-12 -19 -11 -19 8 -9 11 6 20 15 20 20 0 17 -15 11 -28
-11z"/>
<path d="M640 2740 c-13 -9 -13 -11 0 -20 8 -5 20 -10 26 -10 19 0 24 28 8 34
-19 7 -16 8 -34 -4z"/>
<path d="M4615 2717 c-4 -10 -5 -21 -1 -24 10 -10 18 4 13 24 -4 17 -4 17 -12
0z"/>
<path d="M4710 2710 c0 -5 7 -10 16 -10 8 0 12 5 9 10 -3 6 -10 10 -16 10 -5
0 -9 -4 -9 -10z"/>
<path d="M4523 2694 c-4 -11 1 -22 13 -31 19 -14 18 -15 -3 -30 -33 -22 -29
-43 7 -43 34 0 36 -6 15 -37 -14 -19 -13 -21 4 -16 10 3 22 0 25 -6 16 -25 25
-8 11 19 -12 22 -13 35 -5 49 14 27 13 31 -7 32 -17 0 -17 1 -2 11 16 11 15
14 -4 40 -23 31 -45 36 -54 12z"/>
<path d="M5340 2703 c0 -15 -64 -37 -68 -23 -4 11 -32 14 -32 3 1 -20 18 -32
50 -35 l35 -4 -35 -15 c-33 -15 -34 -16 -12 -23 14 -5 27 -2 37 8 8 8 25 18
37 22 20 6 20 7 3 17 -17 9 -17 11 -3 16 15 5 15 8 2 25 -8 11 -14 15 -14 9z"/>
<path d="M4627 2640 c-6 -22 17 -48 28 -31 5 9 -10 51 -19 51 -2 0 -6 -9 -9
-20z"/>
</g>
</svg>
