<svg width="1177" height="470" viewBox="0 0 1177 470" fill="none" xmlns="http://www.w3.org/2000/svg">
<path d="M269.467 166.939C261.126 192.077 253.18 216.939 244.372 241.493C237.637 260.266 230.856 279.151 222.215 297.08C210.748 320.872 190.276 334.313 164.614 338.795C151.094 341.157 137.147 341.758 123.381 341.897C84.386 342.29 45.3846 342.034 6.38579 342.034C4.56699 342.034 2.74819 342.034 0 342.034C38.0748 227.798 75.9772 114.079 113.987 0.0373444C137.642 0.0373444 161.458 -0.0711952 185.272 0.0818848C197.697 0.161745 210.161 0.174887 222.531 1.16604C238.557 2.45014 254.751 2.54904 270.305 7.89904C288.165 14.0422 298.812 25.4448 301.732 44.6117C303.457 55.9414 301.038 66.4642 297.951 76.749C288.927 106.815 279.041 136.622 269.467 166.939ZM186.544 78.7118C186.523 79.0452 186.573 79.4024 186.471 79.7087C167.978 135.164 149.471 190.615 130.972 246.069C128.039 254.862 125.141 263.666 122.067 272.946C127.286 273.052 131.218 271.618 133.424 267.782C136.462 262.497 139.37 257.022 141.41 251.3C149.139 229.617 156.704 207.871 163.944 186.02C175.694 150.559 187.144 114.997 198.712 79.4758C201.566 70.7145 200.26 68.9131 190.788 69.0718C190.475 69.0771 190.166 69.2505 189.859 69.3567C188.906 72.2474 187.952 75.1381 186.544 78.7118Z" fill="#042363"/>
<path d="M592.466 219.942C603.827 185.341 615.162 151.148 626.545 116.813C619.611 114.757 616.341 117.572 614.444 122.527C609.73 134.839 604.75 147.068 600.556 159.559C580.625 218.935 560.942 278.394 541.027 337.775C540.459 339.469 538.302 341.843 536.87 341.854C506.233 342.09 475.593 342.034 444.748 342.034C452.441 318.706 459.982 295.585 467.69 272.519C490.91 203.036 514.202 133.576 537.424 64.0933C538.09 62.1013 538.067 59.9937 541.103 59.9994C572.08 60.0584 603.057 60.0355 634.644 60.0355C633.836 63.0736 633.126 65.7441 632.41 68.4363C640.435 65.1874 648.066 61.5417 656.046 58.9879C670.911 54.231 686.069 53.8897 700.884 59.1246C713.412 63.5516 720.792 72.6564 723.594 85.8498C726.05 97.4144 723.204 108.34 719.872 118.924C706.623 160.997 692.843 202.904 679.1 244.82C669.017 275.572 658.592 306.212 648.575 336.986C647.255 341.039 645.45 342.162 641.328 342.134C613.504 341.943 585.678 342.034 557.853 342.034C556.206 342.034 554.558 342.034 552.431 342.034C552.642 340.467 552.616 339.184 552.998 338.036C565.938 299.078 578.917 260.132 591.902 221.189C592.004 220.883 592.258 220.629 592.466 219.942Z" fill="#042363"/>
<path d="M252.489 270.003C259.594 246.488 266.405 223.313 273.887 200.356C280.368 180.47 287.046 160.609 294.673 141.143C302.679 120.713 313.311 101.615 330.194 86.9224C346.315 72.8929 364.626 62.83 385.884 59.1192C396.464 57.2724 407.239 55.0579 417.871 55.3143C438.677 55.8162 459.449 57.5737 477.156 70.9168C488.249 79.2753 494.927 90.0017 497.513 103.533C500.459 118.953 497.448 133.759 492.764 148.286C482.833 179.085 472.869 209.878 462.387 240.492C456.289 258.302 450.051 276.219 439.404 291.975C431.168 304.163 420.664 314.286 408.965 323.307C392.334 336.132 373.252 343.172 352.92 345.752C329.731 348.694 306.199 348.988 283.531 341.86C265.363 336.146 253.379 324.281 250.368 304.45C248.607 292.849 249.791 281.65 252.489 270.003ZM373.441 223.351C373.462 223.019 373.411 222.663 373.513 222.358C382.977 193.947 392.496 165.555 401.896 137.123C404.137 130.345 405.979 123.436 407.996 116.617C402.096 114.934 398.719 116.804 396.719 121.329C394.579 126.169 392.218 130.946 390.521 135.943C379.128 169.478 367.8 203.036 356.633 236.648C351.159 253.126 346.076 269.733 340.779 286.4C348.181 287.589 350.917 286.73 353.199 280.516C360.077 261.792 366.432 242.876 373.441 223.351Z" fill="#042363"/>
<path d="M1034.48 283.11C1041.94 273.19 1044.55 261.558 1048.47 250.507C1051.91 240.793 1055.04 230.969 1058.56 221.287C1059.05 219.93 1061.01 218.178 1062.29 218.171C1090.95 218.003 1119.6 218.054 1148.26 218.079C1148.57 218.079 1148.88 218.276 1149.96 218.641C1148.14 224.218 1146.47 229.869 1144.47 235.403C1139.67 248.717 1135.18 262.17 1129.7 275.209C1122.48 292.418 1110.31 305.916 1096.21 318.001C1083.06 329.275 1068.49 337.761 1051.83 342.103C1042.3 344.586 1032.4 346.302 1022.58 346.812C1010.88 347.421 998.942 347.455 987.385 345.79C967.933 342.988 949.516 336.771 938.78 318.487C935.135 312.28 932.855 304.849 931.678 297.693C928.037 275.547 936.286 255.13 942.734 234.686C951.449 207.057 961.207 179.757 970.43 152.287C976.852 133.157 985.238 114.872 998.073 99.3214C1009.34 85.6527 1023.2 74.8476 1039.91 67.693C1053.59 61.8328 1067.66 57.5745 1082.28 56.3133C1094.08 55.2954 1106.11 56.4051 1118 57.0969C1132.04 57.9136 1144.91 62.5506 1156.19 71.0331C1168.37 80.2012 1175.2 92.3164 1176.58 107.738C1178.27 126.612 1173.9 144.473 1168.46 162.175C1163.73 177.559 1158.35 192.745 1153.65 208.138C1152.65 211.405 1151.29 212.095 1148.25 212.087C1115.59 212.002 1082.94 212.11 1050.29 211.93C1046.53 211.91 1044.74 212.965 1043.61 216.504C1037.32 236.129 1030.81 255.683 1024.48 275.297C1023.29 278.974 1022.6 282.81 1021.64 286.704C1026.54 287.699 1030.82 286.967 1034.48 283.11ZM1074.95 125.072C1071.29 135.158 1067.63 145.244 1063.79 155.804C1068.42 155.804 1072.19 155.804 1076.42 155.804C1080.32 142.84 1084.26 129.75 1088.28 116.408C1079.46 115.721 1079.46 115.721 1074.95 125.072Z" fill="#042363"/>
<path d="M930.516 192.126C920.389 223.844 909.032 254.759 899.649 287.019C908.639 287.019 916.425 287.019 924.99 287.019C922.449 294.512 920.068 301.464 917.735 308.433C914.31 318.662 911.002 328.931 907.409 339.101C906.971 340.34 905.094 341.9 903.873 341.91C882.884 342.082 861.875 342.565 840.913 341.807C830.541 341.431 820.148 339.673 811.491 332.195C804.921 326.519 798.855 311.817 800.809 303.263C810.265 261.866 826.285 222.542 838.981 182.169C844.773 163.754 851.296 145.569 857.403 127.252C858.053 125.3 858.134 123.159 858.503 120.965C853.208 120.965 847.558 120.965 841.378 120.965C845.97 107.138 850.443 93.6124 854.959 80.1008C856.493 75.5107 856.871 69.2493 860.085 66.8701C863.244 64.5318 869.336 65.9975 874.135 66.0938C876.913 66.1495 877.985 65.2327 878.851 62.4682C882.508 50.7945 886.61 39.2608 890.446 27.642C891.153 25.5022 891.69 23.9619 894.553 23.9715C925.028 24.0736 955.504 24.0349 986.613 24.0349C981.918 38.2122 977.346 52.0207 972.657 66.1828C980.388 66.1828 987.829 66.1828 995.503 66.1828C989.738 83.7895 984.153 101.079 978.3 118.278C977.871 119.536 975.538 120.802 974.01 120.91C969.202 121.248 964.325 121.373 959.535 120.934C955.216 120.538 953.679 122.303 952.41 126.212C945.299 148.105 937.865 169.893 930.516 192.126Z" fill="#042363"/>
<path d="M794.468 246.939C786.126 272.073 777.817 296.8 769.489 321.522C767.534 327.323 765.64 333.15 763.435 338.856C762.935 340.149 761.261 341.895 760.119 341.901C728.646 342.066 697.172 342.033 665 342.033C696.422 247.757 727.667 154.013 758.92 60.2464C791.396 60.2464 823.826 60.2464 856.588 60.2464C835.825 122.535 815.159 184.533 794.468 246.939Z" fill="#042363"/>
<path d="M853.214 54.9074C854.521 54.9005 856.468 53.3481 857.003 52.0623C858.349 48.8301 859.425 45.4877 860.501 42.1459V42.144L860.502 42.1428C860.879 40.9711 861.256 39.7989 861.645 38.632C862.737 35.3553 863.828 32.0783 864.92 28.7975H807.754L762.492 55.0311C767.247 55.0311 771.998 55.032 776.746 55.0329H776.748C802.301 55.0377 827.758 55.0425 853.214 54.9074Z" fill="#FF0000"/>
<path d="M779.865 3.03464C776.965 11.6569 774.136 20.0651 771.092 28.7975C768.1 37.7003 765.324 46.279 762.493 55.028L762.492 55.0311L807.754 28.7975L779.865 3.03464Z" fill="#FF0000"/>
<path d="M779.865 3.03464C776.965 11.6569 774.136 20.0651 771.092 28.7975C768.1 37.7003 765.324 46.279 762.493 55.028L762.492 55.0311L807.754 28.7975L779.865 3.03464Z" fill="#E2CACA" fill-opacity="0.2"/>
<path d="M779.865 3.03464C776.965 11.6569 774.136 20.0651 771.092 28.7975C768.1 37.7003 765.324 46.279 762.493 55.028L762.492 55.0311L807.754 28.7975L779.865 3.03464Z" fill="#042363"/>
<path d="M780.257 2.03464H874.879L874.441 3.35013C873.312 6.74463 872.187 10.1259 871.065 13.4966C869.327 18.7213 867.597 23.9226 865.869 29.1137L865.73 29.5317C864.685 32.6728 863.639 35.8102 862.594 38.9477C862.207 40.1089 861.831 41.2771 861.454 42.4497C860.38 45.7849 859.291 49.1697 857.927 52.4468C857.568 53.3092 856.803 54.1481 856.007 54.7583C855.228 55.3548 854.199 55.9024 853.22 55.9077C834.125 56.009 815.03 56.0317 795.896 56.0346L776.748 56.0327C772.089 56.0318 767.425 56.0308 762.76 56.0307H761.117L761.66 54.3569C764.45 45.7343 767.191 37.2644 770.143 28.479C773.113 19.9599 775.882 11.7379 778.711 3.32964L779.147 2.03464H780.257Z" stroke="#042363" stroke-width="2" stroke-miterlimit="10"/>
<path d="M148.9 447L147.5 455H103L91.2 442L99 398L115.3 385H159.8L158.4 393H117.9L108 401L101.3 439L108.4 447H148.9ZM137.8 370.8L146.9 361.5H155.4L141.3 376.5H132.3L123.4 361.5H131.9L137.8 370.8ZM169.784 405H178.784L169.984 455H160.984L169.784 405ZM180.384 395.5H171.384L173.484 384H182.484L180.384 395.5ZM203.661 425.5H225.161L233.961 435L232.061 445.5L219.961 455H184.461L185.861 447H217.361L223.661 442L224.361 438.5L219.661 433.5H198.161L189.361 424L190.961 415L203.761 405H236.261L234.861 413H206.361L199.361 418.5L198.961 420.5L203.661 425.5ZM244.404 413L245.804 405H255.804L258.104 392H267.104L264.804 405H279.804L278.404 413H263.404L258.604 440L264.904 447H276.904L275.504 455H259.504L249.004 443.5L254.404 413H244.404ZM289.908 415.5L304.408 404H329.408L339.908 415.5L334.808 444.5L320.308 456H295.308L284.808 444.5L289.908 415.5ZM330.308 419L324.008 412H307.008L298.308 419L294.408 441L300.708 448H317.708L326.408 441L330.308 419ZM348.896 413L350.296 405H360.296L362.596 392H371.596L369.296 405H384.296L382.896 413H367.896L363.096 440L369.396 447H381.396L379.996 455H363.996L353.496 443.5L358.896 413H348.896ZM426.4 441L427.8 433H403.8L397.4 438L396.7 442L401.4 447H418.9L426.4 441ZM427 449L419.5 455H396L387.1 445.5L389.1 434.5L401.2 425H429.2L430.4 418.5L425.4 413H399.4L400.8 405H430.8L440 415L433 455H427V449ZM527.504 412L489.404 447H522.404L521.004 455H476.004L477.204 448L515.404 413H484.404L485.804 405H528.804L527.504 412ZM569.857 441L571.257 433H547.257L540.857 438L540.157 442L544.857 447H562.357L569.857 441ZM570.457 449L562.957 455H539.457L530.557 445.5L532.557 434.5L544.657 425H572.657L573.857 418.5L568.857 413H542.857L544.257 405H574.257L583.457 415L576.457 455H570.457V449ZM602.03 440L608.33 447H635.33L633.93 455H602.93L592.43 443.5L597.13 416.5L611.73 405H642.73L641.33 413H614.33L605.53 420L602.03 440ZM627.93 390.8L637.03 381.5H645.53L631.43 396.5H622.43L613.53 381.5H622.03L627.93 390.8ZM654.734 405H663.734L654.934 455H645.934L654.734 405ZM667.134 380H677.634L662.934 398H656.934L667.134 380ZM685.734 405L685.634 411L693.234 405H716.234L725.834 415.5L718.934 455H709.934L716.234 419L710.834 413H693.834L686.234 419L679.934 455H670.934L679.734 405H685.734ZM771.81 441L773.21 433H749.21L742.81 438L742.11 442L746.81 447H764.31L771.81 441ZM772.41 449L764.91 455H741.41L732.51 445.5L734.51 434.5L746.61 425H774.61L775.81 418.5L770.81 413H744.81L746.21 405H776.21L785.41 415L778.41 455H772.41V449ZM775.11 380H785.61L770.91 398H764.91L775.11 380ZM867.914 455V449L860.414 455H837.414L827.714 444.5L834.714 405H843.714L837.314 441L842.814 447H859.814L867.314 441L873.714 405H882.714L873.914 455H867.914ZM930.183 405L940.483 445.5L965.183 405H974.683L944.383 455H933.383L920.683 405H930.183ZM1011.26 441L1012.66 433H988.663L982.263 438L981.563 442L986.263 447H1003.76L1011.26 441ZM1011.86 449L1004.36 455H980.863L971.963 445.5L973.963 434.5L986.063 425H1014.06L1015.26 418.5L1010.26 413H984.263L985.663 405H1015.66L1024.86 415L1017.86 455H1011.86V449ZM1014.56 380H1025.06L1010.36 398H1004.36L1014.56 380ZM1050.54 425.5H1072.04L1080.84 435L1078.94 445.5L1066.84 455H1031.34L1032.74 447H1064.24L1070.54 442L1071.24 438.5L1066.54 433.5H1045.04L1036.24 424L1037.84 415L1050.64 405H1083.14L1081.74 413H1053.24L1046.24 418.5L1045.84 420.5L1050.54 425.5Z" fill="#042363"/>
</svg>
