<svg width="5341" height="938" viewBox="0 0 5341 938" fill="none" xmlns="http://www.w3.org/2000/svg">
<path d="M4906 845C4906 848.314 4903.31 851 4900 851C4896.69 851 4894 848.314 4894 845C4894 841.686 4896.69 839 4900 839C4903.31 839 4906 841.686 4906 845Z" fill="#231F20"/>
<path d="M3970.04 854.408C3964.38 873.76 3959.11 891.761 3953.64 910.47C3950.04 910.639 3946.54 910.804 3942.39 911C3935.32 888.511 3929.62 866.029 3923 843.152H3932.72C3938.34 861.153 3942.97 879.687 3948.4 899.408C3954.25 879.712 3959.68 861.417 3965.14 843H3976.1C3981.69 861.414 3987.4 880.216 3993.28 899.584C3998.42 880.612 4003.45 862.042 4008.58 843.117H4017C4015.43 850.786 4013.38 858.046 4011.49 865.365C4009.54 872.881 4007.2 880.301 4005.12 887.784C4003.04 895.237 4001.06 902.717 3998.95 910.474H3986.92C3981.45 892.299 3975.93 873.967 3970.04 854.408Z" fill="#231F20"/>
<path d="M5166.9 876.675C5166.72 866.734 5158.43 859.116 5148.46 860.083C5141.35 860.772 5136.85 864.717 5132.24 869.897C5123.64 856.899 5108.07 857.456 5100.87 868.915C5100.65 866.488 5100.42 864.056 5100.16 861.183L5083 862.407V866.761C5085.91 867.093 5088.37 867.376 5091.64 867.75C5091.64 867.651 5091.64 867.85 5091.64 867.75L5092.03 867.824V911H5100.8C5100.8 903.597 5100.48 896.754 5100.92 889.959C5101.2 885.495 5101.63 880.719 5103.59 876.725C5105.65 872.524 5108.8 868.766 5113.37 868.194C5119.6 867.413 5125.69 871.703 5125.96 877.934C5125.96 877.982 5125.97 878.031 5125.97 878.081C5126.16 883.674 5125.95 889.275 5125.95 894.872C5125.95 900.15 5125.95 905.428 5125.95 911H5135.3V903.836C5135.3 897.476 5135.27 891.115 5135.31 884.755C5135.35 878.501 5136.93 872.927 5142.16 869.673C5144.81 868.024 5148.29 866.787 5152.17 868.194C5156.19 869.653 5157.61 872.524 5157.77 876.648C5158.13 886.053 5157.84 895.473 5157.92 904.885C5157.93 906.814 5157.82 908.926 5157.98 911H5166.92C5166.92 899.851 5167.11 887.903 5166.9 876.675Z" fill="#231F20"/>
<path d="M4147.55 896.453C4145.01 902.2 4140.73 905.953 4133.85 905.567C4130.34 905.371 4126.83 905.32 4122.64 905.181C4122.66 894.628 4120.67 884.745 4125.49 875.31C4127.18 872.009 4129.31 869.303 4132.84 867.838C4138.99 865.283 4145.8 867.86 4148 874.062C4150.63 881.504 4150.77 889.156 4147.55 896.453ZM4155.17 867.822C4152.14 862.425 4143.69 859.477 4137.94 860.077C4131.41 860.76 4126.33 863.754 4122.72 869.873C4122.29 866.631 4121.94 864.026 4121.57 861.215H4105V866.507C4107.66 866.953 4110.2 867.38 4113.24 867.888V937.732C4116.8 937.719 4119.52 938.907 4122.6 936.381V912.024C4125.51 912.403 4127.25 912.818 4128.99 912.823C4136.53 912.848 4143.62 911.761 4149.9 906.775C4159.74 898.959 4161.77 879.595 4155.17 867.822Z" fill="#231F20"/>
<path d="M4509.6 861.04H4519C4517.73 864.841 4516.78 868.161 4515.53 871.36C4509 887.971 4502.39 904.551 4495.81 921.144C4495.72 921.381 4495.7 921.648 4495.6 921.882C4490.41 934.172 4484.87 940.204 4468 937.266C4468.46 935.013 4468.91 932.766 4469.36 930.565C4473.57 930.344 4477.13 930.158 4480.31 929.991C4485.91 924.903 4486.63 923.618 4490.6 911.8C4484.14 895.11 4477.63 878.293 4470.93 861H4481.23C4485.84 873.517 4490.46 886.083 4495.53 899.87C4500.45 886.295 4504.98 873.789 4509.6 861.04Z" fill="#231F20"/>
<path d="M4635.4 904.878H4635.24V904.847C4635.22 904.845 4635.21 904.842 4635.2 904.84C4634.64 889.993 4635.44 875.526 4634.73 861H4625.79C4625.79 863.977 4625.82 866.517 4625.78 869.056C4625.68 876.071 4625.5 883.086 4625.45 890.102C4625.42 894.573 4623.39 898.01 4620.39 901.073C4616.71 904.838 4612.49 907.085 4607.19 905.198C4601.97 903.342 4601.92 898.64 4601.88 894.173C4601.79 885.07 4602 870.104 4601.94 861L4584.01 861.805C4584.13 863.277 4583.93 864.979 4584.03 866.313C4586.98 866.799 4589.44 867.205 4592.62 867.731C4592.62 870.629 4592.61 873.169 4592.62 875.709C4592.65 883.252 4592.51 890.8 4592.76 898.335C4593.11 908.825 4599.91 914.044 4610.19 912.826C4617.54 911.957 4622.35 907.828 4626.6 901.519C4626.81 905.311 4626.97 908.328 4627.15 911.516H4643.74C4643.85 909.482 4643.92 908.067 4644 906.504C4640.95 905.926 4638.32 905.431 4635.4 904.878Z" fill="#231F20"/>
<path d="M5025.91 867.94H5025.99V911H5035.35C5035.38 907.467 5035.43 886.048 5035.61 882.521C5035.86 877.751 5039.11 872.472 5043.62 869.234C5049.65 864.908 5059.66 866.23 5059.55 876.695C5059.49 882.166 5059.51 905.527 5059.54 911H5068.99C5069.01 904.952 5069 881.017 5068.87 874.972C5068.63 863.816 5061.64 858.699 5050.29 860.281C5043.7 861.201 5039.53 864.174 5034.44 870.979C5034.23 867.344 5034.05 864.382 5033.88 861.443L5017 862.316V866.508C5019.85 866.899 5022.36 867.242 5025.91 867.729C5025.91 867.8 5025.91 867.868 5025.91 867.94Z" fill="#231F20"/>
<path d="M4851.52 911C4845.04 894.757 4838.6 878.64 4832 862.099C4835.26 860.346 4838.46 861.128 4842.09 861.492C4846.8 874.227 4851.51 886.93 4856.64 900.765C4861.78 887.277 4866.64 874.538 4871.61 861.489H4881C4875.01 878.646 4867.77 894.597 4861.23 911H4851.52Z" fill="#231F20"/>
<path d="M5329.7 904.314C5321.24 907.267 5315.9 903.491 5316.28 893.946C5316.3 893.502 5316.28 890.16 5316.29 889.714L5316.25 884.366V867.805H5329.34C5330.22 867.761 5331.1 867.715 5332 867.67C5331.74 865.3 5331.56 863.694 5331.31 861.443L5316.4 861.06C5316.48 854.703 5316.53 849.478 5316.53 843C5313.66 843.952 5309.63 844.91 5306.47 845.956V861.329C5302.66 861.63 5299.59 861.871 5296 862.155C5296.12 864.173 5296.21 865.772 5296.32 867.568C5299.85 867.924 5302.92 868.233 5306.87 868.631C5306.87 871.295 5306.87 873.748 5306.87 876.2C5306.87 883.012 5306.66 889.831 5306.94 896.633C5307.17 902.412 5307.45 908.388 5313.46 911.347C5319.15 913.711 5325.8 913.532 5331.68 910.86L5331.82 903.21C5331.24 903.613 5330.08 904.182 5329.7 904.314Z" fill="#231F20"/>
<path d="M4895.71 867.26C4892.36 866.92 4890.17 866.698 4887.49 866.426C4887.34 864.715 4887.19 863.128 4887 861H4904V911H4895.71V867.26Z" fill="#231F20"/>
<path d="M4438.76 904.314C4430.54 907.267 4425.35 903.491 4425.72 893.946C4425.74 893.502 4425.71 890.16 4425.73 889.714L4425.69 884.366V867.805H4438.42C4439.27 867.761 4440.12 867.715 4441 867.67C4440.75 865.3 4440.57 863.694 4440.33 861.443L4425.84 861.06C4425.91 854.703 4425.96 849.477 4425.96 843C4423.17 843.952 4419.25 844.91 4416.18 845.956V861.329C4412.47 861.63 4409.49 861.871 4406 862.155C4406.11 864.173 4406.2 865.772 4406.31 867.568C4409.74 867.924 4412.73 868.233 4416.57 868.631V876.2C4416.57 883.012 4416.37 889.831 4416.63 896.633C4416.86 902.412 4417.13 908.388 4422.97 911.347C4428.51 913.711 4434.97 913.532 4440.69 910.86L4440.82 903.21C4440.26 903.613 4439.13 904.182 4438.76 904.314Z" fill="#231F20"/>
<path d="M4297.76 904.314C4289.54 907.267 4284.35 903.491 4284.72 893.946C4284.74 893.502 4284.71 890.16 4284.73 889.714L4284.69 884.366V867.805H4297.42C4298.27 867.761 4299.12 867.715 4300 867.67C4299.75 865.3 4299.57 863.694 4299.33 861.443L4284.84 861.06C4284.91 854.703 4284.96 849.477 4284.96 843C4282.17 843.952 4278.25 844.91 4275.18 845.956V861.329C4271.47 861.63 4268.49 861.871 4265 862.155C4265.11 864.173 4265.2 865.772 4265.31 867.568C4268.96 867.744 4271.77 867.902 4275.63 867.891C4275.63 870.555 4275.57 873.748 4275.57 876.2C4275.57 883.012 4275.37 889.831 4275.63 896.633C4275.86 902.412 4276.13 908.388 4281.97 911.347C4287.51 913.711 4293.97 913.532 4299.69 910.86L4299.82 903.21C4299.26 903.613 4298.13 904.182 4297.76 904.314Z" fill="#231F20"/>
<path d="M5243.74 867.94H5243.82V911H5253C5253.02 907.467 5253.08 886.048 5253.26 882.521C5253.5 877.751 5256.68 872.472 5261.11 869.234C5267.02 864.908 5276.84 866.23 5276.73 876.695C5276.68 882.166 5276.69 905.527 5276.73 911H5285.99C5286.01 904.952 5286 881.017 5285.87 874.972C5285.64 863.816 5278.78 858.699 5267.65 860.281C5261.18 861.201 5257.09 864.174 5252.11 870.979C5251.9 867.344 5251.73 864.382 5251.56 861.443L5235 862.316V866.508C5237.79 866.899 5240.26 867.242 5243.74 867.729C5243.74 867.8 5243.74 867.868 5243.74 867.94Z" fill="#231F20"/>
<path d="M4778.74 867.939H4778.82V911H4788C4788.02 907.468 4788.08 886.048 4788.26 882.521C4788.5 877.751 4791.68 872.472 4796.11 869.233C4802.02 864.908 4811.84 866.229 4811.73 876.695C4811.68 882.166 4811.69 905.527 4811.73 911H4820.99C4821.01 904.952 4821 881.016 4820.87 874.971C4820.64 863.816 4813.78 858.699 4802.65 860.282C4796.19 861.201 4792.09 864.174 4787.1 870.978C4786.9 867.344 4786.73 864.381 4786.56 861.442L4770 862.316V866.508C4772.79 866.898 4775.26 867.242 4778.74 867.728C4778.74 867.8 4778.74 867.868 4778.74 867.939Z" fill="#231F20"/>
<path d="M4537.41 886.605C4537.41 897.707 4543.86 906.088 4552.95 906.088C4561.83 906.088 4568.49 897.812 4568.49 886.395C4568.49 877.806 4564.15 866.913 4553.16 866.913C4542.17 866.913 4537.41 876.97 4537.41 886.605ZM4578 886.082C4578 904.831 4564.89 913 4552.52 913C4538.68 913 4528 902.946 4528 886.919C4528 869.951 4539.2 860 4553.37 860C4568.06 860 4578 870.579 4578 886.082Z" fill="#231F20"/>
<path d="M4218.41 886.605C4218.41 897.707 4224.86 906.088 4233.95 906.088C4242.83 906.088 4249.49 897.812 4249.49 886.395C4249.49 877.806 4245.15 866.913 4234.16 866.913C4223.17 866.913 4218.41 876.97 4218.41 886.605ZM4259 886.082C4259 904.831 4245.89 913 4233.53 913C4219.68 913 4209 902.946 4209 886.919C4209 869.951 4220.2 860 4234.37 860C4249.06 860 4259 870.579 4259 886.082Z" fill="#231F20"/>
<path d="M4969.22 886.605C4969.22 897.707 4975.54 906.088 4984.45 906.088C4993.15 906.088 4999.68 897.812 4999.68 886.395C4999.68 877.806 4995.43 866.913 4984.66 866.913C4973.88 866.913 4969.22 876.97 4969.22 886.605ZM5009 886.082C5009 904.831 4996.15 913 4984.03 913C4970.46 913 4960 902.946 4960 886.919C4960 869.951 4970.98 860 4984.86 860C4999.26 860 5009 870.579 5009 886.082Z" fill="#231F20"/>
<path d="M4344.04 881.619C4344.15 875.743 4341.62 866.613 4331.19 866.613C4321.81 866.613 4317.7 875.219 4316.96 881.619H4344.04ZM4316.85 888.232C4317.06 900.72 4325.07 905.863 4334.35 905.863C4340.99 905.863 4344.99 904.708 4348.47 903.239L4350.05 909.851C4346.78 911.321 4341.2 913 4333.08 913C4317.38 913 4308 902.715 4308 887.391C4308 872.07 4317.06 860 4331.92 860C4348.57 860 4353 874.589 4353 883.93C4353 885.818 4352.79 887.286 4352.68 888.232H4316.85Z" fill="#231F20"/>
<path d="M4061.04 881.619C4061.15 875.743 4058.62 866.613 4048.19 866.613C4038.81 866.613 4034.7 875.219 4033.96 881.619H4061.04ZM4033.85 888.232C4034.06 900.72 4042.07 905.863 4051.35 905.863C4057.99 905.863 4061.99 904.708 4065.47 903.239L4067.05 909.851C4063.78 911.321 4058.2 913 4050.08 913C4034.38 913 4025 902.715 4025 887.391C4025 872.07 4034.06 860 4048.92 860C4065.57 860 4070 874.589 4070 883.93C4070 885.818 4069.79 887.286 4069.68 888.232H4033.85Z" fill="#231F20"/>
<path d="M4751.84 881.212C4751.95 875.446 4749.37 866.488 4738.7 866.488C4729.11 866.488 4724.91 874.931 4724.16 881.212H4751.84ZM4724.05 887.699C4724.26 899.952 4732.45 904.997 4741.93 904.997C4748.72 904.997 4752.81 903.865 4756.37 902.424L4757.98 908.911C4754.64 910.352 4748.93 912 4740.64 912C4724.59 912 4715 901.909 4715 886.875C4715 871.843 4724.26 860 4739.46 860C4756.48 860 4761 874.314 4761 883.478C4761 885.33 4760.78 886.772 4760.68 887.699H4724.05Z" fill="#231F20"/>
<path d="M5216.24 881.212C5216.34 875.446 5213.87 866.488 5203.67 866.488C5194.5 866.488 5190.48 874.931 5189.76 881.212H5216.24ZM5189.66 887.699C5189.86 899.952 5197.69 904.997 5206.76 904.997C5213.25 904.997 5217.17 903.865 5220.57 902.424L5222.12 908.911C5218.92 910.352 5213.46 912 5205.52 912C5190.17 912 5181 901.909 5181 886.875C5181 871.843 5189.86 860 5204.39 860C5220.67 860 5225 874.314 5225 883.478C5225 885.33 5224.79 886.772 5224.69 887.699H5189.66Z" fill="#231F20"/>
<path d="M4398.8 910.11C4396.51 911.348 4391.44 913 4384.97 913C4370.45 913 4361 902.786 4361 887.517C4361 872.142 4371.15 861 4386.86 861C4392.04 861 4396.61 862.341 4399 863.579L4397.01 870.595C4394.92 869.357 4391.64 868.221 4386.86 868.221C4375.82 868.221 4369.85 876.682 4369.85 887.102C4369.85 898.658 4377.02 905.778 4386.57 905.778C4391.54 905.778 4394.82 904.436 4397.31 903.302L4398.8 910.11Z" fill="#231F20"/>
<path d="M4925.28 911H4934.73C4934.71 900.823 4934.7 891.055 4934.79 885.647C4934.85 881.765 4935.6 878.174 4937.4 875.063C4940.18 870.29 4945.72 867.57 4951.41 867.88L4951.58 867.891C4951.73 865.109 4951.86 862.73 4952 860.1C4943.24 859.271 4938.24 863.681 4933.42 870.833C4933.54 866.73 4933.42 864.179 4933.61 861.212L4919.02 861.959L4919 861.974V866.622C4920.98 866.821 4922.55 867.033 4925.28 867.28V911Z" fill="#231F20"/>
<path d="M4657.28 911H4666.73C4666.71 900.823 4666.7 891.055 4666.79 885.647C4666.85 881.765 4667.6 878.174 4669.4 875.063C4672.18 870.29 4677.72 867.57 4683.41 867.88L4683.58 867.891C4683.73 865.109 4683.86 862.73 4684 860.1C4675.23 859.271 4670.24 863.681 4665.42 870.833C4665.54 866.73 4665.42 864.179 4665.61 861.212L4651.02 861.959L4651 861.974V866.622C4652.98 866.821 4654.55 867.033 4657.28 867.28V911Z" fill="#231F20"/>
<path d="M4176.28 911H4185.73C4185.71 900.823 4185.7 891.055 4185.79 885.647C4185.85 881.765 4186.6 878.174 4188.41 875.063C4191.18 870.29 4196.72 867.57 4202.41 867.88L4202.58 867.891C4202.73 865.109 4202.86 862.73 4203 860.1C4194.24 859.271 4189.24 863.681 4184.42 870.833C4184.54 866.73 4184.42 864.179 4184.61 861.212L4170.02 861.959L4170 861.974V866.622C4171.98 866.821 4173.55 867.033 4176.28 867.28V911Z" fill="#231F20"/>
<path d="M3751.37 477.34C3751.37 506.806 3727.48 530.694 3698.02 530.694C3668.55 530.694 3644.66 506.806 3644.66 477.34C3644.66 447.874 3668.55 423.987 3698.02 423.987C3727.48 423.987 3751.37 447.874 3751.37 477.34Z" fill="#86C040"/>
<path d="M3509.95 477.34C3509.95 506.806 3486.06 530.694 3456.59 530.694C3427.13 530.694 3403.24 506.806 3403.24 477.34C3403.24 447.874 3427.13 423.987 3456.59 423.987C3486.06 423.987 3509.95 447.874 3509.95 477.34Z" fill="#86C040"/>
<path d="M3466.71 590.91C3466.71 620.376 3442.82 644.264 3413.35 644.264C3383.89 644.264 3360 620.376 3360 590.91C3360 561.444 3383.89 537.556 3413.35 537.556C3442.82 537.556 3466.71 561.444 3466.71 590.91Z" fill="#86C040"/>
<path d="M3796.16 590.91C3796.16 620.376 3772.28 644.264 3742.81 644.264C3713.34 644.264 3689.46 620.376 3689.46 590.91C3689.46 561.444 3713.34 537.556 3742.81 537.556C3772.28 537.556 3796.16 561.444 3796.16 590.91Z" fill="#86C040"/>
<path d="M3652 590.91C3652 631.793 3618.86 664.938 3577.97 664.938C3537.09 664.938 3503.94 631.793 3503.94 590.91C3503.94 550.026 3537.09 516.882 3577.97 516.882C3618.86 516.882 3652 550.026 3652 590.91Z" fill="#86C040"/>
<path d="M3509.95 707.404C3509.95 736.87 3486.06 760.758 3456.59 760.758C3427.13 760.758 3403.24 736.87 3403.24 707.404C3403.24 677.937 3427.13 654.05 3456.59 654.05C3486.06 654.05 3509.95 677.937 3509.95 707.404Z" fill="#86C040"/>
<path d="M3743.67 707.404C3743.67 736.87 3719.78 760.758 3690.32 760.758C3660.85 760.758 3636.96 736.87 3636.96 707.404C3636.96 677.937 3660.85 654.05 3690.32 654.05C3719.78 654.05 3743.67 677.937 3743.67 707.404Z" fill="#86C040"/>
<path d="M3631.32 759.897C3631.32 789.363 3607.44 813.25 3577.97 813.25C3548.51 813.25 3524.62 789.363 3524.62 759.897C3524.62 730.43 3548.51 706.543 3577.97 706.543C3607.44 706.543 3631.32 730.43 3631.32 759.897Z" fill="#86C040"/>
<path d="M3631.32 429.353C3631.32 458.819 3607.44 482.707 3577.97 482.707C3548.51 482.707 3524.62 458.819 3524.62 429.353C3524.62 399.887 3548.51 376 3577.97 376C3607.44 376 3631.32 399.887 3631.32 429.353Z" fill="#86C040"/>
<path d="M4398.32 506.791C4398.54 536.387 4397.94 564.349 4398.77 593.323C4412.21 593.448 4424.46 595.166 4436.49 592.261C4444.46 590.338 4452.76 588.22 4459.77 584.212C4474.35 575.884 4481.34 562.215 4480.45 545.621C4479.42 526.695 4469.52 513.71 4450.66 509.029C4433.98 504.889 4416.99 505.864 4398.32 506.791ZM4365.13 479.677C4384.2 479.563 4419.74 479.503 4438.8 479.675C4453.16 479.804 4467.23 482.394 4480.36 488.079C4501.76 497.346 4514.06 513.397 4515.11 537.379C4515.78 552.679 4514.31 567.174 4505.67 580.52C4494.85 597.254 4478.6 605.468 4460.3 610.553C4453.55 612.428 4446.46 613.092 4438.39 614.507C4469.6 652.6 4500.31 690.089 4532.69 729.613C4516.73 729.775 4503.15 729.79 4488.41 729.542C4459.89 693.343 4431.1 656.809 4402.31 620.275L4399.5 621.77V729.049H4365.13V479.677Z" fill="#231F20"/>
<path d="M4258.94 645.357C4243.15 602.059 4228.06 560.667 4212.67 518.463C4197.2 561.018 4182.04 602.719 4166.55 645.357H4258.94ZM4235.04 480.802C4257.58 540.107 4282.43 609.076 4304.89 668.414C4310.75 683.892 4316.62 699.366 4322.44 714.859C4324.07 719.188 4325.52 723.58 4327.43 729H4288.92C4281.99 710.37 4275.03 691.635 4267.94 672.551H4158.12C4151.27 690.839 4144.27 709.549 4137.01 728.967H4101.67C4132.71 645.667 4163.79 563.35 4194.95 480.802H4235.04Z" fill="#231F20"/>
<path d="M4855.96 606.43C4855.96 659.33 4886.51 706.72 4940.17 706.72C4994.22 706.72 5024.77 660.065 5024.77 603.859C5024.77 554.633 4997.35 503.201 4940.56 503.201C4884.16 503.201 4855.96 552.06 4855.96 606.43ZM5060.8 602.389C5060.8 687.618 5005.58 732.803 4938.21 732.803C4868.49 732.803 4819.54 682.108 4819.54 607.164C4819.54 528.549 4871.63 477.118 4942.13 477.118C5014.19 477.118 5060.8 528.917 5060.8 602.389Z" fill="#231F20"/>
<path d="M4769.89 603.003V715.459C4754.95 720.582 4725.44 729 4690.57 729C4651.48 729 4619.29 719.485 4594 696.429C4571.78 675.935 4557.98 642.998 4557.98 604.57C4558.37 531.01 4611.25 477.212 4697.85 477.212C4727.74 477.212 4758.78 485.086 4769.89 490.209L4761.84 516.193C4748.05 510.338 4723.14 503.928 4697.08 503.928C4634.24 503.928 4593.24 541.257 4593.24 603.107C4593.24 665.687 4632.71 702.65 4692.87 702.65C4714.71 702.65 4729.66 699.723 4737.32 696.064V603.21L4769.89 603.003Z" fill="#231F20"/>
<path d="M3931.02 691.137C3945.79 699.907 3967.38 707.214 3990.1 707.214C4023.81 707.214 4043.51 690.04 4043.51 665.194C4043.51 642.173 4029.87 629.018 3995.41 616.229C3953.74 601.978 3927.99 581.15 3927.99 546.437C3927.99 508.07 3960.94 479.568 4010.56 479.568C4036.69 479.568 4055.63 485.415 4066.99 491.627L4057.9 517.57C4049.57 513.185 4032.52 505.877 4009.42 505.877C3974.57 505.877 3961.32 525.975 3961.32 542.783C3961.32 565.803 3976.85 577.131 4012.07 590.285C4055.25 606.363 4077.21 626.46 4077.21 662.636C4077.21 700.637 4048.05 733.524 3987.83 733.524C3963.21 733.524 3936.32 726.581 3922.69 717.811L3931.02 691.137Z" fill="#231F20"/>
<path d="M103.5 305.1C99.7 305.1 96.6 304.2 94.2 302.4C91.8 300.6 89.9 297.9 88.5 294.3L6 105.6C4.6 102.2 4.2 99.4 4.8 97.2C5.4 94.8 6.7 92.9 8.7 91.5C10.9 90.1 13.4 89.4 16.2 89.4C20 89.4 22.8 90.3 24.6 92.1C26.6 93.7 28.2 96.1 29.4 99.3L108.6 283.2H99L177.9 99C179.3 96 181 93.7 183 92.1C185 90.3 187.8 89.4 191.4 89.4C194.2 89.4 196.5 90.1 198.3 91.5C200.3 92.9 201.5 94.8 201.9 97.2C202.5 99.6 202.1 102.4 200.7 105.6L118.2 294.3C116.8 297.9 114.9 300.6 112.5 302.4C110.3 304.2 107.3 305.1 103.5 305.1ZM253.833 359.1C250.833 359.1 248.433 358.3 246.633 356.7C244.833 355.1 243.733 352.9 243.333 350.1C243.133 347.5 243.633 344.8 244.833 342L265.533 295.5V306L207.933 172.2C206.733 169.2 206.333 166.4 206.733 163.8C207.133 161.2 208.333 159.1 210.333 157.5C212.333 155.9 215.133 155.1 218.733 155.1C221.933 155.1 224.433 155.8 226.233 157.2C228.033 158.6 229.633 161.1 231.033 164.7L280.233 285.3H272.133L321.933 164.7C323.533 161.1 325.233 158.6 327.033 157.2C328.833 155.8 331.433 155.1 334.833 155.1C338.033 155.1 340.433 155.9 342.033 157.5C343.833 159.1 344.833 161.2 345.033 163.8C345.433 166.2 345.033 168.9 343.833 171.9L267.033 349.5C265.433 353.1 263.633 355.6 261.633 357C259.833 358.4 257.233 359.1 253.833 359.1ZM285.933 136.2C284.533 138.2 282.833 139.4 280.833 139.8C278.833 140 276.933 139.7 275.133 138.9C273.333 137.9 272.033 136.5 271.233 134.7C270.433 132.9 270.633 130.8 271.833 128.4L297.033 79.5C298.433 76.7 300.233 74.9 302.433 74.1C304.633 73.3 306.833 73.2 309.033 73.8C311.433 74.2 313.433 75.2 315.033 76.8C316.633 78.4 317.533 80.3 317.733 82.5C318.133 84.7 317.533 87 315.933 89.4L285.933 136.2ZM387.534 305.1C383.534 305.1 380.534 304 378.534 301.8C376.534 299.6 375.534 296.5 375.534 292.5V101.7C375.534 97.7 376.534 94.7 378.534 92.7C380.534 90.5 383.534 89.4 387.534 89.4C391.334 89.4 394.334 90.5 396.534 92.7C398.734 94.7 399.834 97.7 399.834 101.7V189.6H395.934C400.134 178 406.934 169.3 416.334 163.5C425.934 157.5 436.934 154.5 449.334 154.5C460.934 154.5 470.534 156.6 478.134 160.8C485.934 165 491.734 171.4 495.534 180C499.334 188.4 501.234 199.1 501.234 212.1V292.5C501.234 296.5 500.134 299.6 497.934 301.8C495.934 304 493.034 305.1 489.234 305.1C485.234 305.1 482.134 304 479.934 301.8C477.934 299.6 476.934 296.5 476.934 292.5V213.6C476.934 200 474.234 190.1 468.834 183.9C463.634 177.5 455.234 174.3 443.634 174.3C430.234 174.3 419.534 178.5 411.534 186.9C403.734 195.1 399.834 206.1 399.834 219.9V292.5C399.834 300.9 395.734 305.1 387.534 305.1ZM558.342 305.1C554.342 305.1 551.242 304 549.042 301.8C547.042 299.6 546.042 296.5 546.042 292.5V167.4C546.042 163.4 547.042 160.4 549.042 158.4C551.042 156.2 553.942 155.1 557.742 155.1C561.542 155.1 564.442 156.2 566.442 158.4C568.642 160.4 569.742 163.4 569.742 167.4V191.7H566.742C569.942 179.9 576.042 170.8 585.042 164.4C594.042 158 605.142 154.6 618.342 154.2C621.342 154 623.742 154.7 625.542 156.3C627.342 157.7 628.342 160.2 628.542 163.8C628.742 167.2 627.942 169.9 626.142 171.9C624.342 173.9 621.542 175.1 617.742 175.5L612.942 176.1C599.342 177.3 588.842 181.7 581.442 189.3C574.242 196.7 570.642 206.9 570.642 219.9V292.5C570.642 296.5 569.542 299.6 567.342 301.8C565.342 304 562.342 305.1 558.342 305.1ZM697.997 305.7C687.997 305.7 678.997 303.8 670.997 300C663.197 296 656.997 290.6 652.397 283.8C647.797 277 645.497 269.4 645.497 261C645.497 250.2 648.197 241.7 653.597 235.5C659.197 229.3 668.297 224.9 680.897 222.3C693.697 219.7 711.097 218.4 733.097 218.4H746.597V234.3H733.397C717.197 234.3 704.397 235.1 694.997 236.7C685.797 238.1 679.297 240.6 675.497 244.2C671.897 247.8 670.097 252.9 670.097 259.5C670.097 267.7 672.897 274.4 678.497 279.6C684.297 284.8 692.097 287.4 701.897 287.4C709.897 287.4 716.897 285.5 722.897 281.7C729.097 277.9 733.897 272.7 737.297 266.1C740.897 259.5 742.697 251.9 742.697 243.3V209.1C742.697 196.7 740.197 187.8 735.197 182.4C730.197 176.8 721.997 174 710.597 174C703.597 174 696.597 174.9 689.597 176.7C682.597 178.5 675.197 181.4 667.397 185.4C664.597 186.8 662.197 187.3 660.197 186.9C658.197 186.3 656.597 185.2 655.397 183.6C654.197 182 653.497 180.2 653.297 178.2C653.097 176 653.497 173.9 654.497 171.9C655.697 169.9 657.497 168.3 659.897 167.1C668.697 162.7 677.397 159.5 685.997 157.5C694.597 155.5 702.797 154.5 710.597 154.5C723.197 154.5 733.597 156.6 741.797 160.8C749.997 164.8 756.097 171 760.097 179.4C764.097 187.6 766.097 198.2 766.097 211.2V292.5C766.097 296.5 765.097 299.6 763.097 301.8C761.297 304 758.597 305.1 754.997 305.1C751.197 305.1 748.297 304 746.297 301.8C744.297 299.6 743.297 296.5 743.297 292.5V269.1H745.997C744.397 276.7 741.297 283.2 736.697 288.6C732.297 294 726.797 298.2 720.197 301.2C713.597 304.2 706.197 305.7 697.997 305.7ZM866.679 305.7C853.679 305.7 842.279 302.6 832.479 296.4C822.879 290.2 815.379 281.5 809.979 270.3C804.779 258.9 802.179 245.5 802.179 230.1C802.179 214.5 804.779 201.1 809.979 189.9C815.379 178.5 822.879 169.8 832.479 163.8C842.279 157.6 853.679 154.5 866.679 154.5C879.879 154.5 891.179 157.8 900.579 164.4C909.979 171 916.279 179.9 919.479 191.1H916.179V101.7C916.179 97.7 917.179 94.7 919.179 92.7C921.379 90.5 924.479 89.4 928.479 89.4C932.279 89.4 935.179 90.5 937.179 92.7C939.379 94.7 940.479 97.7 940.479 101.7V292.5C940.479 296.5 939.479 299.6 937.479 301.8C935.479 304 932.479 305.1 928.479 305.1C924.679 305.1 921.679 304 919.479 301.8C917.479 299.6 916.479 296.5 916.479 292.5V264L919.779 268.2C916.579 279.6 910.179 288.7 900.579 295.5C891.179 302.3 879.879 305.7 866.679 305.7ZM871.779 286.2C880.779 286.2 888.679 284 895.479 279.6C902.279 275.2 907.479 268.8 911.079 260.4C914.879 252 916.779 241.9 916.779 230.1C916.779 211.9 912.679 198 904.479 188.4C896.479 178.8 885.579 174 871.779 174C862.579 174 854.579 176.2 847.779 180.6C841.179 184.8 835.979 191.1 832.179 199.5C828.579 207.7 826.779 217.9 826.779 230.1C826.779 248.1 830.879 262 839.079 271.8C847.279 281.4 858.179 286.2 871.779 286.2ZM998.081 305.1C994.081 305.1 991.081 304 989.081 301.8C987.081 299.6 986.081 296.5 986.081 292.5V167.4C986.081 163.4 987.081 160.4 989.081 158.4C991.081 156.2 993.981 155.1 997.781 155.1C1001.58 155.1 1004.48 156.2 1006.48 158.4C1008.68 160.4 1009.78 163.4 1009.78 167.4V193.2L1006.48 189.6C1010.68 178 1017.48 169.3 1026.88 163.5C1036.48 157.5 1047.48 154.5 1059.88 154.5C1071.48 154.5 1081.08 156.6 1088.68 160.8C1096.48 165 1102.28 171.4 1106.08 180C1109.88 188.4 1111.78 199.1 1111.78 212.1V292.5C1111.78 296.5 1110.68 299.6 1108.48 301.8C1106.48 304 1103.58 305.1 1099.78 305.1C1095.78 305.1 1092.68 304 1090.48 301.8C1088.48 299.6 1087.48 296.5 1087.48 292.5V213.6C1087.48 200 1084.78 190.1 1079.38 183.9C1074.18 177.5 1065.78 174.3 1054.18 174.3C1040.78 174.3 1030.08 178.5 1022.08 186.9C1014.28 195.1 1010.38 206.1 1010.38 219.9V292.5C1010.38 300.9 1006.28 305.1 998.081 305.1ZM1168.59 304.5C1164.59 304.5 1161.59 303.4 1159.59 301.2C1157.59 298.8 1156.59 295.5 1156.59 291.3V168.6C1156.59 164.4 1157.59 161.2 1159.59 159C1161.59 156.8 1164.59 155.7 1168.59 155.7C1172.39 155.7 1175.39 156.8 1177.59 159C1179.79 161.2 1180.89 164.4 1180.89 168.6V291.3C1180.89 295.5 1179.79 298.8 1177.59 301.2C1175.59 303.4 1172.59 304.5 1168.59 304.5ZM1178.49 136.2C1177.09 138.2 1175.39 139.4 1173.39 139.8C1171.39 140 1169.49 139.7 1167.69 138.9C1165.89 137.9 1164.59 136.5 1163.79 134.7C1162.99 132.9 1163.19 130.8 1164.39 128.4L1189.59 79.5C1190.99 76.7 1192.79 74.9 1194.99 74.1C1197.19 73.3 1199.39 73.2 1201.59 73.8C1203.99 74.2 1205.99 75.2 1207.59 76.8C1209.19 78.4 1210.09 80.3 1210.29 82.5C1210.69 84.7 1210.09 87 1208.49 89.4L1178.49 136.2ZM1359.16 305.7C1346.16 305.7 1334.76 302.6 1324.96 296.4C1315.36 290.2 1307.86 281.5 1302.46 270.3C1297.26 258.9 1294.66 245.5 1294.66 230.1C1294.66 214.5 1297.26 201.1 1302.46 189.9C1307.86 178.5 1315.36 169.8 1324.96 163.8C1334.76 157.6 1346.16 154.5 1359.16 154.5C1372.36 154.5 1383.66 157.8 1393.06 164.4C1402.46 171 1408.76 179.9 1411.96 191.1H1408.66V101.7C1408.66 97.7 1409.66 94.7 1411.66 92.7C1413.86 90.5 1416.96 89.4 1420.96 89.4C1424.76 89.4 1427.66 90.5 1429.66 92.7C1431.86 94.7 1432.96 97.7 1432.96 101.7V292.5C1432.96 296.5 1431.96 299.6 1429.96 301.8C1427.96 304 1424.96 305.1 1420.96 305.1C1417.16 305.1 1414.16 304 1411.96 301.8C1409.96 299.6 1408.96 296.5 1408.96 292.5V264L1412.26 268.2C1409.06 279.6 1402.66 288.7 1393.06 295.5C1383.66 302.3 1372.36 305.7 1359.16 305.7ZM1364.26 286.2C1373.26 286.2 1381.16 284 1387.96 279.6C1394.76 275.2 1399.96 268.8 1403.56 260.4C1407.36 252 1409.26 241.9 1409.26 230.1C1409.26 211.9 1405.16 198 1396.96 188.4C1388.96 178.8 1378.06 174 1364.26 174C1355.06 174 1347.06 176.2 1340.26 180.6C1333.66 184.8 1328.46 191.1 1324.66 199.5C1321.06 207.7 1319.26 217.9 1319.26 230.1C1319.26 248.1 1323.36 262 1331.56 271.8C1339.76 281.4 1350.66 286.2 1364.26 286.2ZM1490.56 304.5C1486.56 304.5 1483.56 303.4 1481.56 301.2C1479.56 298.8 1478.56 295.5 1478.56 291.3V168.6C1478.56 164.4 1479.56 161.2 1481.56 159C1483.56 156.8 1486.56 155.7 1490.56 155.7C1494.36 155.7 1497.36 156.8 1499.56 159C1501.76 161.2 1502.86 164.4 1502.86 168.6V291.3C1502.86 295.5 1501.76 298.8 1499.56 301.2C1497.56 303.4 1494.56 304.5 1490.56 304.5ZM1490.56 122.1C1485.56 122.1 1481.66 120.8 1478.86 118.2C1476.06 115.4 1474.66 111.7 1474.66 107.1C1474.66 102.3 1476.06 98.7 1478.86 96.3C1481.66 93.7 1485.56 92.4 1490.56 92.4C1495.76 92.4 1499.66 93.7 1502.26 96.3C1505.06 98.7 1506.46 102.3 1506.46 107.1C1506.46 111.7 1505.06 115.4 1502.26 118.2C1499.66 120.8 1495.76 122.1 1490.56 122.1ZM1597.49 305.7C1588.49 305.7 1579.39 304.6 1570.19 302.4C1561.19 300.2 1552.79 296.4 1544.99 291C1542.99 289.6 1541.59 288 1540.79 286.2C1539.99 284.2 1539.69 282.3 1539.89 280.5C1540.29 278.5 1541.09 276.8 1542.29 275.4C1543.69 274 1545.29 273.2 1547.09 273C1549.09 272.6 1551.29 273 1553.69 274.2C1561.49 279 1568.99 282.4 1576.19 284.4C1583.59 286.2 1590.89 287.1 1598.09 287.1C1609.49 287.1 1618.09 285 1623.89 280.8C1629.69 276.6 1632.59 270.9 1632.59 263.7C1632.59 258.1 1630.69 253.7 1626.89 250.5C1623.09 247.1 1617.09 244.5 1608.89 242.7L1581.59 236.7C1568.99 234.1 1559.59 229.6 1553.39 223.2C1547.39 216.8 1544.39 208.5 1544.39 198.3C1544.39 189.3 1546.69 181.6 1551.29 175.2C1556.09 168.6 1562.79 163.5 1571.39 159.9C1579.99 156.3 1589.99 154.5 1601.39 154.5C1610.19 154.5 1618.49 155.7 1626.29 158.1C1634.29 160.3 1641.49 163.9 1647.89 168.9C1649.89 170.3 1651.19 172 1651.79 174C1652.59 175.8 1652.69 177.7 1652.09 179.7C1651.69 181.5 1650.79 183.1 1649.39 184.5C1647.99 185.7 1646.29 186.4 1644.29 186.6C1642.29 186.8 1640.19 186.2 1637.99 184.8C1631.99 180.8 1625.89 177.9 1619.69 176.1C1613.49 174.1 1607.39 173.1 1601.39 173.1C1590.19 173.1 1581.69 175.3 1575.89 179.7C1570.09 184.1 1567.19 189.9 1567.19 197.1C1567.19 202.7 1568.99 207.3 1572.59 210.9C1576.19 214.5 1581.79 217.1 1589.39 218.7L1616.69 224.4C1629.69 227.2 1639.39 231.7 1645.79 237.9C1652.39 243.9 1655.69 252.1 1655.69 262.5C1655.69 275.7 1650.39 286.2 1639.79 294C1629.19 301.8 1615.09 305.7 1597.49 305.7ZM1749.76 305.7C1738.36 305.7 1728.76 303.7 1720.96 299.7C1713.36 295.5 1707.66 289.5 1703.86 281.7C1700.06 273.7 1698.16 264 1698.16 252.6V176.1H1678.06C1674.66 176.1 1672.06 175.3 1670.26 173.7C1668.46 171.9 1667.56 169.5 1667.56 166.5C1667.56 163.5 1668.46 161.2 1670.26 159.6C1672.06 158 1674.66 157.2 1678.06 157.2H1698.16V122.7C1698.16 118.7 1699.26 115.7 1701.46 113.7C1703.66 111.5 1706.66 110.4 1710.46 110.4C1714.26 110.4 1717.16 111.5 1719.16 113.7C1721.36 115.7 1722.46 118.7 1722.46 122.7V157.2H1760.26C1763.66 157.2 1766.26 158 1768.06 159.6C1769.86 161.2 1770.76 163.5 1770.76 166.5C1770.76 169.5 1769.86 171.9 1768.06 173.7C1766.26 175.3 1763.66 176.1 1760.26 176.1H1722.46V250.2C1722.46 261.6 1724.86 270.3 1729.66 276.3C1734.46 282.1 1742.26 285 1753.06 285C1756.86 285 1760.06 284.6 1762.66 283.8C1765.46 283 1767.76 282.6 1769.56 282.6C1771.36 282.4 1772.86 283 1774.06 284.4C1775.26 285.8 1775.86 288.2 1775.86 291.6C1775.86 294 1775.36 296.2 1774.36 298.2C1773.56 300.2 1772.06 301.6 1769.86 302.4C1767.46 303.2 1764.26 303.9 1760.26 304.5C1756.46 305.3 1752.96 305.7 1749.76 305.7ZM1808.44 305.1C1804.44 305.1 1801.34 304 1799.14 301.8C1797.14 299.6 1796.14 296.5 1796.14 292.5V167.4C1796.14 163.4 1797.14 160.4 1799.14 158.4C1801.14 156.2 1804.04 155.1 1807.84 155.1C1811.64 155.1 1814.54 156.2 1816.54 158.4C1818.74 160.4 1819.84 163.4 1819.84 167.4V191.7H1816.84C1820.04 179.9 1826.14 170.8 1835.14 164.4C1844.14 158 1855.24 154.6 1868.44 154.2C1871.44 154 1873.84 154.7 1875.64 156.3C1877.44 157.7 1878.44 160.2 1878.64 163.8C1878.84 167.2 1878.04 169.9 1876.24 171.9C1874.44 173.9 1871.64 175.1 1867.84 175.5L1863.04 176.1C1849.44 177.3 1838.94 181.7 1831.54 189.3C1824.34 196.7 1820.74 206.9 1820.74 219.9V292.5C1820.74 296.5 1819.64 299.6 1817.44 301.8C1815.44 304 1812.44 305.1 1808.44 305.1ZM1915.66 304.5C1911.66 304.5 1908.66 303.4 1906.66 301.2C1904.66 298.8 1903.66 295.5 1903.66 291.3V168.6C1903.66 164.4 1904.66 161.2 1906.66 159C1908.66 156.8 1911.66 155.7 1915.66 155.7C1919.46 155.7 1922.46 156.8 1924.66 159C1926.86 161.2 1927.96 164.4 1927.96 168.6V291.3C1927.96 295.5 1926.86 298.8 1924.66 301.2C1922.66 303.4 1919.66 304.5 1915.66 304.5ZM1915.66 122.1C1910.66 122.1 1906.76 120.8 1903.96 118.2C1901.16 115.4 1899.76 111.7 1899.76 107.1C1899.76 102.3 1901.16 98.7 1903.96 96.3C1906.76 93.7 1910.66 92.4 1915.66 92.4C1920.86 92.4 1924.76 93.7 1927.36 96.3C1930.16 98.7 1931.56 102.3 1931.56 107.1C1931.56 111.7 1930.16 115.4 1927.36 118.2C1924.76 120.8 1920.86 122.1 1915.66 122.1ZM2047.19 305.7C2033.99 305.7 2022.59 302.3 2012.99 295.5C2003.59 288.7 1997.29 279.6 1994.09 268.2L1997.39 264.9V292.5C1997.39 296.5 1996.29 299.6 1994.09 301.8C1992.09 304 1989.19 305.1 1985.39 305.1C1981.39 305.1 1978.39 304 1976.39 301.8C1974.39 299.6 1973.39 296.5 1973.39 292.5V101.7C1973.39 97.7 1974.39 94.7 1976.39 92.7C1978.39 90.5 1981.39 89.4 1985.39 89.4C1989.19 89.4 1992.19 90.5 1994.39 92.7C1996.59 94.7 1997.69 97.7 1997.69 101.7V191.1H1994.09C1997.49 179.9 2003.89 171 2013.29 164.4C2022.69 157.8 2033.99 154.5 2047.19 154.5C2060.39 154.5 2071.79 157.6 2081.39 163.8C2090.99 169.8 2098.39 178.5 2103.59 189.9C2108.99 201.1 2111.69 214.5 2111.69 230.1C2111.69 245.5 2108.99 258.9 2103.59 270.3C2098.39 281.5 2090.89 290.2 2081.09 296.4C2071.49 302.6 2060.19 305.7 2047.19 305.7ZM2042.09 286.2C2051.29 286.2 2059.19 284 2065.79 279.6C2072.59 275.2 2077.79 268.8 2081.39 260.4C2085.19 252 2087.09 241.9 2087.09 230.1C2087.09 211.9 2082.99 198 2074.79 188.4C2066.79 178.8 2055.89 174 2042.09 174C2033.09 174 2025.19 176.2 2018.39 180.6C2011.59 184.8 2006.29 191.1 2002.49 199.5C1998.89 207.7 1997.09 217.9 1997.09 230.1C1997.09 248.1 2001.19 262 2009.39 271.8C2017.59 281.4 2028.49 286.2 2042.09 286.2ZM2199.89 305.7C2188.09 305.7 2178.29 303.6 2170.49 299.4C2162.89 295 2157.09 288.5 2153.09 279.9C2149.29 271.3 2147.39 260.6 2147.39 247.8V167.4C2147.39 163.2 2148.39 160.1 2150.39 158.1C2152.59 156.1 2155.59 155.1 2159.39 155.1C2163.39 155.1 2166.39 156.1 2168.39 158.1C2170.59 160.1 2171.69 163.2 2171.69 167.4V247.5C2171.69 260.3 2174.29 269.9 2179.49 276.3C2184.89 282.5 2193.29 285.6 2204.69 285.6C2217.09 285.6 2227.19 281.4 2234.99 273C2242.79 264.6 2246.69 253.6 2246.69 240V167.4C2246.69 163.2 2247.69 160.1 2249.69 158.1C2251.89 156.1 2254.99 155.1 2258.99 155.1C2262.79 155.1 2265.69 156.1 2267.69 158.1C2269.89 160.1 2270.99 163.2 2270.99 167.4V292.5C2270.99 300.9 2267.09 305.1 2259.29 305.1C2255.49 305.1 2252.49 304 2250.29 301.8C2248.29 299.6 2247.29 296.5 2247.29 292.5V265.2L2251.19 269.4C2247.19 281.2 2240.59 290.2 2231.39 296.4C2222.39 302.6 2211.89 305.7 2199.89 305.7ZM2374.95 305.7C2363.55 305.7 2353.95 303.7 2346.15 299.7C2338.55 295.5 2332.85 289.5 2329.05 281.7C2325.25 273.7 2323.35 264 2323.35 252.6V176.1H2303.25C2299.85 176.1 2297.25 175.3 2295.45 173.7C2293.65 171.9 2292.75 169.5 2292.75 166.5C2292.75 163.5 2293.65 161.2 2295.45 159.6C2297.25 158 2299.85 157.2 2303.25 157.2H2323.35V122.7C2323.35 118.7 2324.45 115.7 2326.65 113.7C2328.85 111.5 2331.85 110.4 2335.65 110.4C2339.45 110.4 2342.35 111.5 2344.35 113.7C2346.55 115.7 2347.65 118.7 2347.65 122.7V157.2H2385.45C2388.85 157.2 2391.45 158 2393.25 159.6C2395.05 161.2 2395.95 163.5 2395.95 166.5C2395.95 169.5 2395.05 171.9 2393.25 173.7C2391.45 175.3 2388.85 176.1 2385.45 176.1H2347.65V250.2C2347.65 261.6 2350.05 270.3 2354.85 276.3C2359.65 282.1 2367.45 285 2378.25 285C2382.05 285 2385.25 284.6 2387.85 283.8C2390.65 283 2392.95 282.6 2394.75 282.6C2396.55 282.4 2398.05 283 2399.25 284.4C2400.45 285.8 2401.05 288.2 2401.05 291.6C2401.05 294 2400.55 296.2 2399.55 298.2C2398.75 300.2 2397.25 301.6 2395.05 302.4C2392.65 303.2 2389.45 303.9 2385.45 304.5C2381.65 305.3 2378.15 305.7 2374.95 305.7ZM2480.47 305.7C2466.27 305.7 2453.97 302.6 2443.57 296.4C2433.17 290.2 2425.07 281.5 2419.27 270.3C2413.67 258.9 2410.87 245.5 2410.87 230.1C2410.87 218.5 2412.47 208.1 2415.67 198.9C2418.87 189.5 2423.57 181.5 2429.77 174.9C2435.97 168.3 2443.27 163.3 2451.67 159.9C2460.27 156.3 2469.87 154.5 2480.47 154.5C2494.67 154.5 2506.97 157.6 2517.37 163.8C2527.77 170 2535.77 178.8 2541.37 190.2C2547.17 201.4 2550.07 214.7 2550.07 230.1C2550.07 241.7 2548.47 252.1 2545.27 261.3C2542.07 270.5 2537.37 278.5 2531.17 285.3C2524.97 291.9 2517.57 297 2508.97 300.6C2500.57 304 2491.07 305.7 2480.47 305.7ZM2480.47 286.2C2489.47 286.2 2497.37 284 2504.17 279.6C2510.97 275.2 2516.17 268.8 2519.77 260.4C2523.57 252 2525.47 241.9 2525.47 230.1C2525.47 211.9 2521.37 198 2513.17 188.4C2505.17 178.8 2494.27 174 2480.47 174C2471.27 174 2463.27 176.2 2456.47 180.6C2449.87 184.8 2444.67 191.1 2440.87 199.5C2437.27 207.7 2435.47 217.9 2435.47 230.1C2435.47 248.1 2439.57 262 2447.77 271.8C2455.97 281.4 2466.87 286.2 2480.47 286.2ZM2598.87 305.1C2594.87 305.1 2591.77 304 2589.57 301.8C2587.57 299.6 2586.57 296.5 2586.57 292.5V167.4C2586.57 163.4 2587.57 160.4 2589.57 158.4C2591.57 156.2 2594.47 155.1 2598.27 155.1C2602.07 155.1 2604.97 156.2 2606.97 158.4C2609.17 160.4 2610.27 163.4 2610.27 167.4V191.7H2607.27C2610.47 179.9 2616.57 170.8 2625.57 164.4C2634.57 158 2645.67 154.6 2658.87 154.2C2661.87 154 2664.27 154.7 2666.07 156.3C2667.87 157.7 2668.87 160.2 2669.07 163.8C2669.27 167.2 2668.47 169.9 2666.67 171.9C2664.87 173.9 2662.07 175.1 2658.27 175.5L2653.47 176.1C2639.87 177.3 2629.37 181.7 2621.97 189.3C2614.77 196.7 2611.17 206.9 2611.17 219.9V292.5C2611.17 296.5 2610.07 299.6 2607.87 301.8C2605.87 304 2602.87 305.1 2598.87 305.1ZM2845.23 305.7C2832.03 305.7 2820.63 302.3 2811.03 295.5C2801.63 288.7 2795.33 279.6 2792.13 268.2L2795.43 264.9V292.5C2795.43 296.5 2794.33 299.6 2792.13 301.8C2790.13 304 2787.23 305.1 2783.43 305.1C2779.43 305.1 2776.43 304 2774.43 301.8C2772.43 299.6 2771.43 296.5 2771.43 292.5V101.7C2771.43 97.7 2772.43 94.7 2774.43 92.7C2776.43 90.5 2779.43 89.4 2783.43 89.4C2787.23 89.4 2790.23 90.5 2792.43 92.7C2794.63 94.7 2795.73 97.7 2795.73 101.7V191.1H2792.13C2795.53 179.9 2801.93 171 2811.33 164.4C2820.73 157.8 2832.03 154.5 2845.23 154.5C2858.43 154.5 2869.83 157.6 2879.43 163.8C2889.03 169.8 2896.43 178.5 2901.63 189.9C2907.03 201.1 2909.73 214.5 2909.73 230.1C2909.73 245.5 2907.03 258.9 2901.63 270.3C2896.43 281.5 2888.93 290.2 2879.13 296.4C2869.53 302.6 2858.23 305.7 2845.23 305.7ZM2840.13 286.2C2849.33 286.2 2857.23 284 2863.83 279.6C2870.63 275.2 2875.83 268.8 2879.43 260.4C2883.23 252 2885.13 241.9 2885.13 230.1C2885.13 211.9 2881.03 198 2872.83 188.4C2864.83 178.8 2853.93 174 2840.13 174C2831.13 174 2823.23 176.2 2816.43 180.6C2809.63 184.8 2804.33 191.1 2800.53 199.5C2796.93 207.7 2795.13 217.9 2795.13 230.1C2795.13 248.1 2799.23 262 2807.43 271.8C2815.63 281.4 2826.53 286.2 2840.13 286.2ZM3012.04 305.7C2996.64 305.7 2983.34 302.7 2972.14 296.7C2961.14 290.5 2952.54 281.8 2946.34 270.6C2940.34 259.4 2937.34 246 2937.34 230.4C2937.34 215.2 2940.34 202 2946.34 190.8C2952.34 179.4 2960.54 170.5 2970.94 164.1C2981.54 157.7 2993.74 154.5 3007.54 154.5C3017.34 154.5 3026.14 156.2 3033.94 159.6C3041.74 162.8 3048.34 167.5 3053.74 173.7C3059.34 179.9 3063.54 187.4 3066.34 196.2C3069.34 205 3070.84 214.9 3070.84 225.9C3070.84 229.1 3069.94 231.5 3068.14 233.1C3066.34 234.5 3063.74 235.2 3060.34 235.2H2955.94V219.3H3054.64L3049.84 223.2C3049.84 212.4 3048.24 203.3 3045.04 195.9C3041.84 188.3 3037.14 182.5 3030.94 178.5C3024.94 174.5 3017.34 172.5 3008.14 172.5C2997.94 172.5 2989.24 174.9 2982.04 179.7C2975.04 184.3 2969.74 190.8 2966.14 199.2C2962.54 207.4 2960.74 217 2960.74 228V229.8C2960.74 248.2 2965.14 262.2 2973.94 271.8C2982.94 281.4 2995.64 286.2 3012.04 286.2C3018.84 286.2 3025.54 285.3 3032.14 283.5C3038.94 281.7 3045.54 278.7 3051.94 274.5C3054.74 272.7 3057.24 271.9 3059.44 272.1C3061.84 272.1 3063.74 272.8 3065.14 274.2C3066.54 275.4 3067.44 277 3067.84 279C3068.44 280.8 3068.24 282.8 3067.24 285C3066.44 287.2 3064.74 289.1 3062.14 290.7C3055.54 295.5 3047.74 299.2 3038.74 301.8C3029.74 304.4 3020.84 305.7 3012.04 305.7ZM3150.4 305.7C3136 305.7 3125 301.3 3117.4 292.5C3109.8 283.7 3106 271.1 3106 254.7V101.7C3106 97.7 3107 94.7 3109 92.7C3111 90.5 3114 89.4 3118 89.4C3121.8 89.4 3124.8 90.5 3127 92.7C3129.2 94.7 3130.3 97.7 3130.3 101.7V252.9C3130.3 263.7 3132.4 271.8 3136.6 277.2C3141 282.4 3147.4 285 3155.8 285C3157.6 285 3159.2 284.9 3160.6 284.7C3162 284.5 3163.4 284.4 3164.8 284.4C3167 284.2 3168.5 284.7 3169.3 285.9C3170.3 287.1 3170.8 289.5 3170.8 293.1C3170.8 296.7 3170 299.4 3168.4 301.2C3166.8 303 3164.2 304.2 3160.6 304.8C3159 305 3157.3 305.2 3155.5 305.4C3153.7 305.6 3152 305.7 3150.4 305.7ZM3257.81 359.7C3247.21 359.7 3236.81 358.4 3226.61 355.8C3216.61 353.4 3207.51 349.5 3199.31 344.1C3196.91 342.7 3195.31 341 3194.51 339C3193.91 337 3193.81 335 3194.21 333C3194.61 331.2 3195.51 329.5 3196.91 327.9C3198.31 326.5 3199.91 325.6 3201.71 325.2C3203.71 324.8 3205.71 325.1 3207.71 326.1C3216.51 331.5 3224.91 335.2 3232.91 337.2C3240.91 339.2 3248.81 340.2 3256.61 340.2C3270.81 340.2 3281.51 336.4 3288.71 328.8C3296.11 321.2 3299.81 310.2 3299.81 295.8V261.9H3302.81C3299.81 273.5 3293.41 282.7 3283.61 289.5C3274.01 296.3 3262.71 299.7 3249.71 299.7C3236.31 299.7 3224.71 296.7 3214.91 290.7C3205.11 284.5 3197.51 275.9 3192.11 264.9C3186.91 253.9 3184.31 241.2 3184.31 226.8C3184.31 216 3185.81 206.2 3188.81 197.4C3191.81 188.4 3196.11 180.8 3201.71 174.6C3207.51 168.2 3214.41 163.3 3222.41 159.9C3230.61 156.3 3239.71 154.5 3249.71 154.5C3262.91 154.5 3274.31 157.9 3283.91 164.7C3293.51 171.3 3299.71 180.3 3302.51 191.7L3299.51 195.3V167.4C3299.51 163.4 3300.51 160.4 3302.51 158.4C3304.71 156.2 3307.71 155.1 3311.51 155.1C3315.51 155.1 3318.51 156.2 3320.51 158.4C3322.51 160.4 3323.51 163.4 3323.51 167.4V292.5C3323.51 314.7 3317.91 331.4 3306.71 342.6C3295.71 354 3279.41 359.7 3257.81 359.7ZM3254.21 279.9C3263.61 279.9 3271.71 277.8 3278.51 273.6C3285.31 269.2 3290.51 263 3294.11 255C3297.91 247 3299.81 237.6 3299.81 226.8C3299.81 210.6 3295.71 197.8 3287.51 188.4C3279.31 178.8 3268.21 174 3254.21 174C3245.01 174 3237.01 176.2 3230.21 180.6C3223.41 184.8 3218.11 190.9 3214.31 198.9C3210.71 206.7 3208.91 216 3208.91 226.8C3208.91 243 3213.01 255.9 3221.21 265.5C3229.41 275.1 3240.41 279.9 3254.21 279.9ZM3381.09 304.5C3377.09 304.5 3374.09 303.4 3372.09 301.2C3370.09 298.8 3369.09 295.5 3369.09 291.3V168.6C3369.09 164.4 3370.09 161.2 3372.09 159C3374.09 156.8 3377.09 155.7 3381.09 155.7C3384.89 155.7 3387.89 156.8 3390.09 159C3392.29 161.2 3393.39 164.4 3393.39 168.6V291.3C3393.39 295.5 3392.29 298.8 3390.09 301.2C3388.09 303.4 3385.09 304.5 3381.09 304.5ZM3381.09 122.1C3376.09 122.1 3372.19 120.8 3369.39 118.2C3366.59 115.4 3365.19 111.7 3365.19 107.1C3365.19 102.3 3366.59 98.7 3369.39 96.3C3372.19 93.7 3376.09 92.4 3381.09 92.4C3386.29 92.4 3390.19 93.7 3392.79 96.3C3395.59 98.7 3396.99 102.3 3396.99 107.1C3396.99 111.7 3395.59 115.4 3392.79 118.2C3390.19 120.8 3386.29 122.1 3381.09 122.1ZM3500.62 305.7C3486.02 305.7 3473.42 302.5 3462.82 296.1C3452.22 289.7 3444.02 280.8 3438.22 269.4C3432.62 257.8 3429.82 244.4 3429.82 229.2C3429.82 217.6 3431.42 207.2 3434.62 198C3437.82 188.8 3442.52 181 3448.72 174.6C3454.92 168 3462.32 163 3470.92 159.6C3479.72 156.2 3489.62 154.5 3500.62 154.5C3507.82 154.5 3515.32 155.6 3523.12 157.8C3530.92 160 3538.02 163.8 3544.42 169.2C3546.42 170.6 3547.72 172.3 3548.32 174.3C3548.92 176.3 3548.92 178.3 3548.32 180.3C3547.72 182.1 3546.72 183.7 3545.32 185.1C3543.92 186.3 3542.12 187 3539.92 187.2C3537.92 187.4 3535.82 186.7 3533.62 185.1C3528.42 181.1 3523.12 178.3 3517.72 176.7C3512.32 175.1 3507.12 174.3 3502.12 174.3C3494.32 174.3 3487.52 175.6 3481.72 178.2C3475.92 180.6 3471.02 184.1 3467.02 188.7C3463.02 193.3 3459.92 199 3457.72 205.8C3455.72 212.6 3454.72 220.5 3454.72 229.5C3454.72 246.9 3458.82 260.7 3467.02 270.9C3475.22 280.9 3486.92 285.9 3502.12 285.9C3507.12 285.9 3512.22 285.1 3517.42 283.5C3522.82 281.9 3528.22 279.1 3533.62 275.1C3535.82 273.5 3537.92 272.8 3539.92 273C3541.92 273.2 3543.62 274 3545.02 275.4C3546.42 276.6 3547.32 278.2 3547.72 280.2C3548.32 282.2 3548.32 284.2 3547.72 286.2C3547.12 288 3545.82 289.6 3543.82 291C3537.42 296.2 3530.42 300 3522.82 302.4C3515.22 304.6 3507.82 305.7 3500.62 305.7ZM3589.68 305.1C3585.68 305.1 3582.68 304 3580.68 301.8C3578.68 299.6 3577.68 296.5 3577.68 292.5V101.7C3577.68 97.7 3578.68 94.7 3580.68 92.7C3582.68 90.5 3585.68 89.4 3589.68 89.4C3593.48 89.4 3596.48 90.5 3598.68 92.7C3600.88 94.7 3601.98 97.7 3601.98 101.7V222H3602.58L3664.08 163.2C3666.88 160.6 3669.28 158.6 3671.28 157.2C3673.48 155.8 3676.38 155.1 3679.98 155.1C3683.18 155.1 3685.68 156 3687.48 157.8C3689.28 159.4 3690.08 161.5 3689.88 164.1C3689.88 166.5 3688.68 169.1 3686.28 171.9L3620.88 234V220.8L3691.98 287.7C3694.78 290.5 3696.18 293.2 3696.18 295.8C3696.18 298.4 3695.18 300.6 3693.18 302.4C3691.38 304.2 3688.98 305.1 3685.98 305.1C3682.38 305.1 3679.48 304.4 3677.28 303C3675.08 301.4 3672.38 299.1 3669.18 296.1L3602.58 234.6H3601.98V292.5C3601.98 300.9 3597.88 305.1 3589.68 305.1ZM3789.57 305.7C3774.17 305.7 3760.87 302.7 3749.67 296.7C3738.67 290.5 3730.07 281.8 3723.87 270.6C3717.87 259.4 3714.87 246 3714.87 230.4C3714.87 215.2 3717.87 202 3723.87 190.8C3729.87 179.4 3738.07 170.5 3748.47 164.1C3759.07 157.7 3771.27 154.5 3785.07 154.5C3794.87 154.5 3803.67 156.2 3811.47 159.6C3819.27 162.8 3825.87 167.5 3831.27 173.7C3836.87 179.9 3841.07 187.4 3843.87 196.2C3846.87 205 3848.37 214.9 3848.37 225.9C3848.37 229.1 3847.47 231.5 3845.67 233.1C3843.87 234.5 3841.27 235.2 3837.87 235.2H3733.47V219.3H3832.17L3827.37 223.2C3827.37 212.4 3825.77 203.3 3822.57 195.9C3819.37 188.3 3814.67 182.5 3808.47 178.5C3802.47 174.5 3794.87 172.5 3785.67 172.5C3775.47 172.5 3766.77 174.9 3759.57 179.7C3752.57 184.3 3747.27 190.8 3743.67 199.2C3740.07 207.4 3738.27 217 3738.27 228V229.8C3738.27 248.2 3742.67 262.2 3751.47 271.8C3760.47 281.4 3773.17 286.2 3789.57 286.2C3796.37 286.2 3803.07 285.3 3809.67 283.5C3816.47 281.7 3823.07 278.7 3829.47 274.5C3832.27 272.7 3834.77 271.9 3836.97 272.1C3839.37 272.1 3841.27 272.8 3842.67 274.2C3844.07 275.4 3844.97 277 3845.37 279C3845.97 280.8 3845.77 282.8 3844.77 285C3843.97 287.2 3842.27 289.1 3839.67 290.7C3833.07 295.5 3825.27 299.2 3816.27 301.8C3807.27 304.4 3798.37 305.7 3789.57 305.7ZM3794.97 136.2C3793.57 138.2 3791.87 139.4 3789.87 139.8C3787.87 140 3785.97 139.7 3784.17 138.9C3782.37 137.9 3781.07 136.5 3780.27 134.7C3779.47 132.9 3779.67 130.8 3780.87 128.4L3806.07 79.5C3807.47 76.7 3809.27 74.9 3811.47 74.1C3813.67 73.3 3815.87 73.2 3818.07 73.8C3820.47 74.2 3822.47 75.2 3824.07 76.8C3825.67 78.4 3826.57 80.3 3826.77 82.5C3827.17 84.7 3826.57 87 3824.97 89.4L3794.97 136.2ZM3895.54 305.1C3891.54 305.1 3888.54 304 3886.54 301.8C3884.54 299.6 3883.54 296.5 3883.54 292.5V101.7C3883.54 97.7 3884.54 94.7 3886.54 92.7C3888.54 90.5 3891.54 89.4 3895.54 89.4C3899.34 89.4 3902.34 90.5 3904.54 92.7C3906.74 94.7 3907.84 97.7 3907.84 101.7V189.6H3903.94C3908.14 178 3914.94 169.3 3924.34 163.5C3933.94 157.5 3944.94 154.5 3957.34 154.5C3968.94 154.5 3978.54 156.6 3986.14 160.8C3993.94 165 3999.74 171.4 4003.54 180C4007.34 188.4 4009.24 199.1 4009.24 212.1V292.5C4009.24 296.5 4008.14 299.6 4005.94 301.8C4003.94 304 4001.04 305.1 3997.24 305.1C3993.24 305.1 3990.14 304 3987.94 301.8C3985.94 299.6 3984.94 296.5 3984.94 292.5V213.6C3984.94 200 3982.24 190.1 3976.84 183.9C3971.64 177.5 3963.24 174.3 3951.64 174.3C3938.24 174.3 3927.54 178.5 3919.54 186.9C3911.74 195.1 3907.84 206.1 3907.84 219.9V292.5C3907.84 300.9 3903.74 305.1 3895.54 305.1ZM4114.65 305.7C4100.45 305.7 4088.15 302.6 4077.75 296.4C4067.35 290.2 4059.25 281.5 4053.45 270.3C4047.85 258.9 4045.05 245.5 4045.05 230.1C4045.05 218.5 4046.65 208.1 4049.85 198.9C4053.05 189.5 4057.75 181.5 4063.95 174.9C4070.15 168.3 4077.45 163.3 4085.85 159.9C4094.45 156.3 4104.05 154.5 4114.65 154.5C4128.85 154.5 4141.15 157.6 4151.55 163.8C4161.95 170 4169.95 178.8 4175.55 190.2C4181.35 201.4 4184.25 214.7 4184.25 230.1C4184.25 241.7 4182.65 252.1 4179.45 261.3C4176.25 270.5 4171.55 278.5 4165.35 285.3C4159.15 291.9 4151.75 297 4143.15 300.6C4134.75 304 4125.25 305.7 4114.65 305.7ZM4114.65 286.2C4123.65 286.2 4131.55 284 4138.35 279.6C4145.15 275.2 4150.35 268.8 4153.95 260.4C4157.75 252 4159.65 241.9 4159.65 230.1C4159.65 211.9 4155.55 198 4147.35 188.4C4139.35 178.8 4128.45 174 4114.65 174C4105.45 174 4097.45 176.2 4090.65 180.6C4084.05 184.8 4078.85 191.1 4075.05 199.5C4071.45 207.7 4069.65 217.9 4069.65 230.1C4069.65 248.1 4073.75 262 4081.95 271.8C4090.15 281.4 4101.05 286.2 4114.65 286.2ZM4352.39 305.1C4348.99 305.1 4345.99 304.2 4343.39 302.4C4340.79 300.4 4338.59 297.4 4336.79 293.4L4284.89 172.2C4283.49 169.2 4282.99 166.4 4283.39 163.8C4283.79 161.2 4284.99 159.1 4286.99 157.5C4288.99 155.9 4291.79 155.1 4295.39 155.1C4298.59 155.1 4301.09 155.8 4302.89 157.2C4304.69 158.6 4306.29 161.1 4307.69 164.7L4356.89 285H4348.79L4398.89 164.7C4400.29 161.1 4401.89 158.6 4403.69 157.2C4405.49 155.8 4408.09 155.1 4411.49 155.1C4414.69 155.1 4417.09 155.9 4418.69 157.5C4420.49 159.1 4421.49 161.2 4421.69 163.8C4422.09 166.2 4421.69 168.9 4420.49 171.9L4367.99 293.4C4366.59 297.4 4364.49 300.4 4361.69 302.4C4359.09 304.2 4355.99 305.1 4352.39 305.1ZM4490.45 359.1C4487.45 359.1 4485.05 358.3 4483.25 356.7C4481.45 355.1 4480.35 352.9 4479.95 350.1C4479.75 347.5 4480.25 344.8 4481.45 342L4502.15 295.5V306L4444.55 172.2C4443.35 169.2 4442.95 166.4 4443.35 163.8C4443.75 161.2 4444.95 159.1 4446.95 157.5C4448.95 155.9 4451.75 155.1 4455.35 155.1C4458.55 155.1 4461.05 155.8 4462.85 157.2C4464.65 158.6 4466.25 161.1 4467.65 164.7L4516.85 285.3H4508.75L4558.55 164.7C4560.15 161.1 4561.85 158.6 4563.65 157.2C4565.45 155.8 4568.05 155.1 4571.45 155.1C4574.65 155.1 4577.05 155.9 4578.65 157.5C4580.45 159.1 4581.45 161.2 4581.65 163.8C4582.05 166.2 4581.65 168.9 4580.45 171.9L4503.65 349.5C4502.05 353.1 4500.25 355.6 4498.25 357C4496.45 358.4 4493.85 359.1 4490.45 359.1ZM4522.55 136.2C4521.15 138.2 4519.45 139.4 4517.45 139.8C4515.45 140 4513.55 139.7 4511.75 138.9C4509.95 137.9 4508.65 136.5 4507.85 134.7C4507.05 132.9 4507.25 130.8 4508.45 128.4L4533.65 79.5C4535.05 76.7 4536.85 74.9 4539.05 74.1C4541.25 73.3 4543.45 73.2 4545.65 73.8C4548.05 74.2 4550.05 75.2 4551.65 76.8C4553.25 78.4 4554.15 80.3 4554.35 82.5C4554.75 84.7 4554.15 87 4552.55 89.4L4522.55 136.2ZM4624.46 305.1C4620.46 305.1 4617.36 304 4615.16 301.8C4613.16 299.6 4612.16 296.5 4612.16 292.5V167.4C4612.16 163.4 4613.16 160.4 4615.16 158.4C4617.16 156.2 4620.06 155.1 4623.86 155.1C4627.66 155.1 4630.56 156.2 4632.56 158.4C4634.76 160.4 4635.86 163.4 4635.86 167.4V191.7H4632.86C4636.06 179.9 4642.16 170.8 4651.16 164.4C4660.16 158 4671.26 154.6 4684.46 154.2C4687.46 154 4689.86 154.7 4691.66 156.3C4693.46 157.7 4694.46 160.2 4694.66 163.8C4694.86 167.2 4694.06 169.9 4692.26 171.9C4690.46 173.9 4687.66 175.1 4683.86 175.5L4679.06 176.1C4665.46 177.3 4654.96 181.7 4647.56 189.3C4640.36 196.7 4636.76 206.9 4636.76 219.9V292.5C4636.76 296.5 4635.66 299.6 4633.46 301.8C4631.46 304 4628.46 305.1 4624.46 305.1ZM4778.52 305.7C4764.32 305.7 4752.02 302.6 4741.62 296.4C4731.22 290.2 4723.12 281.5 4717.32 270.3C4711.72 258.9 4708.92 245.5 4708.92 230.1C4708.92 218.5 4710.52 208.1 4713.72 198.9C4716.92 189.5 4721.62 181.5 4727.82 174.9C4734.02 168.3 4741.32 163.3 4749.72 159.9C4758.32 156.3 4767.92 154.5 4778.52 154.5C4792.72 154.5 4805.02 157.6 4815.42 163.8C4825.82 170 4833.82 178.8 4839.42 190.2C4845.22 201.4 4848.12 214.7 4848.12 230.1C4848.12 241.7 4846.52 252.1 4843.32 261.3C4840.12 270.5 4835.42 278.5 4829.22 285.3C4823.02 291.9 4815.62 297 4807.02 300.6C4798.62 304 4789.12 305.7 4778.52 305.7ZM4778.52 286.2C4787.52 286.2 4795.42 284 4802.22 279.6C4809.02 275.2 4814.22 268.8 4817.82 260.4C4821.62 252 4823.52 241.9 4823.52 230.1C4823.52 211.9 4819.42 198 4811.22 188.4C4803.22 178.8 4792.32 174 4778.52 174C4769.32 174 4761.32 176.2 4754.52 180.6C4747.92 184.8 4742.72 191.1 4738.92 199.5C4735.32 207.7 4733.52 217.9 4733.52 230.1C4733.52 248.1 4737.62 262 4745.82 271.8C4754.02 281.4 4764.92 286.2 4778.52 286.2ZM4958.42 305.7C4945.22 305.7 4933.82 302.3 4924.22 295.5C4914.82 288.7 4908.52 279.6 4905.32 268.2L4908.62 264.9V292.5C4908.62 296.5 4907.52 299.6 4905.32 301.8C4903.32 304 4900.42 305.1 4896.62 305.1C4892.62 305.1 4889.62 304 4887.62 301.8C4885.62 299.6 4884.62 296.5 4884.62 292.5V101.7C4884.62 97.7 4885.62 94.7 4887.62 92.7C4889.62 90.5 4892.62 89.4 4896.62 89.4C4900.42 89.4 4903.42 90.5 4905.62 92.7C4907.82 94.7 4908.92 97.7 4908.92 101.7V191.1H4905.32C4908.72 179.9 4915.12 171 4924.52 164.4C4933.92 157.8 4945.22 154.5 4958.42 154.5C4971.62 154.5 4983.02 157.6 4992.62 163.8C5002.22 169.8 5009.62 178.5 5014.82 189.9C5020.22 201.1 5022.92 214.5 5022.92 230.1C5022.92 245.5 5020.22 258.9 5014.82 270.3C5009.62 281.5 5002.12 290.2 4992.32 296.4C4982.72 302.6 4971.42 305.7 4958.42 305.7ZM4953.32 286.2C4962.52 286.2 4970.42 284 4977.02 279.6C4983.82 275.2 4989.02 268.8 4992.62 260.4C4996.42 252 4998.32 241.9 4998.32 230.1C4998.32 211.9 4994.22 198 4986.02 188.4C4978.02 178.8 4967.12 174 4953.32 174C4944.32 174 4936.42 176.2 4929.62 180.6C4922.82 184.8 4917.52 191.1 4913.72 199.5C4910.12 207.7 4908.32 217.9 4908.32 230.1C4908.32 248.1 4912.42 262 4920.62 271.8C4928.82 281.4 4939.72 286.2 4953.32 286.2ZM5121.32 305.7C5106.72 305.7 5094.12 302.5 5083.52 296.1C5072.92 289.7 5064.72 280.8 5058.92 269.4C5053.32 257.8 5050.52 244.4 5050.52 229.2C5050.52 217.6 5052.12 207.2 5055.32 198C5058.52 188.8 5063.22 181 5069.42 174.6C5075.62 168 5083.02 163 5091.62 159.6C5100.42 156.2 5110.32 154.5 5121.32 154.5C5128.52 154.5 5136.02 155.6 5143.82 157.8C5151.62 160 5158.72 163.8 5165.12 169.2C5167.12 170.6 5168.42 172.3 5169.02 174.3C5169.62 176.3 5169.62 178.3 5169.02 180.3C5168.42 182.1 5167.42 183.7 5166.02 185.1C5164.62 186.3 5162.82 187 5160.62 187.2C5158.62 187.4 5156.52 186.7 5154.32 185.1C5149.12 181.1 5143.82 178.3 5138.42 176.7C5133.02 175.1 5127.82 174.3 5122.82 174.3C5115.02 174.3 5108.22 175.6 5102.42 178.2C5096.62 180.6 5091.72 184.1 5087.72 188.7C5083.72 193.3 5080.62 199 5078.42 205.8C5076.42 212.6 5075.42 220.5 5075.42 229.5C5075.42 246.9 5079.52 260.7 5087.72 270.9C5095.92 280.9 5107.62 285.9 5122.82 285.9C5127.82 285.9 5132.92 285.1 5138.12 283.5C5143.52 281.9 5148.92 279.1 5154.32 275.1C5156.52 273.5 5158.62 272.8 5160.62 273C5162.62 273.2 5164.32 274 5165.72 275.4C5167.12 276.6 5168.02 278.2 5168.42 280.2C5169.02 282.2 5169.02 284.2 5168.42 286.2C5167.82 288 5166.52 289.6 5164.52 291C5158.12 296.2 5151.12 300 5143.52 302.4C5135.92 304.6 5128.52 305.7 5121.32 305.7ZM5261.16 305.7C5245.76 305.7 5232.46 302.7 5221.26 296.7C5210.26 290.5 5201.66 281.8 5195.46 270.6C5189.46 259.4 5186.46 246 5186.46 230.4C5186.46 215.2 5189.46 202 5195.46 190.8C5201.46 179.4 5209.66 170.5 5220.06 164.1C5230.66 157.7 5242.86 154.5 5256.66 154.5C5266.46 154.5 5275.26 156.2 5283.06 159.6C5290.86 162.8 5297.46 167.5 5302.86 173.7C5308.46 179.9 5312.66 187.4 5315.46 196.2C5318.46 205 5319.96 214.9 5319.96 225.9C5319.96 229.1 5319.06 231.5 5317.26 233.1C5315.46 234.5 5312.86 235.2 5309.46 235.2H5205.06V219.3H5303.76L5298.96 223.2C5298.96 212.4 5297.36 203.3 5294.16 195.9C5290.96 188.3 5286.26 182.5 5280.06 178.5C5274.06 174.5 5266.46 172.5 5257.26 172.5C5247.06 172.5 5238.36 174.9 5231.16 179.7C5224.16 184.3 5218.86 190.8 5215.26 199.2C5211.66 207.4 5209.86 217 5209.86 228V229.8C5209.86 248.2 5214.26 262.2 5223.06 271.8C5232.06 281.4 5244.76 286.2 5261.16 286.2C5267.96 286.2 5274.66 285.3 5281.26 283.5C5288.06 281.7 5294.66 278.7 5301.06 274.5C5303.86 272.7 5306.36 271.9 5308.56 272.1C5310.96 272.1 5312.86 272.8 5314.26 274.2C5315.66 275.4 5316.56 277 5316.96 279C5317.56 280.8 5317.36 282.8 5316.36 285C5315.56 287.2 5313.86 289.1 5311.26 290.7C5304.66 295.5 5296.86 299.2 5287.86 301.8C5278.86 304.4 5269.96 305.7 5261.16 305.7Z" fill="black"/>
</svg>
