<svg width="2420" height="887" viewBox="0 0 2420 887" fill="none" xmlns="http://www.w3.org/2000/svg">
<path d="M1994 794C1994 797.314 1991.31 800 1988 800C1984.69 800 1982 797.314 1982 794C1982 790.686 1984.69 788 1988 788C1991.31 788 1994 790.686 1994 794Z" fill="#231F20"/>
<path d="M1058.04 803.408C1052.38 822.76 1047.11 840.761 1041.64 859.47C1038.04 859.639 1034.54 859.804 1030.39 860C1023.32 837.511 1017.62 815.029 1011 792.152H1020.72C1026.34 810.153 1030.97 828.687 1036.4 848.408C1042.25 828.712 1047.68 810.417 1053.14 792H1064.1C1069.69 810.414 1075.4 829.216 1081.28 848.584C1086.42 829.612 1091.45 811.042 1096.58 792.117H1105C1103.43 799.786 1101.38 807.046 1099.49 814.365C1097.54 821.881 1095.2 829.301 1093.12 836.784C1091.04 844.237 1089.06 851.717 1086.95 859.474H1074.92C1069.45 841.299 1063.93 822.967 1058.04 803.408Z" fill="#231F20"/>
<path d="M2254.9 825.675C2254.72 815.734 2246.43 808.116 2236.46 809.083C2229.35 809.772 2224.85 813.717 2220.24 818.897C2211.64 805.899 2196.07 806.456 2188.87 817.915C2188.65 815.488 2188.42 813.056 2188.16 810.183L2171 811.407V815.761C2173.91 816.093 2176.37 816.376 2179.64 816.75C2179.64 816.651 2179.64 816.85 2179.64 816.75L2180.03 816.824V860H2188.8C2188.8 852.597 2188.48 845.754 2188.92 838.959C2189.2 834.495 2189.63 829.719 2191.59 825.725C2193.65 821.524 2196.8 817.766 2201.37 817.194C2207.6 816.413 2213.69 820.703 2213.96 826.934C2213.96 826.982 2213.97 827.031 2213.97 827.081C2214.16 832.674 2213.95 838.275 2213.95 843.872C2213.95 849.15 2213.95 854.428 2213.95 860H2223.3V852.836C2223.3 846.476 2223.27 840.115 2223.31 833.755C2223.35 827.501 2224.93 821.927 2230.16 818.673C2232.81 817.024 2236.29 815.787 2240.17 817.194C2244.19 818.653 2245.61 821.524 2245.77 825.648C2246.13 835.053 2245.84 844.473 2245.92 853.885C2245.93 855.814 2245.82 857.926 2245.98 860H2254.92C2254.92 848.851 2255.11 836.903 2254.9 825.675Z" fill="#231F20"/>
<path d="M1235.55 845.453C1233.01 851.2 1228.73 854.953 1221.85 854.567C1218.34 854.371 1214.83 854.32 1210.64 854.181C1210.66 843.628 1208.67 833.745 1213.49 824.31C1215.18 821.009 1217.31 818.303 1220.84 816.838C1226.99 814.283 1233.8 816.86 1236 823.062C1238.63 830.504 1238.77 838.156 1235.55 845.453ZM1243.17 816.822C1240.14 811.425 1231.69 808.477 1225.94 809.077C1219.41 809.76 1214.33 812.754 1210.72 818.873C1210.29 815.631 1209.94 813.026 1209.57 810.215H1193V815.507C1195.66 815.953 1198.2 816.38 1201.24 816.888V886.732C1204.8 886.719 1207.52 887.907 1210.6 885.381V861.024C1213.51 861.403 1215.25 861.818 1216.99 861.823C1224.53 861.848 1231.62 860.761 1237.9 855.775C1247.74 847.959 1249.77 828.595 1243.17 816.822Z" fill="#231F20"/>
<path d="M1597.6 810.04H1607C1605.73 813.841 1604.78 817.161 1603.53 820.36C1597 836.971 1590.39 853.551 1583.81 870.144C1583.72 870.381 1583.7 870.648 1583.6 870.882C1578.41 883.172 1572.87 889.204 1556 886.266C1556.46 884.013 1556.91 881.766 1557.36 879.565C1561.57 879.344 1565.13 879.158 1568.31 878.991C1573.91 873.903 1574.63 872.618 1578.6 860.8C1572.14 844.11 1565.63 827.293 1558.93 810H1569.23C1573.84 822.517 1578.46 835.083 1583.53 848.87C1588.45 835.295 1592.98 822.789 1597.6 810.04Z" fill="#231F20"/>
<path d="M1723.4 853.878H1723.24V853.847C1723.22 853.845 1723.21 853.842 1723.2 853.84C1722.64 838.993 1723.44 824.526 1722.73 810H1713.79C1713.79 812.977 1713.82 815.517 1713.78 818.056C1713.68 825.071 1713.5 832.086 1713.45 839.102C1713.42 843.573 1711.39 847.01 1708.39 850.073C1704.71 853.838 1700.49 856.085 1695.19 854.198C1689.97 852.342 1689.92 847.64 1689.88 843.173C1689.79 834.07 1690 819.104 1689.94 810L1672.01 810.805C1672.13 812.277 1671.93 813.979 1672.03 815.313C1674.98 815.799 1677.44 816.205 1680.62 816.731C1680.62 819.629 1680.61 822.169 1680.62 824.709C1680.65 832.252 1680.51 839.8 1680.76 847.335C1681.11 857.825 1687.91 863.044 1698.19 861.826C1705.54 860.957 1710.35 856.828 1714.6 850.519C1714.81 854.311 1714.97 857.328 1715.15 860.516H1731.74C1731.85 858.482 1731.92 857.067 1732 855.504C1728.95 854.926 1726.32 854.431 1723.4 853.878Z" fill="#231F20"/>
<path d="M2113.91 816.94H2113.99V860H2123.35C2123.38 856.467 2123.43 835.048 2123.61 831.521C2123.86 826.751 2127.11 821.472 2131.62 818.234C2137.65 813.908 2147.66 815.23 2147.55 825.695C2147.49 831.166 2147.51 854.527 2147.54 860H2156.99C2157.01 853.952 2157 830.017 2156.87 823.972C2156.63 812.816 2149.64 807.699 2138.29 809.281C2131.7 810.201 2127.53 813.174 2122.44 819.979C2122.23 816.344 2122.05 813.382 2121.88 810.443L2105 811.316V815.508C2107.85 815.899 2110.36 816.242 2113.91 816.729C2113.91 816.8 2113.91 816.868 2113.91 816.94Z" fill="#231F20"/>
<path d="M1939.52 860C1933.04 843.757 1926.6 827.64 1920 811.099C1923.26 809.346 1926.46 810.128 1930.09 810.492C1934.8 823.227 1939.51 835.93 1944.64 849.765C1949.78 836.277 1954.64 823.538 1959.61 810.489H1969C1963.01 827.646 1955.77 843.597 1949.23 860H1939.52Z" fill="#231F20"/>
<path d="M2417.7 853.314C2409.24 856.267 2403.9 852.491 2404.28 842.946C2404.3 842.502 2404.28 839.16 2404.29 838.714L2404.25 833.366V816.805H2417.34C2418.22 816.761 2419.1 816.715 2420 816.67C2419.74 814.3 2419.56 812.694 2419.31 810.443L2404.4 810.06C2404.48 803.703 2404.53 798.478 2404.53 792C2401.66 792.952 2397.63 793.91 2394.47 794.956V810.329C2390.66 810.63 2387.59 810.871 2384 811.155C2384.12 813.173 2384.21 814.772 2384.32 816.568C2387.85 816.924 2390.92 817.233 2394.87 817.631C2394.87 820.295 2394.87 822.748 2394.87 825.2C2394.87 832.012 2394.66 838.831 2394.94 845.633C2395.17 851.412 2395.45 857.388 2401.46 860.347C2407.15 862.711 2413.8 862.532 2419.68 859.86L2419.82 852.21C2419.24 852.613 2418.08 853.182 2417.7 853.314Z" fill="#231F20"/>
<path d="M1983.71 816.26C1980.36 815.92 1978.17 815.698 1975.49 815.426C1975.34 813.715 1975.19 812.128 1975 810H1992V860H1983.71V816.26Z" fill="#231F20"/>
<path d="M1526.76 853.314C1518.54 856.267 1513.35 852.491 1513.72 842.946C1513.74 842.502 1513.71 839.16 1513.73 838.714L1513.69 833.366V816.805H1526.42C1527.27 816.761 1528.12 816.715 1529 816.67C1528.75 814.3 1528.57 812.694 1528.33 810.443L1513.84 810.06C1513.91 803.703 1513.96 798.477 1513.96 792C1511.17 792.952 1507.25 793.91 1504.18 794.956V810.329C1500.47 810.63 1497.49 810.871 1494 811.155C1494.11 813.173 1494.2 814.772 1494.31 816.568C1497.74 816.924 1500.73 817.233 1504.57 817.631V825.2C1504.57 832.012 1504.37 838.831 1504.63 845.633C1504.86 851.412 1505.13 857.388 1510.97 860.347C1516.51 862.711 1522.97 862.532 1528.69 859.86L1528.82 852.21C1528.26 852.613 1527.13 853.182 1526.76 853.314Z" fill="#231F20"/>
<path d="M1385.76 853.314C1377.54 856.267 1372.35 852.491 1372.72 842.946C1372.74 842.502 1372.71 839.16 1372.73 838.714L1372.69 833.366V816.805H1385.42C1386.27 816.761 1387.12 816.715 1388 816.67C1387.75 814.3 1387.57 812.694 1387.33 810.443L1372.84 810.06C1372.91 803.703 1372.96 798.477 1372.96 792C1370.17 792.952 1366.25 793.91 1363.18 794.956V810.329C1359.47 810.63 1356.49 810.871 1353 811.155C1353.11 813.173 1353.2 814.772 1353.31 816.568C1356.96 816.744 1359.77 816.902 1363.63 816.891C1363.63 819.555 1363.57 822.748 1363.57 825.2C1363.57 832.012 1363.37 838.831 1363.63 845.633C1363.86 851.412 1364.13 857.388 1369.97 860.347C1375.51 862.711 1381.97 862.532 1387.69 859.86L1387.82 852.21C1387.26 852.613 1386.13 853.182 1385.76 853.314Z" fill="#231F20"/>
<path d="M2331.74 816.94H2331.82V860H2341C2341.02 856.467 2341.08 835.048 2341.26 831.521C2341.5 826.751 2344.68 821.472 2349.11 818.234C2355.02 813.908 2364.84 815.23 2364.73 825.695C2364.68 831.166 2364.69 854.527 2364.73 860H2373.99C2374.01 853.952 2374 830.017 2373.87 823.972C2373.64 812.816 2366.78 807.699 2355.65 809.281C2349.18 810.201 2345.09 813.174 2340.11 819.979C2339.9 816.344 2339.73 813.382 2339.56 810.443L2323 811.316V815.508C2325.79 815.899 2328.26 816.242 2331.74 816.729C2331.74 816.8 2331.74 816.868 2331.74 816.94Z" fill="#231F20"/>
<path d="M1866.74 816.939H1866.82V860H1876C1876.02 856.468 1876.08 835.048 1876.26 831.521C1876.5 826.751 1879.68 821.472 1884.11 818.233C1890.02 813.908 1899.84 815.229 1899.73 825.695C1899.68 831.166 1899.69 854.527 1899.73 860H1908.99C1909.01 853.952 1909 830.016 1908.87 823.971C1908.64 812.816 1901.78 807.699 1890.65 809.282C1884.19 810.201 1880.09 813.174 1875.1 819.978C1874.9 816.344 1874.73 813.381 1874.56 810.442L1858 811.316V815.508C1860.79 815.898 1863.26 816.242 1866.74 816.728C1866.74 816.8 1866.74 816.868 1866.74 816.939Z" fill="#231F20"/>
<path d="M1625.41 835.605C1625.41 846.707 1631.86 855.088 1640.95 855.088C1649.83 855.088 1656.49 846.812 1656.49 835.395C1656.49 826.806 1652.15 815.913 1641.16 815.913C1630.17 815.913 1625.41 825.97 1625.41 835.605ZM1666 835.082C1666 853.831 1652.89 862 1640.52 862C1626.68 862 1616 851.946 1616 835.919C1616 818.951 1627.2 809 1641.37 809C1656.06 809 1666 819.579 1666 835.082Z" fill="#231F20"/>
<path d="M1306.41 835.605C1306.41 846.707 1312.86 855.088 1321.95 855.088C1330.83 855.088 1337.49 846.812 1337.49 835.395C1337.49 826.806 1333.15 815.913 1322.16 815.913C1311.17 815.913 1306.41 825.97 1306.41 835.605ZM1347 835.082C1347 853.831 1333.89 862 1321.53 862C1307.68 862 1297 851.946 1297 835.919C1297 818.951 1308.2 809 1322.37 809C1337.06 809 1347 819.579 1347 835.082Z" fill="#231F20"/>
<path d="M2057.22 835.605C2057.22 846.707 2063.54 855.088 2072.45 855.088C2081.15 855.088 2087.68 846.812 2087.68 835.395C2087.68 826.806 2083.43 815.913 2072.66 815.913C2061.88 815.913 2057.22 825.97 2057.22 835.605ZM2097 835.082C2097 853.831 2084.15 862 2072.03 862C2058.46 862 2048 851.946 2048 835.919C2048 818.951 2058.98 809 2072.86 809C2087.26 809 2097 819.579 2097 835.082Z" fill="#231F20"/>
<path d="M1432.04 830.619C1432.15 824.743 1429.62 815.613 1419.19 815.613C1409.81 815.613 1405.7 824.219 1404.96 830.619H1432.04ZM1404.85 837.232C1405.06 849.72 1413.07 854.863 1422.35 854.863C1428.99 854.863 1432.99 853.708 1436.47 852.239L1438.05 858.851C1434.78 860.321 1429.2 862 1421.08 862C1405.38 862 1396 851.715 1396 836.391C1396 821.07 1405.06 809 1419.92 809C1436.57 809 1441 823.589 1441 832.93C1441 834.818 1440.79 836.286 1440.68 837.232H1404.85Z" fill="#231F20"/>
<path d="M1149.04 830.619C1149.15 824.743 1146.62 815.613 1136.19 815.613C1126.81 815.613 1122.7 824.219 1121.96 830.619H1149.04ZM1121.85 837.232C1122.06 849.72 1130.07 854.863 1139.35 854.863C1145.99 854.863 1149.99 853.708 1153.47 852.239L1155.05 858.851C1151.78 860.321 1146.2 862 1138.08 862C1122.38 862 1113 851.715 1113 836.391C1113 821.07 1122.06 809 1136.92 809C1153.57 809 1158 823.589 1158 832.93C1158 834.818 1157.79 836.286 1157.68 837.232H1121.85Z" fill="#231F20"/>
<path d="M1839.84 830.212C1839.95 824.446 1837.37 815.488 1826.7 815.488C1817.11 815.488 1812.91 823.931 1812.16 830.212H1839.84ZM1812.05 836.699C1812.26 848.952 1820.45 853.997 1829.93 853.997C1836.72 853.997 1840.81 852.865 1844.37 851.424L1845.98 857.911C1842.64 859.352 1836.93 861 1828.64 861C1812.59 861 1803 850.909 1803 835.875C1803 820.843 1812.26 809 1827.46 809C1844.48 809 1849 823.314 1849 832.478C1849 834.33 1848.78 835.772 1848.68 836.699H1812.05Z" fill="#231F20"/>
<path d="M2304.24 830.212C2304.34 824.446 2301.87 815.488 2291.67 815.488C2282.5 815.488 2278.48 823.931 2277.76 830.212H2304.24ZM2277.66 836.699C2277.86 848.952 2285.69 853.997 2294.76 853.997C2301.25 853.997 2305.17 852.865 2308.57 851.424L2310.12 857.911C2306.92 859.352 2301.46 861 2293.52 861C2278.17 861 2269 850.909 2269 835.875C2269 820.843 2277.86 809 2292.39 809C2308.67 809 2313 823.314 2313 832.478C2313 834.33 2312.79 835.772 2312.69 836.699H2277.66Z" fill="#231F20"/>
<path d="M1486.8 859.11C1484.51 860.348 1479.44 862 1472.97 862C1458.45 862 1449 851.786 1449 836.517C1449 821.142 1459.15 810 1474.86 810C1480.04 810 1484.61 811.341 1487 812.579L1485.01 819.595C1482.92 818.357 1479.64 817.221 1474.86 817.221C1463.82 817.221 1457.85 825.682 1457.85 836.102C1457.85 847.658 1465.02 854.778 1474.57 854.778C1479.54 854.778 1482.82 853.436 1485.31 852.302L1486.8 859.11Z" fill="#231F20"/>
<path d="M2013.28 860H2022.73C2022.71 849.823 2022.7 840.055 2022.79 834.647C2022.85 830.765 2023.6 827.174 2025.4 824.063C2028.18 819.29 2033.72 816.57 2039.41 816.88L2039.58 816.891C2039.73 814.109 2039.86 811.73 2040 809.1C2031.24 808.271 2026.24 812.681 2021.42 819.833C2021.54 815.73 2021.42 813.179 2021.61 810.212L2007.02 810.959L2007 810.974V815.622C2008.98 815.821 2010.55 816.033 2013.28 816.28V860Z" fill="#231F20"/>
<path d="M1745.28 860H1754.73C1754.71 849.823 1754.7 840.055 1754.79 834.647C1754.85 830.765 1755.6 827.174 1757.4 824.063C1760.18 819.29 1765.72 816.57 1771.41 816.88L1771.58 816.891C1771.73 814.109 1771.86 811.73 1772 809.1C1763.23 808.271 1758.24 812.681 1753.42 819.833C1753.54 815.73 1753.42 813.179 1753.61 810.212L1739.02 810.959L1739 810.974V815.622C1740.98 815.821 1742.55 816.033 1745.28 816.28V860Z" fill="#231F20"/>
<path d="M1264.28 860H1273.73C1273.71 849.823 1273.7 840.055 1273.79 834.647C1273.85 830.765 1274.6 827.174 1276.41 824.063C1279.18 819.29 1284.72 816.57 1290.41 816.88L1290.58 816.891C1290.73 814.109 1290.86 811.73 1291 809.1C1282.24 808.271 1277.24 812.681 1272.42 819.833C1272.54 815.73 1272.42 813.179 1272.61 810.212L1258.02 810.959L1258 810.974V815.622C1259.98 815.821 1261.55 816.033 1264.28 816.28V860Z" fill="#231F20"/>
<path d="M839.371 426.34C839.371 455.806 815.484 479.694 786.018 479.694C756.552 479.694 732.664 455.806 732.664 426.34C732.664 396.874 756.552 372.987 786.018 372.987C815.484 372.987 839.371 396.874 839.371 426.34Z" fill="#86C040"/>
<path d="M597.945 426.34C597.945 455.806 574.058 479.694 544.591 479.694C515.126 479.694 491.238 455.806 491.238 426.34C491.238 396.874 515.126 372.987 544.591 372.987C574.058 372.987 597.945 396.874 597.945 426.34Z" fill="#86C040"/>
<path d="M554.707 539.91C554.707 569.376 530.82 593.264 501.353 593.264C471.887 593.264 448 569.376 448 539.91C448 510.444 471.887 486.556 501.353 486.556C530.82 486.556 554.707 510.444 554.707 539.91Z" fill="#86C040"/>
<path d="M884.164 539.91C884.164 569.376 860.277 593.264 830.81 593.264C801.344 593.264 777.457 569.376 777.457 539.91C777.457 510.444 801.344 486.556 830.81 486.556C860.277 486.556 884.164 510.444 884.164 539.91Z" fill="#86C040"/>
<path d="M740 539.91C740 580.793 706.857 613.938 665.972 613.938C625.088 613.938 591.945 580.793 591.945 539.91C591.945 499.026 625.088 465.882 665.972 465.882C706.857 465.882 740 499.026 740 539.91Z" fill="#86C040"/>
<path d="M597.945 656.404C597.945 685.87 574.058 709.758 544.591 709.758C515.126 709.758 491.238 685.87 491.238 656.404C491.238 626.937 515.126 603.05 544.591 603.05C574.058 603.05 597.945 626.937 597.945 656.404Z" fill="#86C040"/>
<path d="M831.672 656.404C831.672 685.87 807.785 709.758 778.319 709.758C748.853 709.758 724.965 685.87 724.965 656.404C724.965 626.937 748.853 603.05 778.319 603.05C807.785 603.05 831.672 626.937 831.672 656.404Z" fill="#86C040"/>
<path d="M719.324 708.897C719.324 738.363 695.437 762.25 665.97 762.25C636.505 762.25 612.617 738.363 612.617 708.897C612.617 679.43 636.505 655.543 665.97 655.543C695.437 655.543 719.324 679.43 719.324 708.897Z" fill="#86C040"/>
<path d="M719.324 378.353C719.324 407.819 695.437 431.707 665.97 431.707C636.505 431.707 612.617 407.819 612.617 378.353C612.617 348.887 636.505 325 665.97 325C695.437 325 719.324 348.887 719.324 378.353Z" fill="#86C040"/>
<path d="M1486.32 455.791C1486.54 485.387 1485.94 513.349 1486.77 542.323C1500.21 542.448 1512.46 544.166 1524.49 541.261C1532.46 539.338 1540.76 537.22 1547.77 533.212C1562.35 524.884 1569.34 511.215 1568.45 494.621C1567.42 475.695 1557.52 462.71 1538.66 458.029C1521.98 453.889 1504.99 454.864 1486.32 455.791ZM1453.13 428.677C1472.2 428.563 1507.74 428.503 1526.8 428.675C1541.16 428.804 1555.23 431.394 1568.36 437.079C1589.76 446.346 1602.06 462.397 1603.11 486.379C1603.78 501.679 1602.31 516.174 1593.67 529.52C1582.85 546.254 1566.6 554.468 1548.3 559.553C1541.55 561.428 1534.46 562.092 1526.39 563.507C1557.6 601.6 1588.31 639.089 1620.69 678.613C1604.73 678.775 1591.15 678.79 1576.41 678.542C1547.89 642.343 1519.1 605.809 1490.31 569.275L1487.5 570.77V678.049H1453.13V428.677Z" fill="#231F20"/>
<path d="M1346.94 594.357C1331.15 551.059 1316.06 509.667 1300.67 467.464C1285.2 510.019 1270.04 551.719 1254.55 594.357H1346.94ZM1323.04 429.802C1345.58 489.107 1370.43 558.076 1392.89 617.414C1398.75 632.892 1404.62 648.366 1410.44 663.859C1412.07 668.188 1413.52 672.58 1415.43 678H1376.92C1369.99 659.37 1363.03 640.635 1355.94 621.551H1246.12C1239.27 639.839 1232.27 658.549 1225.01 677.967H1189.67C1220.71 594.667 1251.79 512.35 1282.95 429.802H1323.04Z" fill="#231F20"/>
<path d="M1943.96 555.43C1943.96 608.33 1974.51 655.72 2028.17 655.72C2082.22 655.72 2112.77 609.065 2112.77 552.859C2112.77 503.633 2085.35 452.201 2028.56 452.201C1972.16 452.201 1943.96 501.06 1943.96 555.43ZM2148.8 551.389C2148.8 636.618 2093.58 681.803 2026.21 681.803C1956.49 681.803 1907.54 631.108 1907.54 556.164C1907.54 477.549 1959.63 426.118 2030.13 426.118C2102.19 426.118 2148.8 477.917 2148.8 551.389Z" fill="#231F20"/>
<path d="M1857.89 552.003V664.459C1842.95 669.582 1813.44 678 1778.57 678C1739.49 678 1707.3 668.485 1682.01 645.429C1659.78 624.935 1645.98 591.998 1645.98 553.57C1646.37 480.01 1699.25 426.212 1785.85 426.212C1815.74 426.212 1846.78 434.086 1857.89 439.209L1849.85 465.193C1836.05 459.338 1811.14 452.928 1785.09 452.928C1722.24 452.928 1681.24 490.257 1681.24 552.107C1681.24 614.687 1720.71 651.65 1780.87 651.65C1802.71 651.65 1817.66 648.723 1825.32 645.064V552.21L1857.89 552.003Z" fill="#231F20"/>
<path d="M1019.02 640.137C1033.79 648.907 1055.38 656.214 1078.1 656.214C1111.81 656.214 1131.5 639.04 1131.5 614.194C1131.5 591.173 1117.87 578.018 1083.4 565.229C1041.74 550.978 1015.99 530.15 1015.99 495.437C1015.99 457.07 1048.94 428.568 1098.55 428.568C1124.69 428.568 1143.62 434.415 1154.99 440.627L1145.9 466.57C1137.56 462.185 1120.52 454.877 1097.42 454.877C1062.57 454.877 1049.32 474.975 1049.32 491.783C1049.32 514.803 1064.85 526.131 1100.07 539.285C1143.25 555.363 1165.21 575.46 1165.21 611.636C1165.21 649.637 1136.05 682.524 1075.83 682.524C1051.21 682.524 1024.32 675.581 1010.68 666.811L1019.02 640.137Z" fill="#231F20"/>
<path d="M86.25 254.75C83.0833 254.75 80.5 254 78.5 252.5C76.5 251 74.9167 248.75 73.75 245.75L5 88.5C3.83333 85.6667 3.5 83.3333 4 81.5C4.5 79.5 5.58333 77.9167 7.25 76.75C9.08333 75.5833 11.1667 75 13.5 75C16.6667 75 19 75.75 20.5 77.25C22.1667 78.5833 23.5 80.5833 24.5 83.25L90.5 236.5H82.5L148.25 83C149.417 80.5 150.833 78.5833 152.5 77.25C154.167 75.75 156.5 75 159.5 75C161.833 75 163.75 75.5833 165.25 76.75C166.917 77.9167 167.917 79.5 168.25 81.5C168.75 83.5 168.417 85.8333 167.25 88.5L98.5 245.75C97.3333 248.75 95.75 251 93.75 252.5C91.9167 254 89.4167 254.75 86.25 254.75ZM211.527 299.75C209.027 299.75 207.027 299.083 205.527 297.75C204.027 296.417 203.111 294.583 202.777 292.25C202.611 290.083 203.027 287.833 204.027 285.5L221.277 246.75V255.5L173.277 144C172.277 141.5 171.944 139.167 172.277 137C172.611 134.833 173.611 133.083 175.277 131.75C176.944 130.417 179.277 129.75 182.277 129.75C184.944 129.75 187.027 130.333 188.527 131.5C190.027 132.667 191.361 134.75 192.527 137.75L233.527 238.25H226.777L268.277 137.75C269.611 134.75 271.027 132.667 272.527 131.5C274.027 130.333 276.194 129.75 279.027 129.75C281.694 129.75 283.694 130.417 285.027 131.75C286.527 133.083 287.361 134.833 287.527 137C287.861 139 287.527 141.25 286.527 143.75L222.527 291.75C221.194 294.75 219.694 296.833 218.027 298C216.527 299.167 214.361 299.75 211.527 299.75ZM238.277 114C237.111 115.667 235.694 116.667 234.027 117C232.361 117.167 230.777 116.917 229.277 116.25C227.777 115.417 226.694 114.25 226.027 112.75C225.361 111.25 225.527 109.5 226.527 107.5L247.527 66.75C248.694 64.4167 250.194 62.9167 252.027 62.25C253.861 61.5833 255.694 61.5 257.527 62C259.527 62.3333 261.194 63.1667 262.527 64.5C263.861 65.8333 264.611 67.4167 264.777 69.25C265.111 71.0833 264.611 73 263.277 75L238.277 114ZM322.945 254.75C319.612 254.75 317.112 253.833 315.445 252C313.779 250.167 312.945 247.583 312.945 244.25V85.25C312.945 81.9167 313.779 79.4167 315.445 77.75C317.112 75.9167 319.612 75 322.945 75C326.112 75 328.612 75.9167 330.445 77.75C332.279 79.4167 333.195 81.9167 333.195 85.25V158.5H329.945C333.445 148.833 339.112 141.583 346.945 136.75C354.945 131.75 364.112 129.25 374.445 129.25C384.112 129.25 392.112 131 398.445 134.5C404.945 138 409.779 143.333 412.945 150.5C416.112 157.5 417.695 166.417 417.695 177.25V244.25C417.695 247.583 416.779 250.167 414.945 252C413.279 253.833 410.862 254.75 407.695 254.75C404.362 254.75 401.779 253.833 399.945 252C398.279 250.167 397.445 247.583 397.445 244.25V178.5C397.445 167.167 395.195 158.917 390.695 153.75C386.362 148.417 379.362 145.75 369.695 145.75C358.529 145.75 349.612 149.25 342.945 156.25C336.445 163.083 333.195 172.25 333.195 183.75V244.25C333.195 251.25 329.779 254.75 322.945 254.75ZM465.285 254.75C461.952 254.75 459.368 253.833 457.535 252C455.868 250.167 455.035 247.583 455.035 244.25V140C455.035 136.667 455.868 134.167 457.535 132.5C459.202 130.667 461.618 129.75 464.785 129.75C467.952 129.75 470.368 130.667 472.035 132.5C473.868 134.167 474.785 136.667 474.785 140V160.25H472.285C474.952 150.417 480.035 142.833 487.535 137.5C495.035 132.167 504.285 129.333 515.285 129C517.785 128.833 519.785 129.417 521.285 130.75C522.785 131.917 523.618 134 523.785 137C523.952 139.833 523.285 142.083 521.785 143.75C520.285 145.417 517.952 146.417 514.785 146.75L510.785 147.25C499.452 148.25 490.702 151.917 484.535 158.25C478.535 164.417 475.535 172.917 475.535 183.75V244.25C475.535 247.583 474.618 250.167 472.785 252C471.118 253.833 468.618 254.75 465.285 254.75ZM581.664 255.25C573.331 255.25 565.831 253.667 559.164 250.5C552.664 247.167 547.497 242.667 543.664 237C539.831 231.333 537.914 225 537.914 218C537.914 209 540.164 201.917 544.664 196.75C549.331 191.583 556.914 187.917 567.414 185.75C578.081 183.583 592.581 182.5 610.914 182.5H622.164V195.75H611.164C597.664 195.75 586.997 196.417 579.164 197.75C571.497 198.917 566.081 201 562.914 204C559.914 207 558.414 211.25 558.414 216.75C558.414 223.583 560.747 229.167 565.414 233.5C570.247 237.833 576.747 240 584.914 240C591.581 240 597.414 238.417 602.414 235.25C607.581 232.083 611.581 227.75 614.414 222.25C617.414 216.75 618.914 210.417 618.914 203.25V174.75C618.914 164.417 616.831 157 612.664 152.5C608.497 147.833 601.664 145.5 592.164 145.5C586.331 145.5 580.497 146.25 574.664 147.75C568.831 149.25 562.664 151.667 556.164 155C553.831 156.167 551.831 156.583 550.164 156.25C548.497 155.75 547.164 154.833 546.164 153.5C545.164 152.167 544.581 150.667 544.414 149C544.247 147.167 544.581 145.417 545.414 143.75C546.414 142.083 547.914 140.75 549.914 139.75C557.247 136.083 564.497 133.417 571.664 131.75C578.831 130.083 585.664 129.25 592.164 129.25C602.664 129.25 611.331 131 618.164 134.5C624.997 137.833 630.081 143 633.414 150C636.747 156.833 638.414 165.667 638.414 176.5V244.25C638.414 247.583 637.581 250.167 635.914 252C634.414 253.833 632.164 254.75 629.164 254.75C625.997 254.75 623.581 253.833 621.914 252C620.247 250.167 619.414 247.583 619.414 244.25V224.75H621.664C620.331 231.083 617.747 236.5 613.914 241C610.247 245.5 605.664 249 600.164 251.5C594.664 254 588.497 255.25 581.664 255.25ZM722.232 255.25C711.399 255.25 701.899 252.667 693.732 247.5C685.732 242.333 679.482 235.083 674.982 225.75C670.649 216.25 668.482 205.083 668.482 192.25C668.482 179.25 670.649 168.083 674.982 158.75C679.482 149.25 685.732 142 693.732 137C701.899 131.833 711.399 129.25 722.232 129.25C733.232 129.25 742.649 132 750.482 137.5C758.316 143 763.566 150.417 766.232 159.75H763.482V85.25C763.482 81.9167 764.316 79.4167 765.982 77.75C767.816 75.9167 770.399 75 773.732 75C776.899 75 779.316 75.9167 780.982 77.75C782.816 79.4167 783.732 81.9167 783.732 85.25V244.25C783.732 247.583 782.899 250.167 781.232 252C779.566 253.833 777.066 254.75 773.732 254.75C770.566 254.75 768.066 253.833 766.232 252C764.566 250.167 763.732 247.583 763.732 244.25V220.5L766.482 224C763.816 233.5 758.482 241.083 750.482 246.75C742.649 252.417 733.232 255.25 722.232 255.25ZM726.482 239C733.982 239 740.566 237.167 746.232 233.5C751.899 229.833 756.232 224.5 759.232 217.5C762.399 210.5 763.982 202.083 763.982 192.25C763.982 177.083 760.566 165.5 753.732 157.5C747.066 149.5 737.982 145.5 726.482 145.5C718.816 145.5 712.149 147.333 706.482 151C700.982 154.5 696.649 159.75 693.482 166.75C690.482 173.583 688.982 182.083 688.982 192.25C688.982 207.25 692.399 218.833 699.232 227C706.066 235 715.149 239 726.482 239ZM831.734 254.75C828.401 254.75 825.901 253.833 824.234 252C822.568 250.167 821.734 247.583 821.734 244.25V140C821.734 136.667 822.568 134.167 824.234 132.5C825.901 130.667 828.318 129.75 831.484 129.75C834.651 129.75 837.068 130.667 838.734 132.5C840.568 134.167 841.484 136.667 841.484 140V161.5L838.734 158.5C842.234 148.833 847.901 141.583 855.734 136.75C863.734 131.75 872.901 129.25 883.234 129.25C892.901 129.25 900.901 131 907.234 134.5C913.734 138 918.568 143.333 921.734 150.5C924.901 157.5 926.484 166.417 926.484 177.25V244.25C926.484 247.583 925.568 250.167 923.734 252C922.068 253.833 919.651 254.75 916.484 254.75C913.151 254.75 910.568 253.833 908.734 252C907.068 250.167 906.234 247.583 906.234 244.25V178.5C906.234 167.167 903.984 158.917 899.484 153.75C895.151 148.417 888.151 145.75 878.484 145.75C867.318 145.75 858.401 149.25 851.734 156.25C845.234 163.083 841.984 172.25 841.984 183.75V244.25C841.984 251.25 838.568 254.75 831.734 254.75ZM973.824 254.25C970.491 254.25 967.991 253.333 966.324 251.5C964.658 249.5 963.824 246.75 963.824 243.25V141C963.824 137.5 964.658 134.833 966.324 133C967.991 131.167 970.491 130.25 973.824 130.25C976.991 130.25 979.491 131.167 981.324 133C983.158 134.833 984.074 137.5 984.074 141V243.25C984.074 246.75 983.158 249.5 981.324 251.5C979.658 253.333 977.158 254.25 973.824 254.25ZM982.074 114C980.908 115.667 979.491 116.667 977.824 117C976.158 117.167 974.574 116.917 973.074 116.25C971.574 115.417 970.491 114.25 969.824 112.75C969.158 111.25 969.324 109.5 970.324 107.5L991.324 66.75C992.491 64.4167 993.991 62.9167 995.824 62.25C997.658 61.5833 999.491 61.5 1001.32 62C1003.32 62.3333 1004.99 63.1667 1006.32 64.5C1007.66 65.8333 1008.41 67.4167 1008.57 69.25C1008.91 71.0833 1008.41 73 1007.07 75L982.074 114ZM1132.63 255.25C1121.8 255.25 1112.3 252.667 1104.13 247.5C1096.13 242.333 1089.88 235.083 1085.38 225.75C1081.05 216.25 1078.88 205.083 1078.88 192.25C1078.88 179.25 1081.05 168.083 1085.38 158.75C1089.88 149.25 1096.13 142 1104.13 137C1112.3 131.833 1121.8 129.25 1132.63 129.25C1143.63 129.25 1153.05 132 1160.88 137.5C1168.72 143 1173.97 150.417 1176.63 159.75H1173.88V85.25C1173.88 81.9167 1174.72 79.4167 1176.38 77.75C1178.22 75.9167 1180.8 75 1184.13 75C1187.3 75 1189.72 75.9167 1191.38 77.75C1193.22 79.4167 1194.13 81.9167 1194.13 85.25V244.25C1194.13 247.583 1193.3 250.167 1191.63 252C1189.97 253.833 1187.47 254.75 1184.13 254.75C1180.97 254.75 1178.47 253.833 1176.63 252C1174.97 250.167 1174.13 247.583 1174.13 244.25V220.5L1176.88 224C1174.22 233.5 1168.88 241.083 1160.88 246.75C1153.05 252.417 1143.63 255.25 1132.63 255.25ZM1136.88 239C1144.38 239 1150.97 237.167 1156.63 233.5C1162.3 229.833 1166.63 224.5 1169.63 217.5C1172.8 210.5 1174.38 202.083 1174.38 192.25C1174.38 177.083 1170.97 165.5 1164.13 157.5C1157.47 149.5 1148.38 145.5 1136.88 145.5C1129.22 145.5 1122.55 147.333 1116.88 151C1111.38 154.5 1107.05 159.75 1103.88 166.75C1100.88 173.583 1099.38 182.083 1099.38 192.25C1099.38 207.25 1102.8 218.833 1109.63 227C1116.47 235 1125.55 239 1136.88 239ZM1242.13 254.25C1238.8 254.25 1236.3 253.333 1234.63 251.5C1232.97 249.5 1232.13 246.75 1232.13 243.25V141C1232.13 137.5 1232.97 134.833 1234.63 133C1236.3 131.167 1238.8 130.25 1242.13 130.25C1245.3 130.25 1247.8 131.167 1249.63 133C1251.47 134.833 1252.38 137.5 1252.38 141V243.25C1252.38 246.75 1251.47 249.5 1249.63 251.5C1247.97 253.333 1245.47 254.25 1242.13 254.25ZM1242.13 102.25C1237.97 102.25 1234.72 101.167 1232.38 99C1230.05 96.6667 1228.88 93.5833 1228.88 89.75C1228.88 85.75 1230.05 82.75 1232.38 80.75C1234.72 78.5833 1237.97 77.5 1242.13 77.5C1246.47 77.5 1249.72 78.5833 1251.88 80.75C1254.22 82.75 1255.38 85.75 1255.38 89.75C1255.38 93.5833 1254.22 96.6667 1251.88 99C1249.72 101.167 1246.47 102.25 1242.13 102.25ZM1331.24 255.25C1323.74 255.25 1316.16 254.333 1308.49 252.5C1300.99 250.667 1293.99 247.5 1287.49 243C1285.82 241.833 1284.66 240.5 1283.99 239C1283.32 237.333 1283.07 235.75 1283.24 234.25C1283.57 232.583 1284.24 231.167 1285.24 230C1286.41 228.833 1287.74 228.167 1289.24 228C1290.91 227.667 1292.74 228 1294.74 229C1301.24 233 1307.49 235.833 1313.49 237.5C1319.66 239 1325.74 239.75 1331.74 239.75C1341.24 239.75 1348.41 238 1353.24 234.5C1358.07 231 1360.49 226.25 1360.49 220.25C1360.49 215.583 1358.91 211.917 1355.74 209.25C1352.57 206.417 1347.57 204.25 1340.74 202.75L1317.99 197.75C1307.49 195.583 1299.66 191.833 1294.49 186.5C1289.49 181.167 1286.99 174.25 1286.99 165.75C1286.99 158.25 1288.91 151.833 1292.74 146.5C1296.74 141 1302.32 136.75 1309.49 133.75C1316.66 130.75 1324.99 129.25 1334.49 129.25C1341.82 129.25 1348.74 130.25 1355.24 132.25C1361.91 134.083 1367.91 137.083 1373.24 141.25C1374.91 142.417 1375.99 143.833 1376.49 145.5C1377.16 147 1377.24 148.583 1376.74 150.25C1376.41 151.75 1375.66 153.083 1374.49 154.25C1373.32 155.25 1371.91 155.833 1370.24 156C1368.57 156.167 1366.82 155.667 1364.99 154.5C1359.99 151.167 1354.91 148.75 1349.74 147.25C1344.57 145.583 1339.49 144.75 1334.49 144.75C1325.16 144.75 1318.07 146.583 1313.24 150.25C1308.41 153.917 1305.99 158.75 1305.99 164.75C1305.99 169.417 1307.49 173.25 1310.49 176.25C1313.49 179.25 1318.16 181.417 1324.49 182.75L1347.24 187.5C1358.07 189.833 1366.16 193.583 1371.49 198.75C1376.99 203.75 1379.74 210.583 1379.74 219.25C1379.74 230.25 1375.32 239 1366.49 245.5C1357.66 252 1345.91 255.25 1331.24 255.25ZM1458.13 255.25C1448.63 255.25 1440.63 253.583 1434.13 250.25C1427.8 246.75 1423.05 241.75 1419.88 235.25C1416.71 228.583 1415.13 220.5 1415.13 211V147.25H1398.38C1395.55 147.25 1393.38 146.583 1391.88 145.25C1390.38 143.75 1389.63 141.75 1389.63 139.25C1389.63 136.75 1390.38 134.833 1391.88 133.5C1393.38 132.167 1395.55 131.5 1398.38 131.5H1415.13V102.75C1415.13 99.4167 1416.05 96.9167 1417.88 95.25C1419.71 93.4167 1422.21 92.5 1425.38 92.5C1428.55 92.5 1430.96 93.4167 1432.63 95.25C1434.46 96.9167 1435.38 99.4167 1435.38 102.75V131.5H1466.88C1469.71 131.5 1471.88 132.167 1473.38 133.5C1474.88 134.833 1475.63 136.75 1475.63 139.25C1475.63 141.75 1474.88 143.75 1473.38 145.25C1471.88 146.583 1469.71 147.25 1466.88 147.25H1435.38V209C1435.38 218.5 1437.38 225.75 1441.38 230.75C1445.38 235.583 1451.88 238 1460.88 238C1464.05 238 1466.71 237.667 1468.88 237C1471.21 236.333 1473.13 236 1474.63 236C1476.13 235.833 1477.38 236.333 1478.38 237.5C1479.38 238.667 1479.88 240.667 1479.88 243.5C1479.88 245.5 1479.46 247.333 1478.63 249C1477.96 250.667 1476.71 251.833 1474.88 252.5C1472.88 253.167 1470.21 253.75 1466.88 254.25C1463.71 254.917 1460.8 255.25 1458.13 255.25ZM1507.03 254.75C1503.7 254.75 1501.12 253.833 1499.28 252C1497.62 250.167 1496.78 247.583 1496.78 244.25V140C1496.78 136.667 1497.62 134.167 1499.28 132.5C1500.95 130.667 1503.37 129.75 1506.53 129.75C1509.7 129.75 1512.12 130.667 1513.78 132.5C1515.62 134.167 1516.53 136.667 1516.53 140V160.25H1514.03C1516.7 150.417 1521.78 142.833 1529.28 137.5C1536.78 132.167 1546.03 129.333 1557.03 129C1559.53 128.833 1561.53 129.417 1563.03 130.75C1564.53 131.917 1565.37 134 1565.53 137C1565.7 139.833 1565.03 142.083 1563.53 143.75C1562.03 145.417 1559.7 146.417 1556.53 146.75L1552.53 147.25C1541.2 148.25 1532.45 151.917 1526.28 158.25C1520.28 164.417 1517.28 172.917 1517.28 183.75V244.25C1517.28 247.583 1516.37 250.167 1514.53 252C1512.87 253.833 1510.37 254.75 1507.03 254.75ZM1596.38 254.25C1593.05 254.25 1590.55 253.333 1588.88 251.5C1587.22 249.5 1586.38 246.75 1586.38 243.25V141C1586.38 137.5 1587.22 134.833 1588.88 133C1590.55 131.167 1593.05 130.25 1596.38 130.25C1599.55 130.25 1602.05 131.167 1603.88 133C1605.72 134.833 1606.63 137.5 1606.63 141V243.25C1606.63 246.75 1605.72 249.5 1603.88 251.5C1602.22 253.333 1599.72 254.25 1596.38 254.25ZM1596.38 102.25C1592.22 102.25 1588.97 101.167 1586.63 99C1584.3 96.6667 1583.13 93.5833 1583.13 89.75C1583.13 85.75 1584.3 82.75 1586.63 80.75C1588.97 78.5833 1592.22 77.5 1596.38 77.5C1600.72 77.5 1603.97 78.5833 1606.13 80.75C1608.47 82.75 1609.63 85.75 1609.63 89.75C1609.63 93.5833 1608.47 96.6667 1606.13 99C1603.97 101.167 1600.72 102.25 1596.38 102.25ZM1705.99 255.25C1694.99 255.25 1685.49 252.417 1677.49 246.75C1669.65 241.083 1664.4 233.5 1661.74 224L1664.49 221.25V244.25C1664.49 247.583 1663.57 250.167 1661.74 252C1660.07 253.833 1657.65 254.75 1654.49 254.75C1651.15 254.75 1648.65 253.833 1646.99 252C1645.32 250.167 1644.49 247.583 1644.49 244.25V85.25C1644.49 81.9167 1645.32 79.4167 1646.99 77.75C1648.65 75.9167 1651.15 75 1654.49 75C1657.65 75 1660.15 75.9167 1661.99 77.75C1663.82 79.4167 1664.74 81.9167 1664.74 85.25V159.75H1661.74C1664.57 150.417 1669.9 143 1677.74 137.5C1685.57 132 1694.99 129.25 1705.99 129.25C1716.99 129.25 1726.49 131.833 1734.49 137C1742.49 142 1748.65 149.25 1752.99 158.75C1757.49 168.083 1759.74 179.25 1759.74 192.25C1759.74 205.083 1757.49 216.25 1752.99 225.75C1748.65 235.083 1742.4 242.333 1734.24 247.5C1726.24 252.667 1716.82 255.25 1705.99 255.25ZM1701.74 239C1709.4 239 1715.99 237.167 1721.49 233.5C1727.15 229.833 1731.49 224.5 1734.49 217.5C1737.65 210.5 1739.24 202.083 1739.24 192.25C1739.24 177.083 1735.82 165.5 1728.99 157.5C1722.32 149.5 1713.24 145.5 1701.74 145.5C1694.24 145.5 1687.65 147.333 1681.99 151C1676.32 154.5 1671.9 159.75 1668.74 166.75C1665.74 173.583 1664.24 182.083 1664.24 192.25C1664.24 207.25 1667.65 218.833 1674.49 227C1681.32 235 1690.4 239 1701.74 239ZM1833.24 255.25C1823.41 255.25 1815.24 253.5 1808.74 250C1802.41 246.333 1797.57 240.917 1794.24 233.75C1791.07 226.583 1789.49 217.667 1789.49 207V140C1789.49 136.5 1790.32 133.917 1791.99 132.25C1793.82 130.583 1796.32 129.75 1799.49 129.75C1802.82 129.75 1805.32 130.583 1806.99 132.25C1808.82 133.917 1809.74 136.5 1809.74 140V206.75C1809.74 217.417 1811.91 225.417 1816.24 230.75C1820.74 235.917 1827.74 238.5 1837.24 238.5C1847.57 238.5 1855.99 235 1862.49 228C1868.99 221 1872.24 211.833 1872.24 200.5V140C1872.24 136.5 1873.07 133.917 1874.74 132.25C1876.57 130.583 1879.16 129.75 1882.49 129.75C1885.66 129.75 1888.07 130.583 1889.74 132.25C1891.57 133.917 1892.49 136.5 1892.49 140V244.25C1892.49 251.25 1889.24 254.75 1882.74 254.75C1879.57 254.75 1877.07 253.833 1875.24 252C1873.57 250.167 1872.74 247.583 1872.74 244.25V221.5L1875.99 225C1872.66 234.833 1867.16 242.333 1859.49 247.5C1851.99 252.667 1843.24 255.25 1833.24 255.25ZM1979.13 255.25C1969.63 255.25 1961.63 253.583 1955.13 250.25C1948.79 246.75 1944.04 241.75 1940.88 235.25C1937.71 228.583 1936.13 220.5 1936.13 211V147.25H1919.38C1916.54 147.25 1914.38 146.583 1912.88 145.25C1911.38 143.75 1910.63 141.75 1910.63 139.25C1910.63 136.75 1911.38 134.833 1912.88 133.5C1914.38 132.167 1916.54 131.5 1919.38 131.5H1936.13V102.75C1936.13 99.4167 1937.04 96.9167 1938.88 95.25C1940.71 93.4167 1943.21 92.5 1946.38 92.5C1949.54 92.5 1951.96 93.4167 1953.63 95.25C1955.46 96.9167 1956.38 99.4167 1956.38 102.75V131.5H1987.88C1990.71 131.5 1992.88 132.167 1994.38 133.5C1995.88 134.833 1996.63 136.75 1996.63 139.25C1996.63 141.75 1995.88 143.75 1994.38 145.25C1992.88 146.583 1990.71 147.25 1987.88 147.25H1956.38V209C1956.38 218.5 1958.38 225.75 1962.38 230.75C1966.38 235.583 1972.88 238 1981.88 238C1985.04 238 1987.71 237.667 1989.88 237C1992.21 236.333 1994.13 236 1995.63 236C1997.13 235.833 1998.38 236.333 1999.38 237.5C2000.38 238.667 2000.88 240.667 2000.88 243.5C2000.88 245.5 2000.46 247.333 1999.63 249C1998.96 250.667 1997.71 251.833 1995.88 252.5C1993.88 253.167 1991.21 253.75 1987.88 254.25C1984.71 254.917 1981.79 255.25 1979.13 255.25ZM2067.06 255.25C2055.23 255.25 2044.98 252.667 2036.31 247.5C2027.64 242.333 2020.89 235.083 2016.06 225.75C2011.39 216.25 2009.06 205.083 2009.06 192.25C2009.06 182.583 2010.39 173.917 2013.06 166.25C2015.73 158.417 2019.64 151.75 2024.81 146.25C2029.98 140.75 2036.06 136.583 2043.06 133.75C2050.23 130.75 2058.23 129.25 2067.06 129.25C2078.89 129.25 2089.14 131.833 2097.81 137C2106.48 142.167 2113.14 149.5 2117.81 159C2122.64 168.333 2125.06 179.417 2125.06 192.25C2125.06 201.917 2123.73 210.583 2121.06 218.25C2118.39 225.917 2114.48 232.583 2109.31 238.25C2104.14 243.75 2097.98 248 2090.81 251C2083.81 253.833 2075.89 255.25 2067.06 255.25ZM2067.06 239C2074.56 239 2081.14 237.167 2086.81 233.5C2092.48 229.833 2096.81 224.5 2099.81 217.5C2102.98 210.5 2104.56 202.083 2104.56 192.25C2104.56 177.083 2101.14 165.5 2094.31 157.5C2087.64 149.5 2078.56 145.5 2067.06 145.5C2059.39 145.5 2052.73 147.333 2047.06 151C2041.56 154.5 2037.23 159.75 2034.06 166.75C2031.06 173.583 2029.56 182.083 2029.56 192.25C2029.56 207.25 2032.98 218.833 2039.81 227C2046.64 235 2055.73 239 2067.06 239ZM2165.72 254.75C2162.39 254.75 2159.81 253.833 2157.97 252C2156.31 250.167 2155.47 247.583 2155.47 244.25V140C2155.47 136.667 2156.31 134.167 2157.97 132.5C2159.64 130.667 2162.06 129.75 2165.22 129.75C2168.39 129.75 2170.81 130.667 2172.47 132.5C2174.31 134.167 2175.22 136.667 2175.22 140V160.25H2172.72C2175.39 150.417 2180.47 142.833 2187.97 137.5C2195.47 132.167 2204.72 129.333 2215.72 129C2218.22 128.833 2220.22 129.417 2221.72 130.75C2223.22 131.917 2224.06 134 2224.22 137C2224.39 139.833 2223.72 142.083 2222.22 143.75C2220.72 145.417 2218.39 146.417 2215.22 146.75L2211.22 147.25C2199.89 148.25 2191.14 151.917 2184.97 158.25C2178.97 164.417 2175.97 172.917 2175.97 183.75V244.25C2175.97 247.583 2175.06 250.167 2173.22 252C2171.56 253.833 2169.06 254.75 2165.72 254.75Z" fill="black"/>
</svg>
