<svg width="2550" height="1244" viewBox="0 0 2550 1244" fill="none" xmlns="http://www.w3.org/2000/svg">
<path d="M2124 1151C2124 1154.31 2121.31 1157 2118 1157C2114.69 1157 2112 1154.31 2112 1151C2112 1147.69 2114.69 1145 2118 1145C2121.31 1145 2124 1147.69 2124 1151Z" fill="#231F20"/>
<path d="M1188.04 1160.41C1182.38 1179.76 1177.11 1197.76 1171.64 1216.47C1168.04 1216.64 1164.54 1216.8 1160.39 1217C1153.32 1194.51 1147.62 1172.03 1141 1149.15H1150.72C1156.34 1167.15 1160.97 1185.69 1166.4 1205.41C1172.25 1185.71 1177.68 1167.42 1183.14 1149H1194.1C1199.69 1167.41 1205.4 1186.22 1211.28 1205.58C1216.42 1186.61 1221.45 1168.04 1226.58 1149.12H1235C1233.43 1156.79 1231.38 1164.05 1229.49 1171.37C1227.54 1178.88 1225.2 1186.3 1223.12 1193.78C1221.04 1201.24 1219.06 1208.72 1216.95 1216.47H1204.92C1199.45 1198.3 1193.93 1179.97 1188.04 1160.41Z" fill="#231F20"/>
<path d="M2384.9 1182.67C2384.72 1172.73 2376.43 1165.12 2366.46 1166.08C2359.35 1166.77 2354.85 1170.72 2350.24 1175.9C2341.64 1162.9 2326.07 1163.46 2318.87 1174.92C2318.65 1172.49 2318.42 1170.06 2318.16 1167.18L2301 1168.41V1172.76C2303.91 1173.09 2306.37 1173.38 2309.64 1173.75C2309.64 1173.65 2309.64 1173.85 2309.64 1173.75L2310.03 1173.82V1217H2318.8C2318.8 1209.6 2318.48 1202.75 2318.92 1195.96C2319.2 1191.5 2319.63 1186.72 2321.59 1182.72C2323.65 1178.52 2326.8 1174.77 2331.37 1174.19C2337.6 1173.41 2343.69 1177.7 2343.96 1183.93C2343.96 1183.98 2343.97 1184.03 2343.97 1184.08C2344.16 1189.67 2343.95 1195.28 2343.95 1200.87C2343.95 1206.15 2343.95 1211.43 2343.95 1217H2353.3V1209.84C2353.3 1203.48 2353.27 1197.12 2353.31 1190.76C2353.35 1184.5 2354.93 1178.93 2360.16 1175.67C2362.81 1174.02 2366.29 1172.79 2370.17 1174.19C2374.19 1175.65 2375.61 1178.52 2375.77 1182.65C2376.13 1192.05 2375.84 1201.47 2375.92 1210.88C2375.93 1212.81 2375.82 1214.93 2375.98 1217H2384.92C2384.92 1205.85 2385.11 1193.9 2384.9 1182.67Z" fill="#231F20"/>
<path d="M1365.55 1202.45C1363.01 1208.2 1358.73 1211.95 1351.85 1211.57C1348.34 1211.37 1344.83 1211.32 1340.64 1211.18C1340.66 1200.63 1338.67 1190.75 1343.49 1181.31C1345.18 1178.01 1347.31 1175.3 1350.84 1173.84C1356.99 1171.28 1363.8 1173.86 1366 1180.06C1368.63 1187.5 1368.77 1195.16 1365.55 1202.45ZM1373.17 1173.82C1370.14 1168.42 1361.69 1165.48 1355.94 1166.08C1349.41 1166.76 1344.33 1169.75 1340.72 1175.87C1340.29 1172.63 1339.94 1170.03 1339.57 1167.21H1323V1172.51C1325.66 1172.95 1328.2 1173.38 1331.24 1173.89V1243.73C1334.8 1243.72 1337.52 1244.91 1340.6 1242.38V1218.02C1343.51 1218.4 1345.25 1218.82 1346.99 1218.82C1354.53 1218.85 1361.62 1217.76 1367.9 1212.78C1377.74 1204.96 1379.77 1185.59 1373.17 1173.82Z" fill="#231F20"/>
<path d="M1727.6 1167.04H1737C1735.73 1170.84 1734.78 1174.16 1733.53 1177.36C1727 1193.97 1720.39 1210.55 1713.81 1227.14C1713.72 1227.38 1713.7 1227.65 1713.6 1227.88C1708.41 1240.17 1702.87 1246.2 1686 1243.27C1686.46 1241.01 1686.91 1238.77 1687.36 1236.56C1691.57 1236.34 1695.13 1236.16 1698.31 1235.99C1703.91 1230.9 1704.63 1229.62 1708.6 1217.8C1702.14 1201.11 1695.63 1184.29 1688.93 1167H1699.23C1703.84 1179.52 1708.46 1192.08 1713.53 1205.87C1718.45 1192.29 1722.98 1179.79 1727.6 1167.04Z" fill="#231F20"/>
<path d="M1853.4 1210.88H1853.24V1210.85C1853.22 1210.84 1853.21 1210.84 1853.2 1210.84C1852.64 1195.99 1853.44 1181.53 1852.73 1167H1843.79C1843.79 1169.98 1843.82 1172.52 1843.78 1175.06C1843.68 1182.07 1843.5 1189.09 1843.45 1196.1C1843.42 1200.57 1841.39 1204.01 1838.39 1207.07C1834.71 1210.84 1830.49 1213.08 1825.19 1211.2C1819.97 1209.34 1819.92 1204.64 1819.88 1200.17C1819.79 1191.07 1820 1176.1 1819.94 1167L1802.01 1167.81C1802.13 1169.28 1801.93 1170.98 1802.03 1172.31C1804.98 1172.8 1807.44 1173.2 1810.62 1173.73C1810.62 1176.63 1810.61 1179.17 1810.62 1181.71C1810.65 1189.25 1810.51 1196.8 1810.76 1204.33C1811.11 1214.83 1817.91 1220.04 1828.19 1218.83C1835.54 1217.96 1840.35 1213.83 1844.6 1207.52C1844.81 1211.31 1844.97 1214.33 1845.15 1217.52H1861.74C1861.85 1215.48 1861.92 1214.07 1862 1212.5C1858.95 1211.93 1856.32 1211.43 1853.4 1210.88Z" fill="#231F20"/>
<path d="M2243.91 1173.94H2243.99V1217H2253.35C2253.38 1213.47 2253.43 1192.05 2253.61 1188.52C2253.86 1183.75 2257.11 1178.47 2261.62 1175.23C2267.65 1170.91 2277.66 1172.23 2277.55 1182.7C2277.49 1188.17 2277.51 1211.53 2277.54 1217H2286.99C2287.01 1210.95 2287 1187.02 2286.87 1180.97C2286.63 1169.82 2279.64 1164.7 2268.29 1166.28C2261.7 1167.2 2257.53 1170.17 2252.44 1176.98C2252.23 1173.34 2252.05 1170.38 2251.88 1167.44L2235 1168.32V1172.51C2237.85 1172.9 2240.36 1173.24 2243.91 1173.73C2243.91 1173.8 2243.91 1173.87 2243.91 1173.94Z" fill="#231F20"/>
<path d="M2069.52 1217C2063.04 1200.76 2056.6 1184.64 2050 1168.1C2053.26 1166.35 2056.46 1167.13 2060.09 1167.49C2064.8 1180.23 2069.51 1192.93 2074.64 1206.77C2079.78 1193.28 2084.64 1180.54 2089.61 1167.49H2099C2093.01 1184.65 2085.77 1200.6 2079.23 1217H2069.52Z" fill="#231F20"/>
<path d="M2547.7 1210.31C2539.24 1213.27 2533.9 1209.49 2534.28 1199.95C2534.3 1199.5 2534.28 1196.16 2534.29 1195.71L2534.25 1190.37V1173.81H2547.34C2548.22 1173.76 2549.1 1173.72 2550 1173.67C2549.74 1171.3 2549.56 1169.69 2549.31 1167.44L2534.4 1167.06C2534.48 1160.7 2534.53 1155.48 2534.53 1149C2531.66 1149.95 2527.63 1150.91 2524.47 1151.96V1167.33C2520.66 1167.63 2517.59 1167.87 2514 1168.15C2514.12 1170.17 2514.21 1171.77 2514.32 1173.57C2517.85 1173.92 2520.92 1174.23 2524.87 1174.63C2524.87 1177.3 2524.87 1179.75 2524.87 1182.2C2524.87 1189.01 2524.66 1195.83 2524.94 1202.63C2525.17 1208.41 2525.45 1214.39 2531.46 1217.35C2537.15 1219.71 2543.8 1219.53 2549.68 1216.86L2549.82 1209.21C2549.24 1209.61 2548.08 1210.18 2547.7 1210.31Z" fill="#231F20"/>
<path d="M2113.71 1173.26C2110.36 1172.92 2108.17 1172.7 2105.49 1172.43C2105.34 1170.72 2105.19 1169.13 2105 1167H2122V1217H2113.71V1173.26Z" fill="#231F20"/>
<path d="M1656.76 1210.31C1648.54 1213.27 1643.35 1209.49 1643.72 1199.95C1643.74 1199.5 1643.71 1196.16 1643.73 1195.71L1643.69 1190.37V1173.81H1656.42C1657.27 1173.76 1658.12 1173.72 1659 1173.67C1658.75 1171.3 1658.57 1169.69 1658.33 1167.44L1643.84 1167.06C1643.91 1160.7 1643.96 1155.48 1643.96 1149C1641.17 1149.95 1637.25 1150.91 1634.18 1151.96V1167.33C1630.47 1167.63 1627.49 1167.87 1624 1168.15C1624.11 1170.17 1624.2 1171.77 1624.31 1173.57C1627.74 1173.92 1630.73 1174.23 1634.57 1174.63V1182.2C1634.57 1189.01 1634.37 1195.83 1634.63 1202.63C1634.86 1208.41 1635.13 1214.39 1640.97 1217.35C1646.51 1219.71 1652.97 1219.53 1658.69 1216.86L1658.82 1209.21C1658.26 1209.61 1657.13 1210.18 1656.76 1210.31Z" fill="#231F20"/>
<path d="M1515.76 1210.31C1507.54 1213.27 1502.35 1209.49 1502.72 1199.95C1502.74 1199.5 1502.71 1196.16 1502.73 1195.71L1502.69 1190.37V1173.81H1515.42C1516.27 1173.76 1517.12 1173.72 1518 1173.67C1517.75 1171.3 1517.57 1169.69 1517.33 1167.44L1502.84 1167.06C1502.91 1160.7 1502.96 1155.48 1502.96 1149C1500.17 1149.95 1496.25 1150.91 1493.18 1151.96V1167.33C1489.47 1167.63 1486.49 1167.87 1483 1168.15C1483.11 1170.17 1483.2 1171.77 1483.31 1173.57C1486.96 1173.74 1489.77 1173.9 1493.63 1173.89C1493.63 1176.56 1493.57 1179.75 1493.57 1182.2C1493.57 1189.01 1493.37 1195.83 1493.63 1202.63C1493.86 1208.41 1494.13 1214.39 1499.97 1217.35C1505.51 1219.71 1511.97 1219.53 1517.69 1216.86L1517.82 1209.21C1517.26 1209.61 1516.13 1210.18 1515.76 1210.31Z" fill="#231F20"/>
<path d="M2461.74 1173.94H2461.82V1217H2471C2471.02 1213.47 2471.08 1192.05 2471.26 1188.52C2471.5 1183.75 2474.68 1178.47 2479.11 1175.23C2485.02 1170.91 2494.84 1172.23 2494.73 1182.7C2494.68 1188.17 2494.69 1211.53 2494.73 1217H2503.99C2504.01 1210.95 2504 1187.02 2503.87 1180.97C2503.64 1169.82 2496.78 1164.7 2485.65 1166.28C2479.18 1167.2 2475.09 1170.17 2470.11 1176.98C2469.9 1173.34 2469.73 1170.38 2469.56 1167.44L2453 1168.32V1172.51C2455.79 1172.9 2458.26 1173.24 2461.74 1173.73C2461.74 1173.8 2461.74 1173.87 2461.74 1173.94Z" fill="#231F20"/>
<path d="M1996.74 1173.94H1996.82V1217H2006C2006.02 1213.47 2006.08 1192.05 2006.26 1188.52C2006.5 1183.75 2009.68 1178.47 2014.11 1175.23C2020.02 1170.91 2029.84 1172.23 2029.73 1182.69C2029.68 1188.17 2029.69 1211.53 2029.73 1217H2038.99C2039.01 1210.95 2039 1187.02 2038.87 1180.97C2038.64 1169.82 2031.78 1164.7 2020.65 1166.28C2014.19 1167.2 2010.09 1170.17 2005.1 1176.98C2004.9 1173.34 2004.73 1170.38 2004.56 1167.44L1988 1168.32V1172.51C1990.79 1172.9 1993.26 1173.24 1996.74 1173.73C1996.74 1173.8 1996.74 1173.87 1996.74 1173.94Z" fill="#231F20"/>
<path d="M1755.41 1192.6C1755.41 1203.71 1761.86 1212.09 1770.95 1212.09C1779.83 1212.09 1786.49 1203.81 1786.49 1192.4C1786.49 1183.81 1782.15 1172.91 1771.16 1172.91C1760.17 1172.91 1755.41 1182.97 1755.41 1192.6ZM1796 1192.08C1796 1210.83 1782.89 1219 1770.52 1219C1756.68 1219 1746 1208.95 1746 1192.92C1746 1175.95 1757.2 1166 1771.37 1166C1786.06 1166 1796 1176.58 1796 1192.08Z" fill="#231F20"/>
<path d="M1436.41 1192.6C1436.41 1203.71 1442.86 1212.09 1451.95 1212.09C1460.83 1212.09 1467.49 1203.81 1467.49 1192.4C1467.49 1183.81 1463.15 1172.91 1452.16 1172.91C1441.17 1172.91 1436.41 1182.97 1436.41 1192.6ZM1477 1192.08C1477 1210.83 1463.89 1219 1451.53 1219C1437.68 1219 1427 1208.95 1427 1192.92C1427 1175.95 1438.2 1166 1452.37 1166C1467.06 1166 1477 1176.58 1477 1192.08Z" fill="#231F20"/>
<path d="M2187.22 1192.6C2187.22 1203.71 2193.54 1212.09 2202.45 1212.09C2211.15 1212.09 2217.68 1203.81 2217.68 1192.4C2217.68 1183.81 2213.43 1172.91 2202.66 1172.91C2191.88 1172.91 2187.22 1182.97 2187.22 1192.6ZM2227 1192.08C2227 1210.83 2214.15 1219 2202.03 1219C2188.46 1219 2178 1208.95 2178 1192.92C2178 1175.95 2188.98 1166 2202.86 1166C2217.26 1166 2227 1176.58 2227 1192.08Z" fill="#231F20"/>
<path d="M1562.04 1187.62C1562.15 1181.74 1559.62 1172.61 1549.19 1172.61C1539.81 1172.61 1535.7 1181.22 1534.96 1187.62H1562.04ZM1534.85 1194.23C1535.06 1206.72 1543.07 1211.86 1552.35 1211.86C1558.99 1211.86 1562.99 1210.71 1566.47 1209.24L1568.05 1215.85C1564.78 1217.32 1559.2 1219 1551.08 1219C1535.38 1219 1526 1208.71 1526 1193.39C1526 1178.07 1535.06 1166 1549.92 1166C1566.57 1166 1571 1180.59 1571 1189.93C1571 1191.82 1570.79 1193.29 1570.68 1194.23H1534.85Z" fill="#231F20"/>
<path d="M1279.04 1187.62C1279.15 1181.74 1276.62 1172.61 1266.19 1172.61C1256.81 1172.61 1252.7 1181.22 1251.96 1187.62H1279.04ZM1251.85 1194.23C1252.06 1206.72 1260.07 1211.86 1269.35 1211.86C1275.99 1211.86 1279.99 1210.71 1283.47 1209.24L1285.05 1215.85C1281.78 1217.32 1276.2 1219 1268.08 1219C1252.38 1219 1243 1208.71 1243 1193.39C1243 1178.07 1252.06 1166 1266.92 1166C1283.57 1166 1288 1180.59 1288 1189.93C1288 1191.82 1287.79 1193.29 1287.68 1194.23H1251.85Z" fill="#231F20"/>
<path d="M1969.84 1187.21C1969.95 1181.45 1967.37 1172.49 1956.7 1172.49C1947.11 1172.49 1942.91 1180.93 1942.16 1187.21H1969.84ZM1942.05 1193.7C1942.26 1205.95 1950.45 1211 1959.93 1211C1966.72 1211 1970.81 1209.87 1974.37 1208.42L1975.98 1214.91C1972.64 1216.35 1966.93 1218 1958.64 1218C1942.59 1218 1933 1207.91 1933 1192.87C1933 1177.84 1942.26 1166 1957.46 1166C1974.48 1166 1979 1180.31 1979 1189.48C1979 1191.33 1978.78 1192.77 1978.68 1193.7H1942.05Z" fill="#231F20"/>
<path d="M2434.24 1187.21C2434.34 1181.45 2431.87 1172.49 2421.67 1172.49C2412.5 1172.49 2408.48 1180.93 2407.76 1187.21H2434.24ZM2407.66 1193.7C2407.86 1205.95 2415.69 1211 2424.76 1211C2431.25 1211 2435.17 1209.87 2438.57 1208.42L2440.12 1214.91C2436.92 1216.35 2431.46 1218 2423.52 1218C2408.17 1218 2399 1207.91 2399 1192.87C2399 1177.84 2407.86 1166 2422.39 1166C2438.67 1166 2443 1180.31 2443 1189.48C2443 1191.33 2442.79 1192.77 2442.69 1193.7H2407.66Z" fill="#231F20"/>
<path d="M1616.8 1216.11C1614.51 1217.35 1609.44 1219 1602.97 1219C1588.45 1219 1579 1208.79 1579 1193.52C1579 1178.14 1589.15 1167 1604.86 1167C1610.04 1167 1614.61 1168.34 1617 1169.58L1615.01 1176.59C1612.92 1175.36 1609.64 1174.22 1604.86 1174.22C1593.82 1174.22 1587.85 1182.68 1587.85 1193.1C1587.85 1204.66 1595.02 1211.78 1604.57 1211.78C1609.54 1211.78 1612.82 1210.44 1615.31 1209.3L1616.8 1216.11Z" fill="#231F20"/>
<path d="M2143.28 1217H2152.73C2152.71 1206.82 2152.7 1197.06 2152.79 1191.65C2152.85 1187.77 2153.6 1184.17 2155.4 1181.06C2158.18 1176.29 2163.72 1173.57 2169.41 1173.88L2169.58 1173.89C2169.73 1171.11 2169.86 1168.73 2170 1166.1C2161.24 1165.27 2156.24 1169.68 2151.42 1176.83C2151.54 1172.73 2151.42 1170.18 2151.61 1167.21L2137.02 1167.96L2137 1167.97V1172.62C2138.98 1172.82 2140.55 1173.03 2143.28 1173.28V1217Z" fill="#231F20"/>
<path d="M1875.28 1217H1884.73C1884.71 1206.82 1884.7 1197.06 1884.79 1191.65C1884.85 1187.77 1885.6 1184.17 1887.4 1181.06C1890.18 1176.29 1895.72 1173.57 1901.41 1173.88L1901.58 1173.89C1901.73 1171.11 1901.86 1168.73 1902 1166.1C1893.23 1165.27 1888.24 1169.68 1883.42 1176.83C1883.54 1172.73 1883.42 1170.18 1883.61 1167.21L1869.02 1167.96L1869 1167.97V1172.62C1870.98 1172.82 1872.55 1173.03 1875.28 1173.28V1217Z" fill="#231F20"/>
<path d="M1394.28 1217H1403.73C1403.71 1206.82 1403.7 1197.06 1403.79 1191.65C1403.85 1187.77 1404.6 1184.17 1406.41 1181.06C1409.18 1176.29 1414.72 1173.57 1420.41 1173.88L1420.58 1173.89C1420.73 1171.11 1420.86 1168.73 1421 1166.1C1412.24 1165.27 1407.24 1169.68 1402.42 1176.83C1402.54 1172.73 1402.42 1170.18 1402.61 1167.21L1388.02 1167.96L1388 1167.97V1172.62C1389.98 1172.82 1391.55 1173.03 1394.28 1173.28V1217Z" fill="#231F20"/>
<path d="M969.369 783.34C969.369 812.806 945.482 836.694 916.016 836.694C886.55 836.694 862.662 812.806 862.662 783.34C862.662 753.874 886.55 729.987 916.016 729.987C945.482 729.987 969.369 753.874 969.369 783.34Z" fill="#86C040"/>
<path d="M727.945 783.34C727.945 812.806 704.058 836.694 674.591 836.694C645.126 836.694 621.238 812.806 621.238 783.34C621.238 753.874 645.126 729.987 674.591 729.987C704.058 729.987 727.945 753.874 727.945 783.34Z" fill="#86C040"/>
<path d="M684.707 896.91C684.707 926.376 660.82 950.264 631.353 950.264C601.887 950.264 578 926.376 578 896.91C578 867.444 601.887 843.556 631.353 843.556C660.82 843.556 684.707 867.444 684.707 896.91Z" fill="#86C040"/>
<path d="M1014.16 896.91C1014.16 926.376 990.277 950.264 960.81 950.264C931.344 950.264 907.457 926.376 907.457 896.91C907.457 867.444 931.344 843.556 960.81 843.556C990.277 843.556 1014.16 867.444 1014.16 896.91Z" fill="#86C040"/>
<path d="M869.998 896.91C869.998 937.793 836.855 970.938 795.97 970.938C755.086 970.938 721.943 937.793 721.943 896.91C721.943 856.026 755.086 822.882 795.97 822.882C836.855 822.882 869.998 856.026 869.998 896.91Z" fill="#86C040"/>
<path d="M727.945 1013.4C727.945 1042.87 704.058 1066.76 674.591 1066.76C645.126 1066.76 621.238 1042.87 621.238 1013.4C621.238 983.937 645.126 960.05 674.591 960.05C704.058 960.05 727.945 983.937 727.945 1013.4Z" fill="#86C040"/>
<path d="M961.672 1013.4C961.672 1042.87 937.785 1066.76 908.319 1066.76C878.853 1066.76 854.965 1042.87 854.965 1013.4C854.965 983.937 878.853 960.05 908.319 960.05C937.785 960.05 961.672 983.937 961.672 1013.4Z" fill="#86C040"/>
<path d="M849.324 1065.9C849.324 1095.36 825.437 1119.25 795.97 1119.25C766.505 1119.25 742.617 1095.36 742.617 1065.9C742.617 1036.43 766.505 1012.54 795.97 1012.54C825.437 1012.54 849.324 1036.43 849.324 1065.9Z" fill="#86C040"/>
<path d="M849.324 735.353C849.324 764.819 825.437 788.707 795.97 788.707C766.505 788.707 742.617 764.819 742.617 735.353C742.617 705.887 766.505 682 795.97 682C825.437 682 849.324 705.887 849.324 735.353Z" fill="#86C040"/>
<path d="M1616.32 812.791C1616.54 842.387 1615.94 870.349 1616.77 899.323C1630.21 899.448 1642.46 901.166 1654.49 898.261C1662.46 896.338 1670.76 894.22 1677.77 890.212C1692.35 881.884 1699.34 868.215 1698.45 851.621C1697.42 832.695 1687.52 819.71 1668.66 815.029C1651.98 810.889 1634.99 811.864 1616.32 812.791ZM1583.13 785.677C1602.2 785.563 1637.74 785.503 1656.8 785.675C1671.16 785.804 1685.23 788.394 1698.36 794.079C1719.76 803.346 1732.06 819.397 1733.11 843.379C1733.78 858.679 1732.31 873.174 1723.67 886.52C1712.85 903.254 1696.6 911.468 1678.3 916.553C1671.55 918.428 1664.46 919.092 1656.39 920.507C1687.6 958.6 1718.31 996.089 1750.69 1035.61C1734.73 1035.77 1721.15 1035.79 1706.41 1035.54C1677.89 999.343 1649.1 962.809 1620.31 926.275L1617.5 927.77V1035.05H1583.13V785.677Z" fill="#231F20"/>
<path d="M1476.94 951.357C1461.15 908.059 1446.06 866.667 1430.67 824.464C1415.2 867.019 1400.04 908.719 1384.55 951.357H1476.94ZM1453.04 786.802C1475.58 846.107 1500.43 915.076 1522.89 974.414C1528.75 989.892 1534.62 1005.37 1540.44 1020.86C1542.07 1025.19 1543.52 1029.58 1545.43 1035H1506.92C1499.99 1016.37 1493.03 997.635 1485.94 978.551H1376.12C1369.27 996.839 1362.27 1015.55 1355.01 1034.97H1319.67C1350.71 951.667 1381.79 869.35 1412.95 786.802H1453.04Z" fill="#231F20"/>
<path d="M2073.96 912.43C2073.96 965.33 2104.51 1012.72 2158.17 1012.72C2212.22 1012.72 2242.77 966.065 2242.77 909.859C2242.77 860.633 2215.35 809.201 2158.56 809.201C2102.16 809.201 2073.96 858.06 2073.96 912.43ZM2278.8 908.389C2278.8 993.618 2223.58 1038.8 2156.21 1038.8C2086.49 1038.8 2037.54 988.108 2037.54 913.164C2037.54 834.549 2089.63 783.118 2160.13 783.118C2232.19 783.118 2278.8 834.917 2278.8 908.389Z" fill="#231F20"/>
<path d="M1987.89 909.003V1021.46C1972.95 1026.58 1943.44 1035 1908.57 1035C1869.48 1035 1837.29 1025.49 1812 1002.43C1789.78 981.935 1775.98 948.998 1775.98 910.57C1776.37 837.01 1829.25 783.212 1915.85 783.212C1945.74 783.212 1976.78 791.086 1987.89 796.209L1979.84 822.193C1966.05 816.338 1941.14 809.928 1915.08 809.928C1852.24 809.928 1811.24 847.257 1811.24 909.107C1811.24 971.687 1850.71 1008.65 1910.87 1008.65C1932.71 1008.65 1947.66 1005.72 1955.32 1002.06V909.21L1987.89 909.003Z" fill="#231F20"/>
<path d="M1149.02 997.137C1163.79 1005.91 1185.38 1013.21 1208.1 1013.21C1241.81 1013.21 1261.51 996.04 1261.51 971.194C1261.51 948.173 1247.87 935.018 1213.41 922.229C1171.74 907.978 1145.99 887.15 1145.99 852.437C1145.99 814.07 1178.94 785.568 1228.56 785.568C1254.69 785.568 1273.63 791.415 1284.99 797.627L1275.9 823.57C1267.57 819.185 1250.52 811.877 1227.42 811.877C1192.57 811.877 1179.32 831.975 1179.32 848.783C1179.32 871.803 1194.85 883.131 1230.07 896.285C1273.25 912.363 1295.21 932.46 1295.21 968.636C1295.21 1006.64 1266.05 1039.52 1205.83 1039.52C1181.21 1039.52 1154.32 1032.58 1140.69 1023.81L1149.02 997.137Z" fill="#231F20"/>
<path d="M86.25 254.75C83.0833 254.75 80.5 254 78.5 252.5C76.5 251 74.9167 248.75 73.75 245.75L5 88.5C3.83333 85.6667 3.5 83.3333 4 81.5C4.5 79.5 5.58333 77.9167 7.25 76.75C9.08333 75.5833 11.1667 75 13.5 75C16.6667 75 19 75.75 20.5 77.25C22.1667 78.5833 23.5 80.5833 24.5 83.25L90.5 236.5H82.5L148.25 83C149.417 80.5 150.833 78.5833 152.5 77.25C154.167 75.75 156.5 75 159.5 75C161.833 75 163.75 75.5833 165.25 76.75C166.917 77.9167 167.917 79.5 168.25 81.5C168.75 83.5 168.417 85.8333 167.25 88.5L98.5 245.75C97.3333 248.75 95.75 251 93.75 252.5C91.9167 254 89.4167 254.75 86.25 254.75ZM211.527 299.75C209.027 299.75 207.027 299.083 205.527 297.75C204.027 296.417 203.111 294.583 202.777 292.25C202.611 290.083 203.027 287.833 204.027 285.5L221.277 246.75V255.5L173.277 144C172.277 141.5 171.944 139.167 172.277 137C172.611 134.833 173.611 133.083 175.277 131.75C176.944 130.417 179.277 129.75 182.277 129.75C184.944 129.75 187.027 130.333 188.527 131.5C190.027 132.667 191.361 134.75 192.527 137.75L233.527 238.25H226.777L268.277 137.75C269.611 134.75 271.027 132.667 272.527 131.5C274.027 130.333 276.194 129.75 279.027 129.75C281.694 129.75 283.694 130.417 285.027 131.75C286.527 133.083 287.361 134.833 287.527 137C287.861 139 287.527 141.25 286.527 143.75L222.527 291.75C221.194 294.75 219.694 296.833 218.027 298C216.527 299.167 214.361 299.75 211.527 299.75ZM238.277 114C237.111 115.667 235.694 116.667 234.027 117C232.361 117.167 230.777 116.917 229.277 116.25C227.777 115.417 226.694 114.25 226.027 112.75C225.361 111.25 225.527 109.5 226.527 107.5L247.527 66.75C248.694 64.4167 250.194 62.9167 252.027 62.25C253.861 61.5833 255.694 61.5 257.527 62C259.527 62.3333 261.194 63.1667 262.527 64.5C263.861 65.8333 264.611 67.4167 264.777 69.25C265.111 71.0833 264.611 73 263.277 75L238.277 114ZM322.945 254.75C319.612 254.75 317.112 253.833 315.445 252C313.779 250.167 312.945 247.583 312.945 244.25V85.25C312.945 81.9167 313.779 79.4167 315.445 77.75C317.112 75.9167 319.612 75 322.945 75C326.112 75 328.612 75.9167 330.445 77.75C332.279 79.4167 333.195 81.9167 333.195 85.25V158.5H329.945C333.445 148.833 339.112 141.583 346.945 136.75C354.945 131.75 364.112 129.25 374.445 129.25C384.112 129.25 392.112 131 398.445 134.5C404.945 138 409.779 143.333 412.945 150.5C416.112 157.5 417.695 166.417 417.695 177.25V244.25C417.695 247.583 416.779 250.167 414.945 252C413.279 253.833 410.862 254.75 407.695 254.75C404.362 254.75 401.779 253.833 399.945 252C398.279 250.167 397.445 247.583 397.445 244.25V178.5C397.445 167.167 395.195 158.917 390.695 153.75C386.362 148.417 379.362 145.75 369.695 145.75C358.529 145.75 349.612 149.25 342.945 156.25C336.445 163.083 333.195 172.25 333.195 183.75V244.25C333.195 251.25 329.779 254.75 322.945 254.75ZM465.285 254.75C461.952 254.75 459.368 253.833 457.535 252C455.868 250.167 455.035 247.583 455.035 244.25V140C455.035 136.667 455.868 134.167 457.535 132.5C459.202 130.667 461.618 129.75 464.785 129.75C467.952 129.75 470.368 130.667 472.035 132.5C473.868 134.167 474.785 136.667 474.785 140V160.25H472.285C474.952 150.417 480.035 142.833 487.535 137.5C495.035 132.167 504.285 129.333 515.285 129C517.785 128.833 519.785 129.417 521.285 130.75C522.785 131.917 523.618 134 523.785 137C523.952 139.833 523.285 142.083 521.785 143.75C520.285 145.417 517.952 146.417 514.785 146.75L510.785 147.25C499.452 148.25 490.702 151.917 484.535 158.25C478.535 164.417 475.535 172.917 475.535 183.75V244.25C475.535 247.583 474.618 250.167 472.785 252C471.118 253.833 468.618 254.75 465.285 254.75ZM581.664 255.25C573.331 255.25 565.831 253.667 559.164 250.5C552.664 247.167 547.497 242.667 543.664 237C539.831 231.333 537.914 225 537.914 218C537.914 209 540.164 201.917 544.664 196.75C549.331 191.583 556.914 187.917 567.414 185.75C578.081 183.583 592.581 182.5 610.914 182.5H622.164V195.75H611.164C597.664 195.75 586.997 196.417 579.164 197.75C571.497 198.917 566.081 201 562.914 204C559.914 207 558.414 211.25 558.414 216.75C558.414 223.583 560.747 229.167 565.414 233.5C570.247 237.833 576.747 240 584.914 240C591.581 240 597.414 238.417 602.414 235.25C607.581 232.083 611.581 227.75 614.414 222.25C617.414 216.75 618.914 210.417 618.914 203.25V174.75C618.914 164.417 616.831 157 612.664 152.5C608.497 147.833 601.664 145.5 592.164 145.5C586.331 145.5 580.497 146.25 574.664 147.75C568.831 149.25 562.664 151.667 556.164 155C553.831 156.167 551.831 156.583 550.164 156.25C548.497 155.75 547.164 154.833 546.164 153.5C545.164 152.167 544.581 150.667 544.414 149C544.247 147.167 544.581 145.417 545.414 143.75C546.414 142.083 547.914 140.75 549.914 139.75C557.247 136.083 564.497 133.417 571.664 131.75C578.831 130.083 585.664 129.25 592.164 129.25C602.664 129.25 611.331 131 618.164 134.5C624.997 137.833 630.081 143 633.414 150C636.747 156.833 638.414 165.667 638.414 176.5V244.25C638.414 247.583 637.581 250.167 635.914 252C634.414 253.833 632.164 254.75 629.164 254.75C625.997 254.75 623.581 253.833 621.914 252C620.247 250.167 619.414 247.583 619.414 244.25V224.75H621.664C620.331 231.083 617.747 236.5 613.914 241C610.247 245.5 605.664 249 600.164 251.5C594.664 254 588.497 255.25 581.664 255.25ZM722.232 255.25C711.399 255.25 701.899 252.667 693.732 247.5C685.732 242.333 679.482 235.083 674.982 225.75C670.649 216.25 668.482 205.083 668.482 192.25C668.482 179.25 670.649 168.083 674.982 158.75C679.482 149.25 685.732 142 693.732 137C701.899 131.833 711.399 129.25 722.232 129.25C733.232 129.25 742.649 132 750.482 137.5C758.316 143 763.566 150.417 766.232 159.75H763.482V85.25C763.482 81.9167 764.316 79.4167 765.982 77.75C767.816 75.9167 770.399 75 773.732 75C776.899 75 779.316 75.9167 780.982 77.75C782.816 79.4167 783.732 81.9167 783.732 85.25V244.25C783.732 247.583 782.899 250.167 781.232 252C779.566 253.833 777.066 254.75 773.732 254.75C770.566 254.75 768.066 253.833 766.232 252C764.566 250.167 763.732 247.583 763.732 244.25V220.5L766.482 224C763.816 233.5 758.482 241.083 750.482 246.75C742.649 252.417 733.232 255.25 722.232 255.25ZM726.482 239C733.982 239 740.566 237.167 746.232 233.5C751.899 229.833 756.232 224.5 759.232 217.5C762.399 210.5 763.982 202.083 763.982 192.25C763.982 177.083 760.566 165.5 753.732 157.5C747.066 149.5 737.982 145.5 726.482 145.5C718.816 145.5 712.149 147.333 706.482 151C700.982 154.5 696.649 159.75 693.482 166.75C690.482 173.583 688.982 182.083 688.982 192.25C688.982 207.25 692.399 218.833 699.232 227C706.066 235 715.149 239 726.482 239ZM831.734 254.75C828.401 254.75 825.901 253.833 824.234 252C822.568 250.167 821.734 247.583 821.734 244.25V140C821.734 136.667 822.568 134.167 824.234 132.5C825.901 130.667 828.318 129.75 831.484 129.75C834.651 129.75 837.068 130.667 838.734 132.5C840.568 134.167 841.484 136.667 841.484 140V161.5L838.734 158.5C842.234 148.833 847.901 141.583 855.734 136.75C863.734 131.75 872.901 129.25 883.234 129.25C892.901 129.25 900.901 131 907.234 134.5C913.734 138 918.568 143.333 921.734 150.5C924.901 157.5 926.484 166.417 926.484 177.25V244.25C926.484 247.583 925.568 250.167 923.734 252C922.068 253.833 919.651 254.75 916.484 254.75C913.151 254.75 910.568 253.833 908.734 252C907.068 250.167 906.234 247.583 906.234 244.25V178.5C906.234 167.167 903.984 158.917 899.484 153.75C895.151 148.417 888.151 145.75 878.484 145.75C867.318 145.75 858.401 149.25 851.734 156.25C845.234 163.083 841.984 172.25 841.984 183.75V244.25C841.984 251.25 838.568 254.75 831.734 254.75ZM973.824 254.25C970.491 254.25 967.991 253.333 966.324 251.5C964.658 249.5 963.824 246.75 963.824 243.25V141C963.824 137.5 964.658 134.833 966.324 133C967.991 131.167 970.491 130.25 973.824 130.25C976.991 130.25 979.491 131.167 981.324 133C983.158 134.833 984.074 137.5 984.074 141V243.25C984.074 246.75 983.158 249.5 981.324 251.5C979.658 253.333 977.158 254.25 973.824 254.25ZM982.074 114C980.908 115.667 979.491 116.667 977.824 117C976.158 117.167 974.574 116.917 973.074 116.25C971.574 115.417 970.491 114.25 969.824 112.75C969.158 111.25 969.324 109.5 970.324 107.5L991.324 66.75C992.491 64.4167 993.991 62.9167 995.824 62.25C997.658 61.5833 999.491 61.5 1001.32 62C1003.32 62.3333 1004.99 63.1667 1006.32 64.5C1007.66 65.8333 1008.41 67.4167 1008.57 69.25C1008.91 71.0833 1008.41 73 1007.07 75L982.074 114ZM1132.63 255.25C1121.8 255.25 1112.3 252.667 1104.13 247.5C1096.13 242.333 1089.88 235.083 1085.38 225.75C1081.05 216.25 1078.88 205.083 1078.88 192.25C1078.88 179.25 1081.05 168.083 1085.38 158.75C1089.88 149.25 1096.13 142 1104.13 137C1112.3 131.833 1121.8 129.25 1132.63 129.25C1143.63 129.25 1153.05 132 1160.88 137.5C1168.72 143 1173.97 150.417 1176.63 159.75H1173.88V85.25C1173.88 81.9167 1174.72 79.4167 1176.38 77.75C1178.22 75.9167 1180.8 75 1184.13 75C1187.3 75 1189.72 75.9167 1191.38 77.75C1193.22 79.4167 1194.13 81.9167 1194.13 85.25V244.25C1194.13 247.583 1193.3 250.167 1191.63 252C1189.97 253.833 1187.47 254.75 1184.13 254.75C1180.97 254.75 1178.47 253.833 1176.63 252C1174.97 250.167 1174.13 247.583 1174.13 244.25V220.5L1176.88 224C1174.22 233.5 1168.88 241.083 1160.88 246.75C1153.05 252.417 1143.63 255.25 1132.63 255.25ZM1136.88 239C1144.38 239 1150.97 237.167 1156.63 233.5C1162.3 229.833 1166.63 224.5 1169.63 217.5C1172.8 210.5 1174.38 202.083 1174.38 192.25C1174.38 177.083 1170.97 165.5 1164.13 157.5C1157.47 149.5 1148.38 145.5 1136.88 145.5C1129.22 145.5 1122.55 147.333 1116.88 151C1111.38 154.5 1107.05 159.75 1103.88 166.75C1100.88 173.583 1099.38 182.083 1099.38 192.25C1099.38 207.25 1102.8 218.833 1109.63 227C1116.47 235 1125.55 239 1136.88 239ZM1242.13 254.25C1238.8 254.25 1236.3 253.333 1234.63 251.5C1232.97 249.5 1232.13 246.75 1232.13 243.25V141C1232.13 137.5 1232.97 134.833 1234.63 133C1236.3 131.167 1238.8 130.25 1242.13 130.25C1245.3 130.25 1247.8 131.167 1249.63 133C1251.47 134.833 1252.38 137.5 1252.38 141V243.25C1252.38 246.75 1251.47 249.5 1249.63 251.5C1247.97 253.333 1245.47 254.25 1242.13 254.25ZM1242.13 102.25C1237.97 102.25 1234.72 101.167 1232.38 99C1230.05 96.6667 1228.88 93.5833 1228.88 89.75C1228.88 85.75 1230.05 82.75 1232.38 80.75C1234.72 78.5833 1237.97 77.5 1242.13 77.5C1246.47 77.5 1249.72 78.5833 1251.88 80.75C1254.22 82.75 1255.38 85.75 1255.38 89.75C1255.38 93.5833 1254.22 96.6667 1251.88 99C1249.72 101.167 1246.47 102.25 1242.13 102.25ZM1331.24 255.25C1323.74 255.25 1316.16 254.333 1308.49 252.5C1300.99 250.667 1293.99 247.5 1287.49 243C1285.82 241.833 1284.66 240.5 1283.99 239C1283.32 237.333 1283.07 235.75 1283.24 234.25C1283.57 232.583 1284.24 231.167 1285.24 230C1286.41 228.833 1287.74 228.167 1289.24 228C1290.91 227.667 1292.74 228 1294.74 229C1301.24 233 1307.49 235.833 1313.49 237.5C1319.66 239 1325.74 239.75 1331.74 239.75C1341.24 239.75 1348.41 238 1353.24 234.5C1358.07 231 1360.49 226.25 1360.49 220.25C1360.49 215.583 1358.91 211.917 1355.74 209.25C1352.57 206.417 1347.57 204.25 1340.74 202.75L1317.99 197.75C1307.49 195.583 1299.66 191.833 1294.49 186.5C1289.49 181.167 1286.99 174.25 1286.99 165.75C1286.99 158.25 1288.91 151.833 1292.74 146.5C1296.74 141 1302.32 136.75 1309.49 133.75C1316.66 130.75 1324.99 129.25 1334.49 129.25C1341.82 129.25 1348.74 130.25 1355.24 132.25C1361.91 134.083 1367.91 137.083 1373.24 141.25C1374.91 142.417 1375.99 143.833 1376.49 145.5C1377.16 147 1377.24 148.583 1376.74 150.25C1376.41 151.75 1375.66 153.083 1374.49 154.25C1373.32 155.25 1371.91 155.833 1370.24 156C1368.57 156.167 1366.82 155.667 1364.99 154.5C1359.99 151.167 1354.91 148.75 1349.74 147.25C1344.57 145.583 1339.49 144.75 1334.49 144.75C1325.16 144.75 1318.07 146.583 1313.24 150.25C1308.41 153.917 1305.99 158.75 1305.99 164.75C1305.99 169.417 1307.49 173.25 1310.49 176.25C1313.49 179.25 1318.16 181.417 1324.49 182.75L1347.24 187.5C1358.07 189.833 1366.16 193.583 1371.49 198.75C1376.99 203.75 1379.74 210.583 1379.74 219.25C1379.74 230.25 1375.32 239 1366.49 245.5C1357.66 252 1345.91 255.25 1331.24 255.25ZM1458.13 255.25C1448.63 255.25 1440.63 253.583 1434.13 250.25C1427.8 246.75 1423.05 241.75 1419.88 235.25C1416.71 228.583 1415.13 220.5 1415.13 211V147.25H1398.38C1395.55 147.25 1393.38 146.583 1391.88 145.25C1390.38 143.75 1389.63 141.75 1389.63 139.25C1389.63 136.75 1390.38 134.833 1391.88 133.5C1393.38 132.167 1395.55 131.5 1398.38 131.5H1415.13V102.75C1415.13 99.4167 1416.05 96.9167 1417.88 95.25C1419.71 93.4167 1422.21 92.5 1425.38 92.5C1428.55 92.5 1430.96 93.4167 1432.63 95.25C1434.46 96.9167 1435.38 99.4167 1435.38 102.75V131.5H1466.88C1469.71 131.5 1471.88 132.167 1473.38 133.5C1474.88 134.833 1475.63 136.75 1475.63 139.25C1475.63 141.75 1474.88 143.75 1473.38 145.25C1471.88 146.583 1469.71 147.25 1466.88 147.25H1435.38V209C1435.38 218.5 1437.38 225.75 1441.38 230.75C1445.38 235.583 1451.88 238 1460.88 238C1464.05 238 1466.71 237.667 1468.88 237C1471.21 236.333 1473.13 236 1474.63 236C1476.13 235.833 1477.38 236.333 1478.38 237.5C1479.38 238.667 1479.88 240.667 1479.88 243.5C1479.88 245.5 1479.46 247.333 1478.63 249C1477.96 250.667 1476.71 251.833 1474.88 252.5C1472.88 253.167 1470.21 253.75 1466.88 254.25C1463.71 254.917 1460.8 255.25 1458.13 255.25ZM1507.03 254.75C1503.7 254.75 1501.12 253.833 1499.28 252C1497.62 250.167 1496.78 247.583 1496.78 244.25V140C1496.78 136.667 1497.62 134.167 1499.28 132.5C1500.95 130.667 1503.37 129.75 1506.53 129.75C1509.7 129.75 1512.12 130.667 1513.78 132.5C1515.62 134.167 1516.53 136.667 1516.53 140V160.25H1514.03C1516.7 150.417 1521.78 142.833 1529.28 137.5C1536.78 132.167 1546.03 129.333 1557.03 129C1559.53 128.833 1561.53 129.417 1563.03 130.75C1564.53 131.917 1565.37 134 1565.53 137C1565.7 139.833 1565.03 142.083 1563.53 143.75C1562.03 145.417 1559.7 146.417 1556.53 146.75L1552.53 147.25C1541.2 148.25 1532.45 151.917 1526.28 158.25C1520.28 164.417 1517.28 172.917 1517.28 183.75V244.25C1517.28 247.583 1516.37 250.167 1514.53 252C1512.87 253.833 1510.37 254.75 1507.03 254.75ZM1596.38 254.25C1593.05 254.25 1590.55 253.333 1588.88 251.5C1587.22 249.5 1586.38 246.75 1586.38 243.25V141C1586.38 137.5 1587.22 134.833 1588.88 133C1590.55 131.167 1593.05 130.25 1596.38 130.25C1599.55 130.25 1602.05 131.167 1603.88 133C1605.72 134.833 1606.63 137.5 1606.63 141V243.25C1606.63 246.75 1605.72 249.5 1603.88 251.5C1602.22 253.333 1599.72 254.25 1596.38 254.25ZM1596.38 102.25C1592.22 102.25 1588.97 101.167 1586.63 99C1584.3 96.6667 1583.13 93.5833 1583.13 89.75C1583.13 85.75 1584.3 82.75 1586.63 80.75C1588.97 78.5833 1592.22 77.5 1596.38 77.5C1600.72 77.5 1603.97 78.5833 1606.13 80.75C1608.47 82.75 1609.63 85.75 1609.63 89.75C1609.63 93.5833 1608.47 96.6667 1606.13 99C1603.97 101.167 1600.72 102.25 1596.38 102.25ZM1705.99 255.25C1694.99 255.25 1685.49 252.417 1677.49 246.75C1669.65 241.083 1664.4 233.5 1661.74 224L1664.49 221.25V244.25C1664.49 247.583 1663.57 250.167 1661.74 252C1660.07 253.833 1657.65 254.75 1654.49 254.75C1651.15 254.75 1648.65 253.833 1646.99 252C1645.32 250.167 1644.49 247.583 1644.49 244.25V85.25C1644.49 81.9167 1645.32 79.4167 1646.99 77.75C1648.65 75.9167 1651.15 75 1654.49 75C1657.65 75 1660.15 75.9167 1661.99 77.75C1663.82 79.4167 1664.74 81.9167 1664.74 85.25V159.75H1661.74C1664.57 150.417 1669.9 143 1677.74 137.5C1685.57 132 1694.99 129.25 1705.99 129.25C1716.99 129.25 1726.49 131.833 1734.49 137C1742.49 142 1748.65 149.25 1752.99 158.75C1757.49 168.083 1759.74 179.25 1759.74 192.25C1759.74 205.083 1757.49 216.25 1752.99 225.75C1748.65 235.083 1742.4 242.333 1734.24 247.5C1726.24 252.667 1716.82 255.25 1705.99 255.25ZM1701.74 239C1709.4 239 1715.99 237.167 1721.49 233.5C1727.15 229.833 1731.49 224.5 1734.49 217.5C1737.65 210.5 1739.24 202.083 1739.24 192.25C1739.24 177.083 1735.82 165.5 1728.99 157.5C1722.32 149.5 1713.24 145.5 1701.74 145.5C1694.24 145.5 1687.65 147.333 1681.99 151C1676.32 154.5 1671.9 159.75 1668.74 166.75C1665.74 173.583 1664.24 182.083 1664.24 192.25C1664.24 207.25 1667.65 218.833 1674.49 227C1681.32 235 1690.4 239 1701.74 239ZM1833.24 255.25C1823.41 255.25 1815.24 253.5 1808.74 250C1802.41 246.333 1797.57 240.917 1794.24 233.75C1791.07 226.583 1789.49 217.667 1789.49 207V140C1789.49 136.5 1790.32 133.917 1791.99 132.25C1793.82 130.583 1796.32 129.75 1799.49 129.75C1802.82 129.75 1805.32 130.583 1806.99 132.25C1808.82 133.917 1809.74 136.5 1809.74 140V206.75C1809.74 217.417 1811.91 225.417 1816.24 230.75C1820.74 235.917 1827.74 238.5 1837.24 238.5C1847.57 238.5 1855.99 235 1862.49 228C1868.99 221 1872.24 211.833 1872.24 200.5V140C1872.24 136.5 1873.07 133.917 1874.74 132.25C1876.57 130.583 1879.16 129.75 1882.49 129.75C1885.66 129.75 1888.07 130.583 1889.74 132.25C1891.57 133.917 1892.49 136.5 1892.49 140V244.25C1892.49 251.25 1889.24 254.75 1882.74 254.75C1879.57 254.75 1877.07 253.833 1875.24 252C1873.57 250.167 1872.74 247.583 1872.74 244.25V221.5L1875.99 225C1872.66 234.833 1867.16 242.333 1859.49 247.5C1851.99 252.667 1843.24 255.25 1833.24 255.25ZM1979.13 255.25C1969.63 255.25 1961.63 253.583 1955.13 250.25C1948.79 246.75 1944.04 241.75 1940.88 235.25C1937.71 228.583 1936.13 220.5 1936.13 211V147.25H1919.38C1916.54 147.25 1914.38 146.583 1912.88 145.25C1911.38 143.75 1910.63 141.75 1910.63 139.25C1910.63 136.75 1911.38 134.833 1912.88 133.5C1914.38 132.167 1916.54 131.5 1919.38 131.5H1936.13V102.75C1936.13 99.4167 1937.04 96.9167 1938.88 95.25C1940.71 93.4167 1943.21 92.5 1946.38 92.5C1949.54 92.5 1951.96 93.4167 1953.63 95.25C1955.46 96.9167 1956.38 99.4167 1956.38 102.75V131.5H1987.88C1990.71 131.5 1992.88 132.167 1994.38 133.5C1995.88 134.833 1996.63 136.75 1996.63 139.25C1996.63 141.75 1995.88 143.75 1994.38 145.25C1992.88 146.583 1990.71 147.25 1987.88 147.25H1956.38V209C1956.38 218.5 1958.38 225.75 1962.38 230.75C1966.38 235.583 1972.88 238 1981.88 238C1985.04 238 1987.71 237.667 1989.88 237C1992.21 236.333 1994.13 236 1995.63 236C1997.13 235.833 1998.38 236.333 1999.38 237.5C2000.38 238.667 2000.88 240.667 2000.88 243.5C2000.88 245.5 2000.46 247.333 1999.63 249C1998.96 250.667 1997.71 251.833 1995.88 252.5C1993.88 253.167 1991.21 253.75 1987.88 254.25C1984.71 254.917 1981.79 255.25 1979.13 255.25ZM2067.06 255.25C2055.23 255.25 2044.98 252.667 2036.31 247.5C2027.64 242.333 2020.89 235.083 2016.06 225.75C2011.39 216.25 2009.06 205.083 2009.06 192.25C2009.06 182.583 2010.39 173.917 2013.06 166.25C2015.73 158.417 2019.64 151.75 2024.81 146.25C2029.98 140.75 2036.06 136.583 2043.06 133.75C2050.23 130.75 2058.23 129.25 2067.06 129.25C2078.89 129.25 2089.14 131.833 2097.81 137C2106.48 142.167 2113.14 149.5 2117.81 159C2122.64 168.333 2125.06 179.417 2125.06 192.25C2125.06 201.917 2123.73 210.583 2121.06 218.25C2118.39 225.917 2114.48 232.583 2109.31 238.25C2104.14 243.75 2097.98 248 2090.81 251C2083.81 253.833 2075.89 255.25 2067.06 255.25ZM2067.06 239C2074.56 239 2081.14 237.167 2086.81 233.5C2092.48 229.833 2096.81 224.5 2099.81 217.5C2102.98 210.5 2104.56 202.083 2104.56 192.25C2104.56 177.083 2101.14 165.5 2094.31 157.5C2087.64 149.5 2078.56 145.5 2067.06 145.5C2059.39 145.5 2052.73 147.333 2047.06 151C2041.56 154.5 2037.23 159.75 2034.06 166.75C2031.06 173.583 2029.56 182.083 2029.56 192.25C2029.56 207.25 2032.98 218.833 2039.81 227C2046.64 235 2055.73 239 2067.06 239ZM2165.72 254.75C2162.39 254.75 2159.81 253.833 2157.97 252C2156.31 250.167 2155.47 247.583 2155.47 244.25V140C2155.47 136.667 2156.31 134.167 2157.97 132.5C2159.64 130.667 2162.06 129.75 2165.22 129.75C2168.39 129.75 2170.81 130.667 2172.47 132.5C2174.31 134.167 2175.22 136.667 2175.22 140V160.25H2172.72C2175.39 150.417 2180.47 142.833 2187.97 137.5C2195.47 132.167 2204.72 129.333 2215.72 129C2218.22 128.833 2220.22 129.417 2221.72 130.75C2223.22 131.917 2224.06 134 2224.22 137C2224.39 139.833 2223.72 142.083 2222.22 143.75C2220.72 145.417 2218.39 146.417 2215.22 146.75L2211.22 147.25C2199.89 148.25 2191.14 151.917 2184.97 158.25C2178.97 164.417 2175.97 172.917 2175.97 183.75V244.25C2175.97 247.583 2175.06 250.167 2173.22 252C2171.56 253.833 2169.06 254.75 2165.72 254.75ZM80.5 596.25C69.5 596.25 60 593.417 52 587.75C44.1667 582.083 38.9167 574.5 36.25 565L39 562.25V585.25C39 588.583 38.0833 591.167 36.25 593C34.5833 594.833 32.1667 595.75 29 595.75C25.6667 595.75 23.1667 594.833 21.5 593C19.8333 591.167 19 588.583 19 585.25V426.25C19 422.917 19.8333 420.417 21.5 418.75C23.1667 416.917 25.6667 416 29 416C32.1667 416 34.6667 416.917 36.5 418.75C38.3333 420.417 39.25 422.917 39.25 426.25V500.75H36.25C39.0833 491.417 44.4167 484 52.25 478.5C60.0833 473 69.5 470.25 80.5 470.25C91.5 470.25 101 472.833 109 478C117 483 123.167 490.25 127.5 499.75C132 509.083 134.25 520.25 134.25 533.25C134.25 546.083 132 557.25 127.5 566.75C123.167 576.083 116.917 583.333 108.75 588.5C100.75 593.667 91.3333 596.25 80.5 596.25ZM76.25 580C83.9167 580 90.5 578.167 96 574.5C101.667 570.833 106 565.5 109 558.5C112.167 551.5 113.75 543.083 113.75 533.25C113.75 518.083 110.333 506.5 103.5 498.5C96.8333 490.5 87.75 486.5 76.25 486.5C68.75 486.5 62.1667 488.333 56.5 492C50.8333 495.5 46.4167 500.75 43.25 507.75C40.25 514.583 38.75 523.083 38.75 533.25C38.75 548.25 42.1667 559.833 49 568C55.8333 576 64.9167 580 76.25 580ZM219.502 596.25C206.669 596.25 195.585 593.75 186.252 588.75C177.085 583.583 169.919 576.333 164.752 567C159.752 557.667 157.252 546.5 157.252 533.5C157.252 520.833 159.752 509.833 164.752 500.5C169.752 491 176.585 483.583 185.252 478.25C194.085 472.917 204.252 470.25 215.752 470.25C223.919 470.25 231.252 471.667 237.752 474.5C244.252 477.167 249.752 481.083 254.252 486.25C258.919 491.417 262.419 497.667 264.752 505C267.252 512.333 268.502 520.583 268.502 529.75C268.502 532.417 267.752 534.417 266.252 535.75C264.752 536.917 262.585 537.5 259.752 537.5H172.752V524.25H255.002L251.002 527.5C251.002 518.5 249.669 510.917 247.002 504.75C244.335 498.417 240.419 493.583 235.252 490.25C230.252 486.917 223.919 485.25 216.252 485.25C207.752 485.25 200.502 487.25 194.502 491.25C188.669 495.083 184.252 500.5 181.252 507.5C178.252 514.333 176.752 522.333 176.752 531.5V533C176.752 548.333 180.419 560 187.752 568C195.252 576 205.835 580 219.502 580C225.169 580 230.752 579.25 236.252 577.75C241.919 576.25 247.419 573.75 252.752 570.25C255.085 568.75 257.169 568.083 259.002 568.25C261.002 568.25 262.585 568.833 263.752 570C264.919 571 265.669 572.333 266.002 574C266.502 575.5 266.335 577.167 265.502 579C264.835 580.833 263.419 582.417 261.252 583.75C255.752 587.75 249.252 590.833 241.752 593C234.252 595.167 226.835 596.25 219.502 596.25ZM334.809 596.25C322.809 596.25 313.642 592.583 307.309 585.25C300.975 577.917 297.809 567.417 297.809 553.75V426.25C297.809 422.917 298.642 420.417 300.309 418.75C301.975 416.917 304.475 416 307.809 416C310.975 416 313.475 416.917 315.309 418.75C317.142 420.417 318.059 422.917 318.059 426.25V552.25C318.059 561.25 319.809 568 323.309 572.5C326.975 576.833 332.309 579 339.309 579C340.809 579 342.142 578.917 343.309 578.75C344.475 578.583 345.642 578.5 346.809 578.5C348.642 578.333 349.892 578.75 350.559 579.75C351.392 580.75 351.809 582.75 351.809 585.75C351.809 588.75 351.142 591 349.809 592.5C348.475 594 346.309 595 343.309 595.5C341.975 595.667 340.559 595.833 339.059 596C337.559 596.167 336.142 596.25 334.809 596.25ZM424.313 641.25C415.479 641.25 406.813 640.167 398.313 638C389.979 636 382.396 632.75 375.563 628.25C373.563 627.083 372.229 625.667 371.563 624C371.063 622.333 370.979 620.667 371.313 619C371.646 617.5 372.396 616.083 373.563 614.75C374.729 613.583 376.063 612.833 377.563 612.5C379.229 612.167 380.896 612.417 382.563 613.25C389.896 617.75 396.896 620.833 403.563 622.5C410.229 624.167 416.813 625 423.313 625C435.146 625 444.063 621.833 450.063 615.5C456.229 609.167 459.313 600 459.313 588V559.75H461.813C459.313 569.417 453.979 577.083 445.813 582.75C437.813 588.417 428.396 591.25 417.562 591.25C406.396 591.25 396.729 588.75 388.563 583.75C380.396 578.583 374.063 571.417 369.563 562.25C365.229 553.083 363.063 542.5 363.063 530.5C363.063 521.5 364.313 513.333 366.813 506C369.313 498.5 372.896 492.167 377.563 487C382.396 481.667 388.146 477.583 394.813 474.75C401.646 471.75 409.229 470.25 417.562 470.25C428.563 470.25 438.063 473.083 446.063 478.75C454.063 484.25 459.229 491.75 461.563 501.25L459.063 504.25V481C459.063 477.667 459.896 475.167 461.563 473.5C463.396 471.667 465.896 470.75 469.063 470.75C472.396 470.75 474.896 471.667 476.562 473.5C478.229 475.167 479.063 477.667 479.063 481V585.25C479.063 603.75 474.396 617.667 465.063 627C455.896 636.5 442.313 641.25 424.313 641.25ZM421.313 574.75C429.146 574.75 435.896 573 441.563 569.5C447.229 565.833 451.563 560.667 454.563 554C457.729 547.333 459.313 539.5 459.313 530.5C459.313 517 455.896 506.333 449.063 498.5C442.229 490.5 432.979 486.5 421.313 486.5C413.646 486.5 406.979 488.333 401.313 492C395.646 495.5 391.229 500.583 388.063 507.25C385.063 513.75 383.563 521.5 383.563 530.5C383.563 544 386.979 554.75 393.813 562.75C400.646 570.75 409.813 574.75 421.313 574.75ZM527.047 595.25C523.714 595.25 521.214 594.333 519.547 592.5C517.88 590.5 517.047 587.75 517.047 584.25V482C517.047 478.5 517.88 475.833 519.547 474C521.214 472.167 523.714 471.25 527.047 471.25C530.214 471.25 532.714 472.167 534.547 474C536.38 475.833 537.297 478.5 537.297 482V584.25C537.297 587.75 536.38 590.5 534.547 592.5C532.88 594.333 530.38 595.25 527.047 595.25ZM527.047 443.25C522.88 443.25 519.63 442.167 517.297 440C514.964 437.667 513.797 434.583 513.797 430.75C513.797 426.75 514.964 423.75 517.297 421.75C519.63 419.583 522.88 418.5 527.047 418.5C531.38 418.5 534.63 419.583 536.797 421.75C539.13 423.75 540.297 426.75 540.297 430.75C540.297 434.583 539.13 437.667 536.797 440C534.63 442.167 531.38 443.25 527.047 443.25ZM626.652 596.25C614.486 596.25 603.986 593.583 595.152 588.25C586.319 582.917 579.486 575.5 574.652 566C569.986 556.333 567.652 545.167 567.652 532.5C567.652 522.833 568.986 514.167 571.652 506.5C574.319 498.833 578.236 492.333 583.402 487C588.569 481.5 594.736 477.333 601.902 474.5C609.236 471.667 617.486 470.25 626.652 470.25C632.652 470.25 638.902 471.167 645.402 473C651.902 474.833 657.819 478 663.152 482.5C664.819 483.667 665.902 485.083 666.402 486.75C666.902 488.417 666.902 490.083 666.402 491.75C665.902 493.25 665.069 494.583 663.902 495.75C662.736 496.75 661.236 497.333 659.402 497.5C657.736 497.667 655.986 497.083 654.152 495.75C649.819 492.417 645.402 490.083 640.902 488.75C636.402 487.417 632.069 486.75 627.902 486.75C621.402 486.75 615.736 487.833 610.902 490C606.069 492 601.986 494.917 598.652 498.75C595.319 502.583 592.736 507.333 590.902 513C589.236 518.667 588.402 525.25 588.402 532.75C588.402 547.25 591.819 558.75 598.652 567.25C605.486 575.583 615.236 579.75 627.902 579.75C632.069 579.75 636.319 579.083 640.652 577.75C645.152 576.417 649.652 574.083 654.152 570.75C655.986 569.417 657.736 568.833 659.402 569C661.069 569.167 662.486 569.833 663.652 571C664.819 572 665.569 573.333 665.902 575C666.402 576.667 666.402 578.333 665.902 580C665.402 581.5 664.319 582.833 662.652 584C657.319 588.333 651.486 591.5 645.152 593.5C638.819 595.333 632.652 596.25 626.652 596.25ZM700.875 595.75C697.542 595.75 695.042 594.833 693.375 593C691.708 591.167 690.875 588.583 690.875 585.25V426.25C690.875 422.917 691.708 420.417 693.375 418.75C695.042 416.917 697.542 416 700.875 416C704.042 416 706.542 416.917 708.375 418.75C710.208 420.417 711.125 422.917 711.125 426.25V526.5H711.625L762.875 477.5C765.208 475.333 767.208 473.667 768.875 472.5C770.708 471.333 773.125 470.75 776.125 470.75C778.792 470.75 780.875 471.5 782.375 473C783.875 474.333 784.542 476.083 784.375 478.25C784.375 480.25 783.375 482.417 781.375 484.75L726.875 536.5V525.5L786.125 581.25C788.458 583.583 789.625 585.833 789.625 588C789.625 590.167 788.792 592 787.125 593.5C785.625 595 783.625 595.75 781.125 595.75C778.125 595.75 775.708 595.167 773.875 594C772.042 592.667 769.792 590.75 767.125 588.25L711.625 537H711.125V585.25C711.125 592.25 707.708 595.75 700.875 595.75ZM867.451 596.25C854.618 596.25 843.535 593.75 834.201 588.75C825.035 583.583 817.868 576.333 812.701 567C807.701 557.667 805.201 546.5 805.201 533.5C805.201 520.833 807.701 509.833 812.701 500.5C817.701 491 824.535 483.583 833.201 478.25C842.035 472.917 852.201 470.25 863.701 470.25C871.868 470.25 879.201 471.667 885.701 474.5C892.201 477.167 897.701 481.083 902.201 486.25C906.868 491.417 910.368 497.667 912.701 505C915.201 512.333 916.451 520.583 916.451 529.75C916.451 532.417 915.701 534.417 914.201 535.75C912.701 536.917 910.535 537.5 907.701 537.5H820.701V524.25H902.951L898.951 527.5C898.951 518.5 897.618 510.917 894.951 504.75C892.285 498.417 888.368 493.583 883.201 490.25C878.201 486.917 871.868 485.25 864.201 485.25C855.701 485.25 848.451 487.25 842.451 491.25C836.618 495.083 832.201 500.5 829.201 507.5C826.201 514.333 824.701 522.333 824.701 531.5V533C824.701 548.333 828.368 560 835.701 568C843.201 576 853.785 580 867.451 580C873.118 580 878.701 579.25 884.201 577.75C889.868 576.25 895.368 573.75 900.701 570.25C903.035 568.75 905.118 568.083 906.951 568.25C908.951 568.25 910.535 568.833 911.701 570C912.868 571 913.618 572.333 913.951 574C914.451 575.5 914.285 577.167 913.451 579C912.785 580.833 911.368 582.417 909.201 583.75C903.701 587.75 897.201 590.833 889.701 593C882.201 595.167 874.785 596.25 867.451 596.25ZM871.951 455C870.785 456.667 869.368 457.667 867.701 458C866.035 458.167 864.451 457.917 862.951 457.25C861.451 456.417 860.368 455.25 859.701 453.75C859.035 452.25 859.201 450.5 860.201 448.5L881.201 407.75C882.368 405.417 883.868 403.917 885.701 403.25C887.535 402.583 889.368 402.5 891.201 403C893.201 403.333 894.868 404.167 896.201 405.5C897.535 406.833 898.285 408.417 898.451 410.25C898.785 412.083 898.285 414 896.951 416L871.951 455ZM955.758 595.75C952.424 595.75 949.924 594.833 948.258 593C946.591 591.167 945.758 588.583 945.758 585.25V426.25C945.758 422.917 946.591 420.417 948.258 418.75C949.924 416.917 952.424 416 955.758 416C958.924 416 961.424 416.917 963.258 418.75C965.091 420.417 966.008 422.917 966.008 426.25V499.5H962.758C966.258 489.833 971.924 482.583 979.758 477.75C987.758 472.75 996.924 470.25 1007.26 470.25C1016.92 470.25 1024.92 472 1031.26 475.5C1037.76 479 1042.59 484.333 1045.76 491.5C1048.92 498.5 1050.51 507.417 1050.51 518.25V585.25C1050.51 588.583 1049.59 591.167 1047.76 593C1046.09 594.833 1043.67 595.75 1040.51 595.75C1037.17 595.75 1034.59 594.833 1032.76 593C1031.09 591.167 1030.26 588.583 1030.26 585.25V519.5C1030.26 508.167 1028.01 499.917 1023.51 494.75C1019.17 489.417 1012.17 486.75 1002.51 486.75C991.341 486.75 982.424 490.25 975.758 497.25C969.258 504.083 966.008 513.25 966.008 524.75V585.25C966.008 592.25 962.591 595.75 955.758 595.75ZM1138.35 596.25C1126.51 596.25 1116.26 593.667 1107.6 588.5C1098.93 583.333 1092.18 576.083 1087.35 566.75C1082.68 557.25 1080.35 546.083 1080.35 533.25C1080.35 523.583 1081.68 514.917 1084.35 507.25C1087.01 499.417 1090.93 492.75 1096.1 487.25C1101.26 481.75 1107.35 477.583 1114.35 474.75C1121.51 471.75 1129.51 470.25 1138.35 470.25C1150.18 470.25 1160.43 472.833 1169.1 478C1177.76 483.167 1184.43 490.5 1189.1 500C1193.93 509.333 1196.35 520.417 1196.35 533.25C1196.35 542.917 1195.01 551.583 1192.35 559.25C1189.68 566.917 1185.76 573.583 1180.6 579.25C1175.43 584.75 1169.26 589 1162.1 592C1155.1 594.833 1147.18 596.25 1138.35 596.25ZM1138.35 580C1145.85 580 1152.43 578.167 1158.1 574.5C1163.76 570.833 1168.1 565.5 1171.1 558.5C1174.26 551.5 1175.85 543.083 1175.85 533.25C1175.85 518.083 1172.43 506.5 1165.6 498.5C1158.93 490.5 1149.85 486.5 1138.35 486.5C1130.68 486.5 1124.01 488.333 1118.35 492C1112.85 495.5 1108.51 500.75 1105.35 507.75C1102.35 514.583 1100.85 523.083 1100.85 533.25C1100.85 548.25 1104.26 559.833 1111.1 568C1117.93 576 1127.01 580 1138.35 580ZM1336.47 595.75C1333.63 595.75 1331.13 595 1328.97 593.5C1326.8 591.833 1324.97 589.333 1323.47 586L1280.22 485C1279.05 482.5 1278.63 480.167 1278.97 478C1279.3 475.833 1280.3 474.083 1281.97 472.75C1283.63 471.417 1285.97 470.75 1288.97 470.75C1291.63 470.75 1293.72 471.333 1295.22 472.5C1296.72 473.667 1298.05 475.75 1299.22 478.75L1340.22 579H1333.47L1375.22 478.75C1376.38 475.75 1377.72 473.667 1379.22 472.5C1380.72 471.333 1382.88 470.75 1385.72 470.75C1388.38 470.75 1390.38 471.417 1391.72 472.75C1393.22 474.083 1394.05 475.833 1394.22 478C1394.55 480 1394.22 482.25 1393.22 484.75L1349.47 586C1348.3 589.333 1346.55 591.833 1344.22 593.5C1342.05 595 1339.47 595.75 1336.47 595.75ZM1451.52 640.75C1449.02 640.75 1447.02 640.083 1445.52 638.75C1444.02 637.417 1443.1 635.583 1442.77 633.25C1442.6 631.083 1443.02 628.833 1444.02 626.5L1461.27 587.75V596.5L1413.27 485C1412.27 482.5 1411.93 480.167 1412.27 478C1412.6 475.833 1413.6 474.083 1415.27 472.75C1416.93 471.417 1419.27 470.75 1422.27 470.75C1424.93 470.75 1427.02 471.333 1428.52 472.5C1430.02 473.667 1431.35 475.75 1432.52 478.75L1473.52 579.25H1466.77L1508.27 478.75C1509.6 475.75 1511.02 473.667 1512.52 472.5C1514.02 471.333 1516.18 470.75 1519.02 470.75C1521.68 470.75 1523.68 471.417 1525.02 472.75C1526.52 474.083 1527.35 475.833 1527.52 478C1527.85 480 1527.52 482.25 1526.52 484.75L1462.52 632.75C1461.18 635.75 1459.68 637.833 1458.02 639C1456.52 640.167 1454.35 640.75 1451.52 640.75ZM1478.27 455C1477.1 456.667 1475.68 457.667 1474.02 458C1472.35 458.167 1470.77 457.917 1469.27 457.25C1467.77 456.417 1466.68 455.25 1466.02 453.75C1465.35 452.25 1465.52 450.5 1466.52 448.5L1487.52 407.75C1488.68 405.417 1490.18 403.917 1492.02 403.25C1493.85 402.583 1495.68 402.5 1497.52 403C1499.52 403.333 1501.18 404.167 1502.52 405.5C1503.85 406.833 1504.6 408.417 1504.77 410.25C1505.1 412.083 1504.6 414 1503.27 416L1478.27 455ZM1563.19 595.75C1559.85 595.75 1557.27 594.833 1555.44 593C1553.77 591.167 1552.94 588.583 1552.94 585.25V481C1552.94 477.667 1553.77 475.167 1555.44 473.5C1557.1 471.667 1559.52 470.75 1562.69 470.75C1565.85 470.75 1568.27 471.667 1569.94 473.5C1571.77 475.167 1572.69 477.667 1572.69 481V501.25H1570.19C1572.85 491.417 1577.94 483.833 1585.44 478.5C1592.94 473.167 1602.19 470.333 1613.19 470C1615.69 469.833 1617.69 470.417 1619.19 471.75C1620.69 472.917 1621.52 475 1621.69 478C1621.85 480.833 1621.19 483.083 1619.69 484.75C1618.19 486.417 1615.85 487.417 1612.69 487.75L1608.69 488.25C1597.35 489.25 1588.6 492.917 1582.44 499.25C1576.44 505.417 1573.44 513.917 1573.44 524.75V585.25C1573.44 588.583 1572.52 591.167 1570.69 593C1569.02 594.833 1566.52 595.75 1563.19 595.75ZM1691.57 596.25C1679.74 596.25 1669.49 593.667 1660.82 588.5C1652.15 583.333 1645.4 576.083 1640.57 566.75C1635.9 557.25 1633.57 546.083 1633.57 533.25C1633.57 523.583 1634.9 514.917 1637.57 507.25C1640.24 499.417 1644.15 492.75 1649.32 487.25C1654.49 481.75 1660.57 477.583 1667.57 474.75C1674.74 471.75 1682.74 470.25 1691.57 470.25C1703.4 470.25 1713.65 472.833 1722.32 478C1730.99 483.167 1737.65 490.5 1742.32 500C1747.15 509.333 1749.57 520.417 1749.57 533.25C1749.57 542.917 1748.24 551.583 1745.57 559.25C1742.9 566.917 1738.99 573.583 1733.82 579.25C1728.65 584.75 1722.49 589 1715.32 592C1708.32 594.833 1700.4 596.25 1691.57 596.25ZM1691.57 580C1699.07 580 1705.65 578.167 1711.32 574.5C1716.99 570.833 1721.32 565.5 1724.32 558.5C1727.49 551.5 1729.07 543.083 1729.07 533.25C1729.07 518.083 1725.65 506.5 1718.82 498.5C1712.15 490.5 1703.07 486.5 1691.57 486.5C1683.9 486.5 1677.24 488.333 1671.57 492C1666.07 495.5 1661.74 500.75 1658.57 507.75C1655.57 514.583 1654.07 523.083 1654.07 533.25C1654.07 548.25 1657.49 559.833 1664.32 568C1671.15 576 1680.24 580 1691.57 580ZM1841.49 596.25C1830.49 596.25 1820.99 593.417 1812.99 587.75C1805.15 582.083 1799.9 574.5 1797.24 565L1799.99 562.25V585.25C1799.99 588.583 1799.07 591.167 1797.24 593C1795.57 594.833 1793.15 595.75 1789.99 595.75C1786.65 595.75 1784.15 594.833 1782.49 593C1780.82 591.167 1779.99 588.583 1779.99 585.25V426.25C1779.99 422.917 1780.82 420.417 1782.49 418.75C1784.15 416.917 1786.65 416 1789.99 416C1793.15 416 1795.65 416.917 1797.49 418.75C1799.32 420.417 1800.24 422.917 1800.24 426.25V500.75H1797.24C1800.07 491.417 1805.4 484 1813.24 478.5C1821.07 473 1830.49 470.25 1841.49 470.25C1852.49 470.25 1861.99 472.833 1869.99 478C1877.99 483 1884.15 490.25 1888.49 499.75C1892.99 509.083 1895.24 520.25 1895.24 533.25C1895.24 546.083 1892.99 557.25 1888.49 566.75C1884.15 576.083 1877.9 583.333 1869.74 588.5C1861.74 593.667 1852.32 596.25 1841.49 596.25ZM1837.24 580C1844.9 580 1851.49 578.167 1856.99 574.5C1862.65 570.833 1866.99 565.5 1869.99 558.5C1873.15 551.5 1874.74 543.083 1874.74 533.25C1874.74 518.083 1871.32 506.5 1864.49 498.5C1857.82 490.5 1848.74 486.5 1837.24 486.5C1829.74 486.5 1823.15 488.333 1817.49 492C1811.82 495.5 1807.4 500.75 1804.24 507.75C1801.24 514.583 1799.74 523.083 1799.74 533.25C1799.74 548.25 1803.15 559.833 1809.99 568C1816.82 576 1825.9 580 1837.24 580ZM1977.24 596.25C1965.07 596.25 1954.57 593.583 1945.74 588.25C1936.9 582.917 1930.07 575.5 1925.24 566C1920.57 556.333 1918.24 545.167 1918.24 532.5C1918.24 522.833 1919.57 514.167 1922.24 506.5C1924.9 498.833 1928.82 492.333 1933.99 487C1939.15 481.5 1945.32 477.333 1952.49 474.5C1959.82 471.667 1968.07 470.25 1977.24 470.25C1983.24 470.25 1989.49 471.167 1995.99 473C2002.49 474.833 2008.4 478 2013.74 482.5C2015.4 483.667 2016.49 485.083 2016.99 486.75C2017.49 488.417 2017.49 490.083 2016.99 491.75C2016.49 493.25 2015.65 494.583 2014.49 495.75C2013.32 496.75 2011.82 497.333 2009.99 497.5C2008.32 497.667 2006.57 497.083 2004.74 495.75C2000.4 492.417 1995.99 490.083 1991.49 488.75C1986.99 487.417 1982.65 486.75 1978.49 486.75C1971.99 486.75 1966.32 487.833 1961.49 490C1956.65 492 1952.57 494.917 1949.24 498.75C1945.9 502.583 1943.32 507.333 1941.49 513C1939.82 518.667 1938.99 525.25 1938.99 532.75C1938.99 547.25 1942.4 558.75 1949.24 567.25C1956.07 575.583 1965.82 579.75 1978.49 579.75C1982.65 579.75 1986.9 579.083 1991.24 577.75C1995.74 576.417 2000.24 574.083 2004.74 570.75C2006.57 569.417 2008.32 568.833 2009.99 569C2011.65 569.167 2013.07 569.833 2014.24 571C2015.4 572 2016.15 573.333 2016.49 575C2016.99 576.667 2016.99 578.333 2016.49 580C2015.99 581.5 2014.9 582.833 2013.24 584C2007.9 588.333 2002.07 591.5 1995.74 593.5C1989.4 595.333 1983.24 596.25 1977.24 596.25ZM2093.77 596.25C2080.94 596.25 2069.85 593.75 2060.52 588.75C2051.35 583.583 2044.19 576.333 2039.02 567C2034.02 557.667 2031.52 546.5 2031.52 533.5C2031.52 520.833 2034.02 509.833 2039.02 500.5C2044.02 491 2050.85 483.583 2059.52 478.25C2068.35 472.917 2078.52 470.25 2090.02 470.25C2098.19 470.25 2105.52 471.667 2112.02 474.5C2118.52 477.167 2124.02 481.083 2128.52 486.25C2133.19 491.417 2136.69 497.667 2139.02 505C2141.52 512.333 2142.77 520.583 2142.77 529.75C2142.77 532.417 2142.02 534.417 2140.52 535.75C2139.02 536.917 2136.85 537.5 2134.02 537.5H2047.02V524.25H2129.27L2125.27 527.5C2125.27 518.5 2123.94 510.917 2121.27 504.75C2118.6 498.417 2114.69 493.583 2109.52 490.25C2104.52 486.917 2098.19 485.25 2090.52 485.25C2082.02 485.25 2074.77 487.25 2068.77 491.25C2062.94 495.083 2058.52 500.5 2055.52 507.5C2052.52 514.333 2051.02 522.333 2051.02 531.5V533C2051.02 548.333 2054.69 560 2062.02 568C2069.52 576 2080.1 580 2093.77 580C2099.44 580 2105.02 579.25 2110.52 577.75C2116.19 576.25 2121.69 573.75 2127.02 570.25C2129.35 568.75 2131.44 568.083 2133.27 568.25C2135.27 568.25 2136.85 568.833 2138.02 570C2139.19 571 2139.94 572.333 2140.27 574C2140.77 575.5 2140.6 577.167 2139.77 579C2139.1 580.833 2137.69 582.417 2135.52 583.75C2130.02 587.75 2123.52 590.833 2116.02 593C2108.52 595.167 2101.1 596.25 2093.77 596.25Z" fill="black"/>
</svg>
